<svg xmlns="http://www.w3.org/2000/svg" viewBox="0 0 1228 2898" >
	<defs>
		<clipPath clipPathUnits="userSpaceOnUse" id="cp1">
			<path d="M0 -5L1228 -5L1228 2898L0 2898Z" />
		</clipPath>
		<radialGradient id="grd1" gradientUnits="userSpaceOnUse"  cx="649.924" cy="115.289" r="409.504">
			<stop offset="0" stop-color="#f8b264"  />
			<stop offset="0.346" stop-color="#f8b264"  />
			<stop offset="1" stop-color="#f0a24c"  />
		</radialGradient>
		<radialGradient id="grd2" gradientUnits="userSpaceOnUse"  cx="694.78" cy="136.797" r="791.139">
			<stop offset="0" stop-color="#b66132"  />
			<stop offset="0.126" stop-color="#b66132"  />
			<stop offset="0.643" stop-color="#b66132"  />
			<stop offset="1" stop-color="#b66132"  />
		</radialGradient>
		<radialGradient id="grd3" gradientUnits="userSpaceOnUse"  cx="779.51" cy="260.304" r="1086.756">
			<stop offset="0" stop-color="#b66132"  />
			<stop offset="1" stop-color="#784426"  />
		</radialGradient>
		<radialGradient id="grd4" gradientUnits="userSpaceOnUse"  cx="766.394" cy="685.485" r="358.885">
			<stop offset="0" stop-color="#784426"  />
			<stop offset="1" stop-color="#b66132"  />
		</radialGradient>
		<radialGradient id="grd5" gradientUnits="userSpaceOnUse"  cx="208.11" cy="605.127" r="418.154">
			<stop offset="0" stop-color="#784426"  />
			<stop offset="1" stop-color="#b66132"  />
		</radialGradient>
		<radialGradient id="grd6" gradientUnits="userSpaceOnUse"  cx="58.087" cy="876.926" r="843.838">
			<stop offset="0" stop-color="#f8b264"  />
			<stop offset="1" stop-color="#f0a24c"  />
		</radialGradient>
		<linearGradient id="grd7" gradientUnits="userSpaceOnUse"  x1="115.754" y1="1187.699" x2="1793.56" y2="1841.263">
			<stop offset="0" stop-color="#ffffff"  />
			<stop offset="0.357" stop-color="#ffffff"  />
			<stop offset="1" stop-color="#e6e6e6"  />
		</linearGradient>
		<linearGradient id="grd8" gradientUnits="userSpaceOnUse"  x1="-110.195" y1="1782.896" x2="1534.379" y2="2423.515">
			<stop offset="0" stop-color="#ffffff"  />
			<stop offset="0.357" stop-color="#ffffff"  />
			<stop offset="1" stop-color="#e6e6e6"  />
		</linearGradient>
		<radialGradient id="grd9" gradientUnits="userSpaceOnUse"  cx="292.829" cy="1040.006" r="318.407">
			<stop offset="0" stop-color="#7a6763"  />
			<stop offset="0.643" stop-color="#7a6763"  />
			<stop offset="1" stop-color="#7a6763"  />
		</radialGradient>
		<linearGradient id="grd10" gradientUnits="userSpaceOnUse"  x1="949.833" y1="2048.466" x2="699.856" y2="2087.256">
			<stop offset="0" stop-color="#7a6763"  />
			<stop offset="0.643" stop-color="#7a6763"  />
			<stop offset="1" stop-color="#7a6763"  />
		</linearGradient>
		<radialGradient id="grd11" gradientUnits="userSpaceOnUse"  cx="592.545" cy="1623.576" r="94.826">
			<stop offset="0" stop-color="#fbc1a5"  />
			<stop offset="0.196" stop-color="#fbc1a5"  />
			<stop offset="1" stop-color="#febc9c"  />
		</radialGradient>
		<radialGradient id="grd12" gradientUnits="userSpaceOnUse"  cx="592.545" cy="1623.576" r="94.826">
			<stop offset="0" stop-color="#f4966c"  />
			<stop offset="1" stop-color="#f4966c"  />
		</radialGradient>
		<radialGradient id="grd13" gradientUnits="userSpaceOnUse"  cx="768.411" cy="1679.711" r="96.6">
			<stop offset="0" stop-color="#ffffff"  />
			<stop offset="1" stop-color="#e6e6e6"  />
		</radialGradient>
		<linearGradient id="grd14" gradientUnits="userSpaceOnUse"  x1="10.343" y1="1454.874" x2="1682.695" y2="2106.314">
			<stop offset="0" stop-color="#ffffff"  />
			<stop offset="0.357" stop-color="#ffffff"  />
			<stop offset="1" stop-color="#e6e6e6"  />
		</linearGradient>
		<radialGradient id="grd15" gradientUnits="userSpaceOnUse"  cx="947.989" cy="1563.517" r="93.554">
			<stop offset="0" stop-color="#fbc1a5"  />
			<stop offset="0.196" stop-color="#fbc1a5"  />
			<stop offset="1" stop-color="#febc9c"  />
		</radialGradient>
		<radialGradient id="grd16" gradientUnits="userSpaceOnUse"  cx="947.989" cy="1560.383" r="96.359">
			<stop offset="0" stop-color="#f4966c"  />
			<stop offset="1" stop-color="#f4966c"  />
		</radialGradient>
		<radialGradient id="grd17" gradientUnits="userSpaceOnUse"  cx="828.217" cy="1626.328" r="321.457">
			<stop offset="0" stop-color="#ffffff"  />
			<stop offset="1" stop-color="#e6e6e6"  />
		</radialGradient>
		<radialGradient id="grd18" gradientUnits="userSpaceOnUse"  cx="387.683" cy="1010.962" r="363.168">
			<stop offset="0" stop-color="#fbc1a5"  />
			<stop offset="0.196" stop-color="#fbc1a5"  />
			<stop offset="1" stop-color="#febc9c"  />
		</radialGradient>
		<radialGradient id="grd19" gradientUnits="userSpaceOnUse"  cx="454.797" cy="975.647" r="303.722">
			<stop offset="0" stop-color="#f4966c"  />
			<stop offset="1" stop-color="#f4966c"  />
		</radialGradient>
		<radialGradient id="grd20" gradientUnits="userSpaceOnUse"  cx="290.076" cy="640.331" r="105.45">
			<stop offset="0" stop-color="#fbc1a5"  />
			<stop offset="0.196" stop-color="#fbc1a5"  />
			<stop offset="1" stop-color="#ffba99"  />
		</radialGradient>
		<radialGradient id="grd21" gradientUnits="userSpaceOnUse"  cx="290.076" cy="640.331" r="105.45">
			<stop offset="0" stop-color="#f4966c"  />
			<stop offset="0.196" stop-color="#f4966c"  />
			<stop offset="1" stop-color="#e0845a"  />
		</radialGradient>
		<radialGradient id="grd22" gradientUnits="userSpaceOnUse"  cx="361.089" cy="605.113" r="1232.192">
			<stop offset="0" stop-color="#fbc1a5"  />
			<stop offset="0.196" stop-color="#fbc1a5"  />
			<stop offset="1" stop-color="#febc9c"  />
		</radialGradient>
		<radialGradient id="grd23" gradientUnits="userSpaceOnUse"  cx="450.039" cy="495.069" r="722.945">
			<stop offset="0" stop-color="#f4966c"  />
			<stop offset="1" stop-color="#f4966c"  />
		</radialGradient>
		<radialGradient id="grd24" gradientUnits="userSpaceOnUse"  cx="475.55" cy="950.558" r="419.738">
			<stop offset="0" stop-color="#ab5239"  />
			<stop offset="0.031" stop-color="#ab5239"  />
			<stop offset="0.211" stop-color="#a65037"  />
			<stop offset="1" stop-color="#914530"  />
		</radialGradient>
		<radialGradient id="grd25" gradientUnits="userSpaceOnUse"  cx="402.043" cy="530.079" r="46.032">
			<stop offset="0" stop-color="#546e35"  />
			<stop offset="1" stop-color="#364124"  />
		</radialGradient>
		<radialGradient id="grd26" gradientUnits="userSpaceOnUse"  cx="402.043" cy="530.079" r="46.032">
			<stop offset="0" stop-color="#79905b"  />
			<stop offset="0.654" stop-color="#4b6826"  />
			<stop offset="1" stop-color="#4b6826"  />
		</radialGradient>
		<radialGradient id="grd27" gradientUnits="userSpaceOnUse"  cx="654.946" cy="556.091" r="43.75">
			<stop offset="0" stop-color="#546e35"  />
			<stop offset="1" stop-color="#364124"  />
		</radialGradient>
		<radialGradient id="grd28" gradientUnits="userSpaceOnUse"  cx="654.946" cy="556.091" r="43.75">
			<stop offset="0" stop-color="#79905b"  />
			<stop offset="0.654" stop-color="#4b6826"  />
			<stop offset="1" stop-color="#4b6826"  />
		</radialGradient>
		<radialGradient id="grd29" gradientUnits="userSpaceOnUse"  cx="564.817" cy="604.483" r="24.184">
			<stop offset="0" stop-color="#fee7da"  />
			<stop offset="0.659" stop-color="#fee7da"  />
			<stop offset="1" stop-color="#fee7da"  />
		</radialGradient>
		<radialGradient id="grd30" gradientUnits="userSpaceOnUse"  cx="408.525" cy="108.157" r="1078.479">
			<stop offset="0" stop-color="#f8b264"  />
			<stop offset="0.346" stop-color="#f8b264"  />
			<stop offset="1" stop-color="#f0a24c"  />
		</radialGradient>
		<radialGradient id="grd31" gradientUnits="userSpaceOnUse"  cx="674.334" cy="199.229" r="616.51">
			<stop offset="0" stop-color="#f8b264"  />
			<stop offset="0.346" stop-color="#f8b264"  />
			<stop offset="1" stop-color="#f0a24c"  />
		</radialGradient>
		<radialGradient id="grd32" gradientUnits="userSpaceOnUse"  cx="714.389" cy="199.519" r="486.261">
			<stop offset="0" stop-color="#784426"  />
			<stop offset="1" stop-color="#b66132"  />
		</radialGradient>
		<radialGradient id="grd33" gradientUnits="userSpaceOnUse"  cx="652.013" cy="243.698" r="637.465">
			<stop offset="0" stop-color="#784426"  />
			<stop offset="0.43" stop-color="#784426"  />
			<stop offset="1" stop-color="#b96131"  />
		</radialGradient>
		<radialGradient id="grd34" gradientUnits="userSpaceOnUse"  cx="801.058" cy="665.305" r="655.099">
			<stop offset="0" stop-color="#b96131"  />
			<stop offset="0.103" stop-color="#b96131"  />
			<stop offset="0.397" stop-color="#b96131"  />
			<stop offset="0.749" stop-color="#784426"  />
			<stop offset="1" stop-color="#784426"  />
		</radialGradient>
		<radialGradient id="grd35" gradientUnits="userSpaceOnUse"  cx="400.268" cy="-1.282" r="1225.227">
			<stop offset="0" stop-color="#f8b264"  />
			<stop offset="0.346" stop-color="#f8b264"  />
			<stop offset="1" stop-color="#f0a24c"  />
		</radialGradient>
		<radialGradient id="grd36" gradientUnits="userSpaceOnUse"  cx="457.576" cy="287.053" r="661.155">
			<stop offset="0" stop-color="#784426"  />
			<stop offset="0.357" stop-color="#784426"  />
			<stop offset="1" stop-color="#b96131"  />
		</radialGradient>
		<radialGradient id="grd37" gradientUnits="userSpaceOnUse"  cx="345.65" cy="1025.532" r="293.837">
			<stop offset="0" stop-color="#ffffff"  />
			<stop offset="1" stop-color="#e6e6e6"  />
		</radialGradient>
		<radialGradient id="grd38" gradientUnits="userSpaceOnUse"  cx="338.078" cy="1026.643" r="301.303">
			<stop offset="0" stop-color="#e7e7e7"  />
			<stop offset="1" stop-color="#c2bbb7"  />
		</radialGradient>
		<radialGradient id="grd39" gradientUnits="userSpaceOnUse"  cx="585.2" cy="1078.393" r="59.99">
			<stop offset="0" stop-color="#e7e7e7"  />
			<stop offset="1" stop-color="#c2bbb7"  />
		</radialGradient>
		<radialGradient id="grd40" gradientUnits="userSpaceOnUse"  cx="347.456" cy="1031.17" r="328.42">
			<stop offset="0" stop-color="#ffffff"  />
			<stop offset="1" stop-color="#e6e6e6"  />
		</radialGradient>
		<radialGradient id="grd41" gradientUnits="userSpaceOnUse"  cx="588.969" cy="1150.998" r="51.066">
			<stop offset="0" stop-color="#e6e6e6"  />
			<stop offset="1" stop-color="#ffffff"  />
		</radialGradient>
		<radialGradient id="grd42" gradientUnits="userSpaceOnUse"  cx="178.91" cy="726.679" r="153.945">
			<stop offset="0" stop-color="#f8b264"  />
			<stop offset="0.346" stop-color="#f8b264"  />
			<stop offset="1" stop-color="#f0a24c"  />
		</radialGradient>
		<radialGradient id="grd43" gradientUnits="userSpaceOnUse"  cx="673.982" cy="807.866" r="105.509">
			<stop offset="0" stop-color="#f8b264"  />
			<stop offset="0.346" stop-color="#f8b264"  />
			<stop offset="1" stop-color="#f0a24c"  />
		</radialGradient>
	</defs>
	<style>
		tspan { white-space:pre }
		.shp0 { fill: url(#grd1) } 
		.shp1 { fill: #fdd17a } 
		.shp2 { opacity: 0.4;fill: url(#grd2) } 
		.shp3 { opacity: 0.4;fill: url(#grd3) } 
		.shp4 { fill: none;stroke: #000000;stroke-width: 7 } 
		.shp5 { fill: url(#grd4) } 
		.shp6 { fill: url(#grd5) } 
		.shp7 { fill: url(#grd6) } 
		.shp8 { fill: none;stroke: #c97f35;stroke-width: 7 } 
		.shp9 { fill: url(#grd7) } 
		.shp10 { fill: #c7c0bc } 
		.shp11 { fill: none;stroke: #7a6763;stroke-width: 7 } 
		.shp12 { fill: url(#grd8) } 
		.shp13 { fill: #8e7d78 } 
		.shp14 { fill: url(#grd9) } 
		.shp15 { fill: url(#grd10) } 
		.shp16 { fill: #625248 } 
		.shp17 { fill: none;stroke: #e02225;stroke-width: 18 } 
		.shp18 { mix-blend-mode: multiply;fill: #c7c0bc } 
		.shp19 { fill: #685b58 } 
		.shp20 { fill: url(#grd11) } 
		.shp21 { fill: url(#grd12) } 
		.shp22 { fill: none;stroke: #914530;stroke-width: 7 } 
		.shp23 { fill: url(#grd13) } 
		.shp24 { fill: #e02427 } 
		.shp25 { fill: none;stroke: #8e7d78;stroke-width: 7 } 
		.shp26 { fill: #8e1117 } 
		.shp27 { fill: url(#grd14) } 
		.shp28 { fill: #ffffff } 
		.shp29 { fill: url(#grd15) } 
		.shp30 { fill: url(#grd16) } 
		.shp31 { fill: url(#grd17) } 
		.shp32 { fill: url(#grd18) } 
		.shp33 { fill: url(#grd19) } 
		.shp34 { fill: none;stroke: #7f391d;stroke-width: 7 } 
		.shp35 { fill: url(#grd20) } 
		.shp36 { fill: url(#grd21) } 
		.shp37 { fill: url(#grd22) } 
		.shp38 { fill: #fee7da } 
		.shp39 { fill: url(#grd23) } 
		.shp40 { fill: url(#grd24) } 
		.shp41 { opacity: 0.51;fill: #858887 } 
		.shp42 { fill: none;stroke: #9e563f;stroke-width: 3 } 
		.shp43 { fill: url(#grd25) } 
		.shp44 { fill: url(#grd26) } 
		.shp45 { fill: #0b0808 } 
		.shp46 { fill: #b8bfb2 } 
		.shp47 { fill: #000000 } 
		.shp48 { fill: #6c391d } 
		.shp49 { fill: #855432 } 
		.shp50 { fill: url(#grd27) } 
		.shp51 { fill: url(#grd28) } 
		.shp52 { fill: #f59468 } 
		.shp53 { fill: #947d77 } 
		.shp54 { fill: #d72e45 } 
		.shp55 { fill: #e2405b } 
		.shp56 { fill: #f37487 } 
		.shp57 { fill: #a35641 } 
		.shp58 { fill: url(#grd29) } 
		.shp59 { fill: url(#grd30) } 
		.shp60 { fill: url(#grd31) } 
		.shp61 { opacity: 0.4;fill: url(#grd32) } 
		.shp62 { opacity: 0.639;fill: #782c00 } 
		.shp63 { fill: url(#grd33) } 
		.shp64 { fill: url(#grd34) } 
		.shp65 { fill: url(#grd35) } 
		.shp66 { opacity: 0.349;fill: #782c00 } 
		.shp67 { fill: #c97f35 } 
		.shp68 { fill: url(#grd36) } 
		.shp69 { fill: url(#grd37) } 
		.shp70 { fill: url(#grd38) } 
		.shp71 { fill: #e02225 } 
		.shp72 { mix-blend-mode: multiply;fill: url(#grd39) } 
		.shp73 { fill: url(#grd40) } 
		.shp74 { opacity: 0.569;fill: #8e7d78 } 
		.shp75 { opacity: 0.271;fill: url(#grd41) } 
		.shp76 { opacity: 0.212;fill: #ffffff } 
		.shp77 { opacity: 0.698;fill: url(#grd42) } 
		.shp78 { opacity: 0.42;fill: url(#grd43) } 
	</style>
	<g id="Page 1" clip-path="url(#cp1)">
		<path id="Path 1" class="shp0" d="M666.94 34.25C621.52 36.54 601.61 79.25 601.61 79.25L601.61 292.77L568.8 1079.83L723.25 1131.9L767.77 1146.93L767.81 1146.89C769.97 1145.72 839.27 1107.81 858.4 1050.03C867.68 1022.01 851.96 953.01 839.14 887.12C838.49 883.67 837.8 880.21 837.15 876.76C824.03 807.85 907.49 713.28 907.49 713.28C907.49 713.28 907.58 713.11 907.71 712.72C909.09 709.31 916.91 689.88 930.42 653.52C932.36 648.3 934.09 642.38 935.6 635.86C948.51 580.12 945.49 481.37 921.4 416.34C898.08 353.26 838.79 198.33 800.11 129.55C793.59 117.98 787.67 108.87 782.58 102.99C755.97 72.25 718.37 34.14 671.31 34.14C669.87 34.14 668.41 34.18 666.94 34.25Z" />
		<path id="Path 2" class="shp1" d="M655.38 95.55C655.94 94.78 656.47 93.99 656.97 93.29C662.46 85.37 673.5 84.08 683.13 84C716.7 83.71 746.32 92.59 778.76 98.61C759.32 84.24 740.49 69.09 720.07 56.08C698.38 42.25 675.64 28.49 650.08 38.37C644.81 40.4 638.73 44 639.01 49.64C639.13 52.08 640.49 54.26 641.69 56.39C648.95 69.28 651.37 84.82 648.37 99.3C651.01 100.76 653.4 98.24 655.38 95.55Z" />
		<path id="Path 3" class="shp2" d="M878.2 752.11C868.1 733.82 857.7 715.68 846.81 697.8C782.47 592.19 697.28 495.47 596.2 422.45L568.79 1079.82L767.77 1146.91C767.77 1146.91 845.31 1078.18 858.4 1050.03C871.49 1021.88 850.22 945.65 837.13 876.75C829.37 835.86 855.59 785.95 878.2 752.11Z" />
		<path id="Path 4" class="shp3" d="M935.6 635.86C922.95 671.4 909.52 707.76 907.71 712.72C907.58 713.11 907.49 713.28 907.49 713.28C907.49 713.28 824.03 807.84 837.15 876.76C837.8 880.21 838.49 883.67 839.14 887.12C852.27 953.18 870.83 1023.31 858.4 1050.03C845.53 1077.75 770.18 1144.77 767.81 1146.89L767.77 1146.93L723.25 1131.9C751.14 1102.02 775.49 1069.16 790.05 1030.69C803.17 995.93 803.13 965.4 793.02 930.04C779.25 881.85 793.93 839.8 814.4 796.06C816.34 791.91 815.78 787.98 813.88 784.83C823.81 749.51 833.96 714.02 840.69 678.05C845.53 675.72 850.32 673.34 855.16 671.05C855.81 670.84 856.45 670.54 857.02 670.06C858.14 669.46 858.87 668.64 859.31 667.77C929 592.47 912.85 481.15 881.76 391.43C873.42 367.46 842.38 303.43 824.85 247.77C806.67 190 814.61 169.92 800.11 129.55C838.8 198.33 898.08 353.26 921.4 416.34C945.49 481.37 948.51 580.12 935.6 635.86Z" />
		<path id="Path 5" class="shp4" d="M601.61 79.26C601.61 79.26 621.52 36.53 666.93 34.26C716.02 31.8 755.15 71.3 782.59 102.98C817.87 143.71 894.14 342.69 921.4 416.32C948.3 488.96 948.95 603.63 930.4 653.54C915.43 693.8 907.49 713.3 907.49 713.3C907.49 713.3 824.04 807.84 837.13 876.75C850.22 945.65 868.16 1020.56 858.4 1050.03C838.97 1108.73 767.77 1146.91 767.77 1146.91L568.79 1079.82L601.61 292.79L601.61 79.26Z" />
		<path id="Path 6" class="shp5" d="M527.88 980.01C525.7 987.65 715.51 1108.73 715.51 1108.73C751.5 1073.82 763.5 1070.55 751.5 982.19C739.5 893.83 766.77 853.47 799.5 829.48C832.22 805.48 876.95 754.21 873.68 723.66C870.4 693.12 742.78 498.95 742.78 498.95C742.78 498.95 530.06 972.37 527.88 980.01Z" />
		<path id="Path 7" class="shp6" d="M264.97 447.1C220.79 465.54 25.79 544.99 74.87 649.31C123.96 753.62 186.03 792.4 205.87 840.86C225.7 889.33 213.71 911.2 188.07 934.44C162.43 957.69 93.85 984.75 125.34 1039.37C156.84 1093.99 210.21 1177.31 210.21 1177.31L312.42 1115.93C356.6 1046.41 467.87 849.7 394.24 796.7C320.61 743.7 268.24 556.23 289.52 533.79C308.68 513.58 309.25 444.44 276.86 444.44C273.3 444.44 269.35 445.27 264.97 447.1Z" />
		<path id="Path 8" fill-rule="evenodd" class="shp7" d="M101.35 629.8C101.35 629.8 166.8 791.15 191.34 818.78C215.88 846.41 224.07 879.51 168.43 949.84C112.8 1020.16 126.32 1060.28 126.32 1060.28C126.32 1060.28 201.16 1144.58 207.7 1143.63C214.18 1142.7 135.85 1165.84 134.1 1166.36C134.33 1166.21 134.97 1163.64 99.49 1119.39C61.57 1072.09 29.92 1034.58 52.83 974.09C75.73 913.61 129.16 917.14 119.35 818.78C109.53 720.42 86.62 655.34 101.35 629.8ZM134.1 1166.36C134.09 1166.37 134.07 1166.37 134.07 1166.37C134.07 1166.37 134.08 1166.36 134.1 1166.36Z" />
		<path id="Path 9" class="shp1" d="M91.82 993.92C103.17 936.8 157.68 912.92 167.09 856.06C167.32 827.14 149.64 787.61 137.14 761.38C127.45 741.05 110.49 725.81 104.71 703.48C102.73 695.8 114.59 692.56 116.57 700.21C122.24 722.17 139.03 738.44 148.79 758.51C148.7 757.98 148.65 757.42 148.54 756.89C146.64 747.05 143.92 738.14 143.63 728.43C121.5 679.48 101.35 629.8 101.35 629.8C86.62 655.34 109.53 720.42 119.35 818.78C129.16 917.14 75.73 913.61 52.82 974.09C29.92 1034.57 61.57 1072.09 99.49 1119.39C135.01 1163.69 134.33 1166.21 134.1 1166.36C134.31 1166.3 142.74 1163.81 153.85 1160.49C147.03 1151.5 140.63 1142.07 134.79 1132.01C110.91 1090.87 79.55 1055.69 91.82 993.92Z" />
		<path id="Path 10" class="shp8" d="M101.35 629.8C90.74 648.19 64.03 677.21 91.82 723.53C105.32 746.03 116.74 772.98 123.73 802.07C146.81 898.19 74.41 913.12 52.83 974.09C33.74 1028.01 53.08 1061.43 91.01 1108.73C128.93 1156.03 134.07 1166.37 134.07 1166.37C134.07 1166.37 214.25 1142.68 207.7 1143.63C201.16 1144.58 126.32 1060.28 126.32 1060.28C126.32 1060.28 112.8 1020.16 168.43 949.84C224.07 879.51 215.89 846.41 191.34 818.78C166.8 791.15 101.35 629.8 101.35 629.8Z" />
		<path id="Path 11" class="shp9" d="M576.38 1056.37C577.12 1234.87 822.41 1803.43 822.41 1803.43C822.41 1803.43 1073.53 1813.24 1138.75 1803.43C1203.97 1793.61 1228.74 1766.5 1224.05 1725.96C1219.2 1684.11 1198.2 1537.43 1088.02 1407.62C965.49 1263.25 849.87 1168.78 816.01 1144.04C803.97 1135.24 643.9 1044.91 592.29 1044.9C582.27 1044.9 576.35 1048.3 576.38 1056.37Z" />
		<path id="Path 12" class="shp10" d="M1224.05 1725.96C1219.2 1684.11 1198.2 1537.42 1088.03 1407.62C965.49 1263.25 849.87 1168.78 816.01 1144.04C801.63 1133.53 576.18 1006.76 576.38 1056.37C576.51 1086.12 583.45 1126.74 594.89 1173.71C645.39 1168.45 696.71 1169.87 745.92 1183.5C800.94 1198.75 846.95 1231.43 889.19 1268.91C934.95 1309.53 992.23 1363.75 1029.12 1412.52C1094.24 1498.62 1128.97 1584.16 1133.57 1590.88C1157.95 1626.48 1168.84 1682 1156.94 1725.44C1153.75 1737.07 1072.99 1741.8 1065.84 1730.13C1053.47 1709.96 1040.41 1689.15 1030.59 1667.62C1016.15 1635.99 1073.85 1610.17 1093.54 1595.44C1096.84 1592.97 1100.42 1589.1 1098.8 1585.31C1089.89 1581.33 1079.81 1580.83 1070.59 1577.63C1056.68 1572.81 1045.42 1562.03 1037.56 1549.59C1029.69 1537.15 1013.86 1488.88 976.68 1440.79C956.31 1414.44 931.79 1395.35 903.6 1377.65C882.57 1364.45 861.43 1351.82 841.85 1336.58C828.78 1340.85 805.07 1334.47 794.97 1333.67C766.94 1331.45 738.59 1331.06 710.51 1332.65C688.22 1333.92 666.06 1336.83 644.68 1341.97C717.48 1560.2 822.41 1803.43 822.41 1803.43C822.41 1803.43 1073.53 1813.25 1138.75 1803.43C1203.97 1793.61 1228.74 1766.5 1224.05 1725.96Z" />
		<path id="Path 13" class="shp11" d="M801.14 1815.32C801.14 1815.32 1070.53 1814.06 1144.98 1798.95C1209.61 1785.83 1224.52 1776.86 1224.05 1725.96C1223.57 1674.33 1191.47 1542.85 1088.02 1407.62C976.21 1261.44 851.31 1178.74 815.86 1139C804 1125.7 576.18 1006.76 576.38 1056.37C577.12 1234.87 801.14 1815.32 801.14 1815.32Z" />
		<path id="Path 14" class="shp12" d="M191.7 1089.42C156.8 1101.98 69.53 1142.34 48.8 1156.52C42.15 1161.07 55.75 1197.35 79.03 1246.28C55.53 1368.84 114.35 1501.69 160.01 1636.03C214.77 1797.09 296.46 1889.57 309.61 1977.5C322.76 2065.44 334.18 2050.69 264.66 2146.42C195.13 2242.15 64.61 2470.14 49.69 2624.49C34.78 2778.84 19.73 2802.38 34.55 2825.29C49.38 2848.2 433.98 2914.31 786.92 2880.29C1029.71 2856.88 1056.3 2806.66 1073.39 2789.16C1092.93 2769.15 1062.35 2420.15 1016.53 2293.52C970.71 2166.88 946.25 2088.39 925.81 2040.39C912.28 2008.63 916.42 1930.78 919.26 1780.23C920.9 1693.5 909.45 1680.42 924.17 1664.87C949.75 1637.87 970.2 1608.28 980.97 1577.14C983.63 1572.97 996.05 1521.81 977.39 1473.84C965.5 1443.28 946.76 1413.4 942.58 1406.42C905.49 1344.59 760.02 1212.15 755.66 1206.7C751.3 1201.24 595.41 1089.95 584.99 1089.42C574.59 1088.89 326.96 1032.17 326.96 1032.17C326.96 1032.17 226.61 1076.85 191.7 1089.42Z" />
		<path id="Path 15" class="shp10" d="M569.03 1101.93C571.54 1121.15 582.02 1136.84 588.08 1154.76C589.23 1155.05 590.38 1155.35 591.53 1155.64C631.97 1159.64 673.86 1165.39 713.89 1175.49C665.64 1140.81 592.04 1089.77 584.99 1089.42C583.55 1089.34 577.52 1088.18 568.22 1086.24C568.15 1091.46 568.35 1096.68 569.03 1101.93ZM1016.52 2293.5C970.71 2166.9 942.21 2101.39 925.8 2040.38C916.86 2007.05 916.43 1930.79 919.28 1780.23C920.19 1731.44 916.95 1705.96 916.6 1690.2C907.71 1696.55 898.81 1702.9 889.96 1709.33C854.99 1734.76 821.69 1762.18 787.41 1788.48C786.16 1789.43 784.86 1790.42 783.57 1791.37C771.48 1800.57 758.83 1809.55 745.53 1817.36C725.62 1829.15 704.38 1838.3 681.45 1841.63C644.27 1847.03 608.26 1833.21 575.14 1817.88C537.58 1800.52 499.5 1783.29 464.65 1760.8C394.14 1715.29 335.33 1654.19 269.52 1602.55C217.15 1561.45 162.44 1523.45 107.91 1485.28C123.75 1535.02 142.8 1585.41 160.02 1636.01C214.77 1797.07 296.47 1889.56 309.6 1977.51C311.62 1991.05 313.6 2002.12 315.25 2011.57C316.67 2012.7 318.07 2013.84 319.52 2014.93C355.01 2041.73 392.94 2067.05 432.64 2087.17C499.67 2121.14 614.2 2152.65 645.52 2138.93C665.91 2130.93 685.52 2120.64 704.42 2109.21C715.35 2102.6 730.33 2091.89 746.05 2080.19C759.91 2069.83 774.41 2058.73 787.28 2048.97C812.11 2030.06 830.98 2016.16 827.87 2022.51C827.87 2023.15 838.53 2171.78 869.93 2261.98C945.4 2478.82 958.74 2700.24 969.97 2849.25C1051.97 2825.98 1062.08 2800.73 1073.39 2789.15C1092.91 2769.16 1062.33 2420.14 1016.52 2293.5Z" />
		<path id="Path 16" class="shp13" d="M1084.83 2780.21C1084.35 2782.5 1083.88 2784.53 1083.32 2786.34C1083.19 2786.82 1083.01 2787.29 1082.84 2787.72C1082.71 2788.02 1082.63 2788.33 1082.5 2788.58C1081.98 2789.97 1081.37 2791.18 1080.68 2792.13C1080.34 2792.6 1079.99 2793.03 1079.65 2793.42C1078.78 2794.28 1077.88 2795.24 1076.93 2796.27C1057.5 2816.95 1020.71 2865.36 787.63 2887.81C779.99 2888.54 772.39 2889.24 764.79 2889.88C763.88 2889.92 762.97 2890.01 762.07 2890.1C754.04 2890.75 746.05 2891.39 738.06 2891.95C730.55 2892.47 723.08 2892.99 715.65 2893.47C714.92 2893.51 714.18 2893.55 713.49 2893.6C705.59 2894.07 697.69 2894.46 689.83 2894.89C689.57 2894.89 689.35 2894.93 689.09 2894.93C646.09 2897.09 604.25 2898 564.44 2898C449.67 2898 351.44 2890.62 290.64 2884.61C179.67 2873.65 22.2 2847.35 20.08 2825.72C18.49 2808.79 19.43 2781.81 42.19 2623.77C65.38 2462.46 194.61 2229.98 258.56 2141.98C316.46 2062.19 316.46 2062.19 307.35 2010.2C305.8 2001.22 303.98 1990.99 302.13 1978.64C295.61 1935.07 271.94 1890.64 241.98 1834.46C212.88 1779.84 179.89 1717.92 152.86 1638.48C146.12 1618.61 138.95 1598.49 132.04 1579.02C90.77 1462.74 51.78 1352.85 71.16 1247.15C30.19 1160.49 40.81 1159.54 46.46 1154.66C70.82 1133.8 153.94 1095.24 189.34 1082.5C223.58 1070.2 323.11 1025.9 324.1 1025.47L326.39 1024.43L328.85 1024.99C427.04 1047.49 576.48 1081.25 585.68 1082.07C587.62 1082.16 590.73 1082.33 613.4 1096.93L613.4 1097.27C613.75 1103.36 613.83 1109.45 614.22 1115.49C598.94 1105.43 587.58 1098.35 584.04 1097.1C566.94 1094.94 373.63 1050.77 327.95 1040.28C312.4 1047.18 226.69 1085.14 194.48 1096.71C161.36 1108.63 84.46 1143.82 59.63 1163.68C59.63 1167.74 57.35 1182.85 85.89 1242.87L86.92 1245.12L86.49 1247.53C66.76 1350 105.4 1458.76 146.29 1573.97C153.2 1593.48 160.37 1613.65 167.15 1633.6C193.79 1711.92 226.48 1773.24 255.32 1827.34C284.77 1882.57 310.2 1930.23 317.07 1976.39C318.92 1988.57 320.69 1998.67 322.25 2007.61C332.27 2064.82 331.32 2067.5 270.78 2150.88C207.65 2237.8 78.89 2468.46 57.22 2625.2C40.38 2746.92 38.39 2792.99 36.45 2817.25C35.18 2833.55 407.76 2899.89 741.64 2876.46C750.11 2875.83 758.58 2875.25 767.03 2874.51C773.42 2873.99 779.81 2873.39 786.2 2872.78C1013.58 2850.85 1047.65 2805.34 1065.92 2785.95C1066.95 2784.83 1067.9 2783.79 1068.85 2782.84C1069.07 2782.5 1069.28 2782.02 1069.5 2781.5C1081.63 2750.29 1051.67 2429.51 1004.65 2299.63C989.83 2258.74 979.47 2221.52 968.12 2190.6C944.58 2126.44 929.77 2078.42 918.59 2042.63C907.92 2008.39 908.83 1933.26 911.72 1780.1C912.37 1745.43 910.95 1723.06 909.91 1706.74C908.36 1682.43 907.62 1671.33 918.68 1659.68C945.27 1631.61 963.71 1603.37 973.47 1575.69L974.25 1574.14C977.92 1568.14 986.42 1522.84 972.43 1482.9C962.46 1451.38 946.66 1422.32 925.37 1396.33C900.76 1366.19 806.07 1267.7 803.13 1254.92C816.43 1257.9 912.29 1356.43 937.07 1386.74C959.57 1414.25 976.28 1444.99 986.77 1478.11C1001.88 1521.16 993.55 1569.91 987.5 1581.35C976.97 1610.84 957.49 1640.68 929.64 1670.08C923.34 1676.73 923.47 1682 924.98 1705.79C925.97 1721.42 927.48 1745.08 926.84 1780.36C924.03 1927.77 923.04 2006.19 933.01 2038.14C944.07 2073.54 958.83 2121.43 982.32 2185.38C993.68 2216.34 1004.04 2253.56 1018.85 2294.45C1043.29 2362.02 1063.54 2485.99 1075.59 2581.37C1081.98 2631.93 1092.47 2740.57 1084.83 2780.21Z" />
		<path id="Path 17" class="shp14" d="M324.1 1025.47C323.09 1025.91 223.59 1070.18 189.35 1082.51C153.93 1095.26 70.82 1133.82 46.48 1154.67C40.82 1159.53 30.17 1160.46 71.18 1247.14C61.05 1302.3 66.84 1358.58 80.54 1416.32C86.79 1420.57 93.04 1424.83 99.31 1429.06C83 1366.48 75.24 1305.98 86.47 1247.55L86.94 1245.11L85.88 1242.88C57.34 1182.84 59.62 1167.75 59.62 1163.69C84.46 1143.81 161.38 1108.64 194.46 1096.73C226.71 1085.13 312.39 1047.2 327.94 1040.3C373.63 1050.76 566.94 1094.92 584.02 1097.09C587.57 1098.35 598.95 1105.43 614.2 1115.51C613.85 1109.46 613.76 1103.36 613.4 1097.27C613.39 1097.15 613.41 1097.04 613.41 1096.91C590.74 1082.35 587.63 1082.18 585.67 1082.08C576.47 1081.26 427.05 1047.5 328.86 1025.01L326.4 1024.44L324.1 1025.47Z" />
		<path id="Path 18" class="shp15" d="M925.37 1396.33C946.66 1422.32 962.46 1451.38 972.43 1482.9C986.42 1522.84 977.92 1568.14 974.25 1574.14L973.47 1575.69C963.71 1603.37 945.27 1631.61 918.67 1659.68C907.62 1671.33 908.36 1682.43 909.91 1706.74C910.95 1723.06 912.37 1745.43 911.72 1780.1C908.83 1933.26 907.92 2008.39 918.59 2042.63C929.77 2078.42 944.58 2126.44 968.12 2190.6C979.47 2221.52 989.83 2258.74 1004.64 2299.63C1051.67 2429.51 1081.63 2750.29 1069.5 2781.5C1069.28 2782.02 1069.07 2782.5 1068.85 2782.84C1067.9 2783.79 1066.95 2784.83 1065.91 2785.95C1047.65 2805.34 1013.58 2850.85 786.2 2872.78C779.81 2873.39 773.42 2873.99 767.03 2874.51C740.22 2876.84 713.32 2878.61 686.5 2879.91C687.37 2884.92 688.27 2889.93 689.09 2894.93C689.35 2894.93 689.57 2894.89 689.83 2894.89C697.69 2894.46 705.59 2894.07 713.49 2893.6C714.18 2893.55 714.91 2893.51 715.65 2893.47C723.08 2892.99 730.55 2892.47 738.06 2891.95C746.05 2891.39 754.03 2890.74 762.07 2890.1C762.97 2890.01 763.88 2889.93 764.79 2889.88C772.39 2889.24 779.98 2888.54 787.63 2887.81C1020.71 2865.36 1057.49 2816.95 1076.93 2796.27C1077.88 2795.23 1078.78 2794.28 1079.65 2793.42C1079.99 2793.03 1080.34 2792.6 1080.68 2792.13C1081.37 2791.18 1081.98 2789.97 1082.49 2788.59C1082.63 2788.33 1082.71 2788.02 1082.84 2787.72C1083.01 2787.29 1083.19 2786.82 1083.32 2786.34C1083.88 2784.53 1084.4 2782.5 1084.83 2780.21C1092.47 2740.57 1081.98 2631.93 1075.59 2581.37C1063.54 2485.99 1043.29 2362.02 1018.85 2294.45C1004.04 2253.56 993.68 2216.34 982.32 2185.38C958.83 2121.43 944.06 2073.54 933.01 2038.14C923.04 2006.19 924.03 1927.77 926.84 1780.36C927.48 1745.08 925.97 1721.42 924.98 1705.79C923.47 1682 923.34 1676.73 929.64 1670.08C957.49 1640.68 976.97 1610.84 987.5 1581.35C993.55 1569.91 1001.88 1521.16 986.77 1478.11C976.27 1444.99 959.57 1414.25 937.07 1386.74C912.28 1356.43 816.43 1257.9 803.13 1254.92C806.07 1267.7 900.76 1366.19 925.37 1396.33Z" />
		<path id="Path 19" class="shp16" d="M584.55 1097.15C584.63 1097.16 584.71 1097.16 584.81 1097.17C584.73 1097.16 584.64 1097.16 584.55 1097.15Z" />
		<path id="Path 20" class="shp17" d="M558.43 1161.76C558.43 1161.76 720.96 1334.31 762.41 1406.74C803.86 1479.16 842.04 1528.04 838.77 1587.59C835.5 1647.14 767.87 1735.5 764.59 1746.41C761.32 1757.32 767.87 1877.31 770.05 1964.58C772.23 2051.84 754.78 2178.38 753.68 2214.38C752.59 2250.38 804.95 2497.99 816.95 2605.99C828.95 2713.98 838.97 2866.7 838.97 2866.7" />
		<path id="Path 21" class="shp18" d="M787.28 2048.98C774.41 2058.73 759.91 2069.83 746.05 2080.19C749.2 2040.94 751.49 1999.84 750.62 1965.08C749.85 1934.29 748.55 1899.84 747.3 1866.55C746.56 1847.37 746 1831.14 745.53 1817.36C744.06 1774.49 743.89 1755.4 745.01 1745.95C759.3 1745.73 773.59 1745.3 787.89 1744.65C785.94 1747.72 784.3 1750.39 783.35 1752.08C782.88 1757.86 783.09 1772.55 783.57 1791.37C784.17 1812.92 785.17 1839.86 786.12 1865.08C787.41 1898.5 788.71 1933.04 789.48 1964.09C790.13 1990.3 789.1 2019.61 787.28 2048.98Z" />
		<path id="Path 22" class="shp16" d="M792.62 1784.17C797.86 1796.34 803.88 1808.16 809.77 1820.07C814.17 1825.19 818.68 1829.82 822.34 1833.59C834.14 1845.75 848.71 1855.59 864.22 1862.42C880.02 1869.38 896.7 1873.02 913.66 1874.82C917.15 1862.22 917.46 1848.6 915.31 1835.64C911.93 1815.32 903.05 1796.34 893.14 1778.3C885.88 1765.09 877.65 1751.83 865.29 1743.22C844.55 1728.76 816.6 1730.34 792.12 1736.67L783.18 1758.08C784.95 1764.46 787.12 1770.66 789.53 1776.75C791.39 1778.45 792.56 1780.95 792.62 1784.17Z" />
		<path id="Path 23" class="shp19" d="M359.77 1324.73C351.9 1323.09 339.04 1324.93 318.47 1364.82C302.95 1394.9 285.87 1451.43 313.13 1462.21C340.39 1473 367.47 1420.65 368.69 1411.37C369.41 1405.85 369.91 1396.33 369.91 1396.33C369.91 1396.33 338.85 1476.59 313.36 1454.16C292.43 1435.76 321.86 1372.24 332.88 1351.48C344.8 1329.02 371.23 1311.6 362.29 1353.15C357.79 1374.06 354.04 1376.26 355.21 1378.62C355.99 1380.2 358.58 1381.16 361.03 1374.94C363.48 1368.72 377.6 1328.46 359.77 1324.73Z" />
		<path id="Path 24" fill-rule="evenodd" class="shp19" d="M410.67 1381.84C407.92 1391.98 402.02 1401.73 399.63 1404.09C397.24 1406.45 394.01 1408.72 391.12 1405.29C389.74 1403.65 389.04 1400.99 388.7 1398.67C386.85 1404.32 382.68 1413.89 376.18 1417.37C369.3 1421.05 360.74 1414.15 370.18 1393.41C379.62 1372.68 383.65 1372.87 388.18 1375.23C389.05 1375.69 388.12 1372.35 392.14 1372.05C394.17 1371.9 394.28 1374.03 393.75 1377.54L393.75 1377.54C393.57 1378.81 392.8 1389.51 392.74 1391.39C392.69 1393.27 392.73 1402.27 395.95 1400.8C399.18 1399.34 403.55 1391.61 406.01 1385.06C407.71 1380.52 409.69 1373.64 410.94 1369.5C410.94 1369.51 410.94 1369.51 410.94 1369.51C410.94 1369.51 411.48 1365.1 413.22 1363.41C416.55 1360.2 417.79 1363.63 418.19 1368.14C418.58 1372.64 418.64 1382.15 419.23 1384.86C419.6 1386.57 420.81 1390.96 422.4 1387.63C423.99 1384.3 426.73 1366.7 432.22 1360.92C437.19 1355.68 440.49 1356.68 441.88 1357.81C444.74 1360.13 442.16 1361.83 444.73 1373.13C445.76 1377.62 449.99 1379.9 454.71 1377.86C459.43 1375.83 460.85 1372.91 461.23 1372.47C461.62 1372.03 462.76 1373.2 462.76 1373.2C461.81 1375.55 458.46 1380.37 451.22 1382.85C443.99 1385.34 441.1 1378.92 440.25 1376.12C438.55 1370.52 438.87 1367.96 438.2 1364.48C437.6 1361.37 435.96 1363.92 435.15 1365.34C432.34 1370.23 429.51 1376.89 427.36 1383.78C425.22 1390.66 423.28 1392.61 419.32 1392.81C415.36 1393.01 413.74 1387.67 413.29 1383.03C413.03 1380.39 412.92 1376.29 412.89 1373.13C412.38 1375.28 411.68 1378.11 410.67 1381.84ZM387.43 1386.14C387.6 1384.37 388.35 1379.95 386.19 1379.14C384.46 1378.5 381.47 1380.15 378.8 1385.48C377.57 1387.92 375.98 1391.69 375.06 1394.26C374.13 1396.86 372.7 1401.81 372.3 1405.82C371.72 1411.52 373.32 1415.64 378.78 1409.77C380.83 1407.56 383 1402.29 384.44 1398.6C385.54 1395.77 387 1390.78 387.43 1386.14ZM522.8 1342.04C523.63 1342.15 522.33 1343.92 521.62 1344.62C519.58 1346.63 514.5 1348.28 510.64 1340.74C509.06 1345.58 505.5 1353.74 499.94 1356.72C494.07 1359.86 485.97 1353.51 493.63 1335.62C499.14 1322.77 505.05 1319.88 508.91 1321.9C509.66 1322.29 510.06 1319.13 512.35 1319.85C514.47 1320.51 513.9 1323.28 513.63 1329.71C513.39 1335.63 515.13 1341.11 517.91 1342.31C521.28 1343.76 521.52 1341.87 522.8 1342.04ZM506.46 1325.17C504.98 1324.62 502.61 1326.99 500.33 1331.55C499.28 1333.63 495.9 1341.67 495.95 1346.71C496 1351.61 497.5 1355.24 502.16 1350.23C503.92 1348.34 508.95 1337.7 508.81 1330.01C508.79 1328.49 508.3 1325.85 506.46 1325.17Z" />
		<path id="Path 25" fill-rule="evenodd" class="shp19" d="M488.17 1308.58C488.19 1310.72 486.91 1327.33 482.78 1337.59C480.74 1342.66 479.7 1345.6 479.18 1347.27C479.38 1348.48 479.69 1349.88 480.18 1351.5C482.28 1358.48 484.59 1358.64 485.38 1358.98C486.74 1359.56 488.55 1358.85 489.08 1358.32C490.25 1357.15 490.99 1359.86 487.58 1361.83C483.9 1363.94 480.91 1362.03 479.21 1360.41C478.31 1359.54 477.31 1357.93 476.63 1356.39C476.42 1356.99 476.19 1357.63 475.93 1358.33C471.51 1370.18 466.9 1372.7 464.68 1373.66C462.45 1374.62 458.88 1375.58 456.35 1370.09C453.56 1364.06 456.49 1355.38 458.4 1350.57C458.4 1350.57 461.89 1342.65 465.86 1338.62C469.36 1335.06 472.56 1335.14 474.35 1335.82C473.98 1332.82 473.82 1328.54 474.39 1322.63C475.78 1308.26 479.88 1301.45 483.61 1300.88C487.34 1300.3 488.15 1306.43 488.17 1308.58ZM474.96 1345.4C475.11 1344.21 475.33 1338.95 471.36 1339.47C467.39 1340 463.38 1349.33 461.14 1358.71C458.27 1370.69 463.92 1372.24 467.63 1366.68C471.27 1361.19 473.84 1354.32 474.96 1345.4ZM483.47 1305.38C482.69 1305.96 481.56 1310.3 480.61 1314.09C478.87 1320.94 478.02 1331.98 478.21 1336.31C478.24 1336.97 478.1 1337.49 478.41 1338.13C478.43 1338.17 478.45 1338.2 478.48 1338.22C478.86 1338.4 480.78 1332.62 480.94 1332.11C481.88 1329.11 482.61 1326.05 483.19 1322.96C483.36 1322.08 483.51 1321.2 483.65 1320.32C485.61 1307.98 485.35 1304 483.47 1305.38ZM536.05 1312.83C536.27 1314.03 535.48 1314.98 534.37 1314.28C533.26 1313.59 531.52 1311.93 528.77 1319.43C526.02 1326.97 527.62 1330.64 529.48 1333.06C533.68 1338.56 540.97 1331.52 547.01 1322.66C547.14 1322.47 547.26 1322.28 547.39 1322.1C545.64 1318.46 545.39 1313.96 546.62 1308.88C548.88 1299.55 553.22 1296.57 555.15 1296.12C556.48 1295.81 557.1 1296.21 557.51 1296.69C559.4 1297.56 560.63 1301.21 556.9 1309.78C555.47 1313.06 553.74 1316.39 551.86 1319.54C553.01 1322.61 555.11 1325.06 558.53 1325.63C566.71 1327 573.85 1322.04 576.99 1319.48C578.02 1318.65 579.17 1317.52 579.86 1316.71C581.17 1315.16 582.62 1315.38 581.49 1317.44C579.88 1320.39 574.73 1325.03 568.62 1327.84C561.83 1330.95 555.95 1330.11 552.86 1328.15C551.19 1327.09 549.82 1325.82 548.75 1324.37C546.18 1328.09 543.5 1331.3 541.07 1333.51C535.75 1338.32 532.07 1339.02 529.42 1338.79C526.76 1338.57 522.76 1336.62 522.08 1329.85C521.41 1323.09 524.2 1318.35 526.71 1314.99C531.59 1308.43 535.7 1310.89 536.05 1312.83ZM556.33 1300.77C556.28 1300.04 556.05 1299.65 555.74 1299.47C555.74 1299.47 555.73 1299.47 555.73 1299.46C554.99 1299.09 553.62 1300.86 551.65 1306.49C550.78 1308.99 550.42 1312.78 551.02 1316.34C556.21 1307.39 556.47 1303 556.33 1300.77Z" />
		<path id="Path 26" class="shp20" d="M599.88 1610.78C552.43 1628.78 506.79 1666.42 506.79 1666.42L626.06 1758.86L714.41 1674.6L693.96 1590.33C693.96 1590.33 647.33 1592.79 599.88 1610.78Z" />
		<path id="Path 27" class="shp21" d="M670.31 1592.94C665.05 1606.31 658.78 1619.25 652.41 1632.17C647.36 1642.41 641.24 1656.33 630.39 1661.89C619.32 1667.55 607.79 1660.56 597.63 1656.17C582.12 1649.47 566.67 1642.87 551.8 1634.94C525.69 1650.84 506.79 1666.42 506.79 1666.42L626.06 1758.86L714.41 1674.6L693.96 1590.33C693.96 1590.33 684.73 1590.82 670.31 1592.94Z" />
		<path id="Path 28" class="shp22" d="M693.96 1590.33C693.96 1590.33 647.33 1592.79 599.88 1610.78C552.43 1628.78 506.79 1666.42 506.79 1666.42L626.06 1758.86L714.41 1674.6L693.96 1590.33Z" />
		<path id="Path 29" class="shp23" d="M689.87 1584.6C677.6 1717.14 677.6 1781.77 677.6 1781.77L849.92 1781.77L859.22 1580.92C859.22 1580.92 819.53 1577.65 775.64 1577.65C745.1 1577.65 712.53 1579.23 689.87 1584.6Z" />
		<path id="Path 30" class="shp24" d="M740.19 1579.29C740.19 1579.29 745.09 1571.51 689.87 1584.6C677.6 1717.14 677.6 1781.77 677.6 1781.77L730.89 1780.14L740.19 1579.29Z" />
		<path id="Path 31" class="shp25" d="M859.66 1571.46C859.66 1571.46 745.09 1571.51 689.87 1584.6C677.6 1717.14 677.6 1781.77 677.6 1781.77L849.92 1781.77L859.66 1571.46Z" />
		<path id="Path 32" class="shp26" d="M733.95 1774.22L685.25 1774.22C685.65 1753.97 687.56 1692.99 696.89 1590.79C709.51 1588.16 724.75 1586.11 740.77 1584.53C740.6 1579.41 740.65 1574.3 741.17 1569.28C721.57 1571.18 702.87 1573.76 688.13 1577.25L682.85 1578.5L682.35 1583.91C670.18 1715.27 670.04 1781.12 670.04 1781.77L670.04 1789.33L734.23 1789.33C734.29 1784.3 734.05 1779.25 733.95 1774.22Z" />
		<path id="Path 33" class="shp27" d="M7.56 1308.35C7.5 1485.84 150.75 1677.32 273.72 1786.14C403.85 1901.28 565.12 2014.63 626.88 2014.94C688.15 2015.24 927.13 1776.86 936.95 1765.41C946.76 1753.96 868.38 1578.56 836.04 1584.88C788.59 1594.15 635.84 1698.21 615.01 1707.32C608.47 1710.19 483.16 1568.72 269.36 1384.37C149.19 1280.76 71.37 1146.91 71.37 1146.91C44.64 1163.27 7.59 1183.95 7.56 1308.35Z" />
		<path id="Path 34" class="shp28" d="M411.91 1582.73C447.84 1620.46 480.88 1661.53 518.08 1697.94C543.33 1722.64 576.38 1744.65 601.03 1761.85C668.35 1746.52 734.62 1709.33 793.4 1674.76C821.58 1658.18 849 1640.42 875.89 1621.85C860.84 1598.77 846.18 1582.9 836.04 1584.88C788.59 1594.15 635.84 1698.21 615.01 1707.32C608.47 1710.19 483.16 1568.72 269.35 1384.37C258.41 1374.94 247.84 1365.25 237.63 1355.44C252.8 1400.03 283.07 1437.31 312.91 1473.14C344.47 1511.04 377.91 1547.03 411.91 1582.73Z" />
		<path id="Path 35" class="shp10" d="M836.04 1584.88C813.82 1589.22 755.74 1619.52 711.69 1645.96C729.26 1651.21 755.92 1660.38 770.59 1672.14C796.83 1693.18 817.93 1714.69 825.03 1746.48C828.41 1761.59 808.43 1783.94 800.6 1792.96C783.24 1812.92 661.08 1916.85 608.26 1906.65C603.68 1905.76 517.52 1871.22 413.78 1812.27C350.64 1776.4 286.93 1734.48 233.69 1684.87C182.42 1637.11 130.46 1588.19 90.5 1530.3C70.76 1501.7 52.86 1471.25 37.66 1440.01C30.46 1425.22 24.64 1410.13 19.31 1394.6C18.23 1391.46 17.09 1388.33 15.96 1385.2C48.21 1539 168.36 1692.91 273.72 1786.14C403.85 1901.28 565.12 2014.63 626.88 2014.94C688.15 2015.24 927.13 1776.86 936.94 1765.41C946.76 1753.96 868.38 1578.56 836.04 1584.88Z" />
		<path id="Path 36" class="shp13" d="M931.84 1715.42C921.16 1688.68 906.47 1658.43 892.53 1634.5C860.48 1579.49 844.11 1575.6 834.59 1577.46C800.2 1584.18 715.77 1636.8 659.9 1671.62C640.41 1683.76 623.22 1694.48 615.13 1698.83C608.28 1693.34 590.07 1675.18 567.71 1652.88C514.4 1599.7 416.46 1502.01 285.85 1388.65C272.36 1376.53 249.18 1353.89 226.81 1346.53C231.72 1360.3 264.15 1389.86 264.42 1390.09C400.4 1507.33 502.3 1608.97 557.04 1663.58C609.94 1716.34 611.08 1717.27 618.04 1714.25C624.87 1711.26 642.92 1700.01 667.89 1684.45C719.48 1652.29 805.83 1598.48 837.49 1592.29C838.74 1592.04 842.51 1593.25 848.76 1599.29C883.81 1633.12 930.56 1745.16 930.27 1761.55C906.52 1788.02 681.94 2007.41 627.02 2007.38L626.92 2007.38C566.98 2007.08 402.78 1890.25 278.73 1780.48C157.09 1672.84 15.06 1484.6 15.11 1308.35C15.14 1198.2 44.7 1172.61 68.85 1157.34C68.9 1157.42 68.96 1157.52 69.01 1157.6C69.06 1157.57 69.1 1157.54 69.15 1157.51C73.17 1154.53 77.38 1151.89 81.78 1149.52C79.36 1145.58 78 1143.27 77.9 1143.11L74.02 1136.43L66.18 1141.22C38.26 1158.28 0.04 1181.64 0 1308.35C-0.05 1489.63 144.72 1682.07 268.71 1791.79C394.02 1902.67 559.53 2022.16 626.84 2022.49L626.97 2022.49C694.02 2022.49 940.52 1772.85 942.68 1770.32C945.51 1767.03 950.24 1761.52 931.84 1715.42ZM1089.93 1589.9C1069.99 1590.37 1050.49 1591.38 1039.21 1592.32C1027.53 1593.29 1026.03 1593.42 1023.56 1592.18L1030.32 1578.67C1029.04 1578.03 1027.99 1577.97 1027.88 1577.97C1028.94 1577.93 1033.53 1577.62 1037.95 1577.26C1050.51 1576.21 1070.31 1574.56 1090.75 1574.75C1108.59 1574.92 1130.4 1578.98 1139.01 1588.33C1147.33 1597.35 1123.61 1589.1 1089.93 1589.9Z" />
		<path id="Path 37" class="shp29" d="M933.67 1537.97C872.31 1553.52 862.5 1592.79 862.5 1592.79C862.5 1592.79 933.67 1718.78 948.4 1696.69C963.12 1674.6 1008.12 1636.96 1069.48 1587.06C1054.31 1565.69 1011.84 1534.44 962.13 1534.44C952.86 1534.44 943.32 1535.53 933.67 1537.97Z" />
		<path id="Path 38" class="shp30" d="M1041.26 1567.07C1017.89 1581.91 990.66 1605.25 963.95 1610.98C935.27 1617.12 900.93 1622.19 873.48 1611.51C894.04 1645.72 937.29 1713.36 948.4 1696.69C963.12 1674.6 1008.12 1636.96 1069.48 1587.06C1066.45 1582.79 1062.31 1578.13 1057.27 1573.4C1054.84 1575.42 1052.11 1572.88 1049.31 1570.33C1047.23 1568.43 1045.1 1566.53 1043.05 1566.53C1042.44 1566.53 1041.84 1566.69 1041.26 1567.07Z" />
		<path id="Path 39" class="shp22" d="M862.5 1592.79C862.5 1592.79 872.31 1553.51 933.67 1537.97C995.03 1522.43 1051.48 1561.7 1069.48 1587.06C1008.12 1636.96 963.12 1674.6 948.4 1696.69C933.67 1718.78 862.5 1592.79 862.5 1592.79Z" />
		<path id="Path 40" class="shp31" d="M730.89 1629.7C730.89 1629.7 818.11 1647.59 864.13 1732.57C901 1800.64 905.38 1847.98 902.02 1872.76C904.69 1873.2 907.36 1873.59 910.03 1873.99C967.83 1814.77 994.05 1773.41 1003.31 1755.62C1013.13 1736.76 999.94 1682.13 960.67 1630.27C928.68 1588.02 864.13 1567.07 864.13 1567.07C864.13 1567.07 806.97 1579.41 730.89 1629.7Z" />
		<path id="Path 41" class="shp28" d="M912.98 1589.85C887.44 1574.64 864.13 1567.07 864.13 1567.07C864.13 1567.07 806.97 1579.41 730.89 1629.7C730.89 1629.7 760.55 1635.81 794.4 1657.73C833.11 1633.55 872.42 1610.54 912.98 1589.85Z" />
		<path id="Path 42" class="shp10" d="M969.79 1643.13C959.02 1656.59 948.01 1669.84 936.37 1682.57C917.4 1703.33 894.99 1726.6 869.82 1743.45C901.59 1806.03 905.19 1849.69 901.93 1873.04C904.48 1873.64 907.09 1874.08 909.77 1874.26C967.75 1814.89 994.04 1773.43 1003.31 1755.62C1012.32 1738.32 1001.89 1690.89 969.79 1643.13Z" />
		<path id="Path 43" class="shp24" d="M901.76 1700.2C875.69 1656.61 830.64 1614.75 776.47 1602.54C760.81 1610.63 749.3 1617.53 730.89 1629.7C730.89 1629.7 818.1 1647.59 864.13 1732.57C900.45 1799.63 905.25 1846.59 902.17 1871.66C905.21 1872.07 908.26 1872.42 911.31 1872.72C922.78 1860.92 932.99 1849.84 942.06 1839.52C943.9 1789.84 928 1744.07 901.76 1700.2Z" />
		<path id="Path 44" class="shp18" d="M901.93 1873.04C904.48 1873.64 907.09 1874.08 909.77 1874.26C921.84 1861.9 932.61 1850.28 942.06 1839.52C943.74 1794.16 930.6 1752.06 908.34 1711.7C896.39 1723.24 883.52 1734.28 869.82 1743.45C901.59 1806.03 905.19 1849.69 901.93 1873.04Z" />
		<path id="Path 45" fill-rule="evenodd" class="shp13" d="M1010.01 1759.11C1002.19 1774.15 978.47 1813.81 920.8 1873.76C916.39 1874.86 911.83 1875.28 907.2 1874.66C902.83 1874.07 898.67 1872.95 894.39 1872.25C897.03 1853.23 896.61 1808.39 857.49 1736.17C813.78 1655.47 730.2 1637.27 729.36 1637.1C726.37 1636.48 724.05 1634.12 723.47 1631.12C722.9 1628.13 724.17 1625.08 726.72 1623.4C803.11 1572.9 860.15 1560.2 862.54 1559.68C863.84 1559.4 865.2 1559.47 866.47 1559.88C869.19 1560.77 933.65 1582.07 966.69 1625.71C1007.97 1680.22 1021.32 1737.4 1010.01 1759.11ZM954.65 1634.83C927.48 1598.95 874.59 1578.78 863.76 1574.93C853.92 1577.43 808.36 1590.29 749.02 1627.06C777.42 1636.78 835.43 1663.72 870.78 1728.98C905.44 1792.97 911.32 1837.32 910.37 1862.81C968.11 1802.65 990.74 1763.41 996.61 1752.13C1004.58 1736.82 992.48 1684.79 954.65 1634.83Z" />
		<path id="Path 46" class="shp26" d="M941.89 1848.52C941.72 1846.55 941.65 1844.57 941.65 1842.59C940.92 1838.12 940.66 1833.38 941.29 1828.86C932.3 1839.29 922.1 1850.59 910.37 1862.81C911.32 1837.32 905.44 1792.97 870.78 1728.98C835.43 1663.72 777.42 1636.78 749.02 1627.06C762.44 1618.75 775.1 1611.71 786.86 1605.69C780.14 1603.53 773.41 1601.43 766.72 1599.2C754.19 1606.09 740.79 1614.1 726.72 1623.4C724.17 1625.08 722.9 1628.13 723.47 1631.12C724.05 1634.12 726.37 1636.48 729.36 1637.1C730.2 1637.27 813.77 1655.47 857.49 1736.17C896.61 1808.39 897.03 1853.23 894.39 1872.25C898.67 1872.95 902.83 1874.07 907.2 1874.66C911.83 1875.28 916.39 1874.86 920.8 1873.76C928.27 1866 935.14 1858.6 941.5 1851.53C941.62 1850.53 941.78 1849.53 941.89 1848.52Z" />
		<path id="Path 47" class="shp32" d="M328.81 1026.91C328.81 1026.91 468.98 1147.45 532.79 1146.91C596.6 1146.36 604.24 1134.91 604.24 1134.91L631.15 1056.91L624.97 886.74L356.86 836.57L328.81 1026.91Z" />
		<path id="Path 48" class="shp33" d="M328.81 1026.91C328.81 1026.91 334.21 1031.56 343.31 1038.97C348.69 1019.65 349.38 999.12 355.54 980.15C358.79 970.15 364.97 964.18 376 965.18C390.68 966.51 408.39 979.48 421.37 985.71C442.59 995.91 466.3 1005.28 489.43 1011.51C557.64 1029.87 565.6 1011.92 568.79 1067.14C569.91 1086.61 570.04 1109.16 567.56 1128.09C566.39 1137.03 576.7 1135.18 576.57 1144.04C600.5 1140.48 604.24 1134.91 604.24 1134.91L631.15 1056.91L624.97 886.74L356.86 836.57L328.81 1026.91Z" />
		<path id="Path 49" class="shp34" d="M356.86 836.57L328.81 1026.92C328.81 1026.92 468.98 1147.45 532.79 1146.91C596.61 1146.36 604.24 1134.91 604.24 1134.91L631.15 1056.91L624.97 886.74L356.86 836.57Z" />
		<path id="Path 50" fill-rule="evenodd" class="shp35" d="M257.85 441.17C258.14 440 258.27 438.8 258.2 437.56C258.04 438.76 257.93 439.97 257.85 441.17ZM251.56 451.74C239.67 465.79 225.98 478.31 210.93 488.92C207.21 491.55 204.36 492.38 203.57 496.75C202.7 501.53 203.4 507.17 203.32 512.02C203.15 522.19 202.98 532.35 202.81 542.52C202.6 555.01 202.4 567.58 204.36 579.91C206.33 592.25 210.59 604.47 218.47 614.17C227.42 625.21 240.59 632.34 254.38 635.79C257.48 636.56 260.76 637.16 263.82 636.28C267.73 635.16 270.66 631.77 272.22 628.02C273.78 624.27 274.19 620.16 274.56 616.11C275.98 600.57 277.15 584.96 276.26 569.38C275.64 558.52 274.02 547.76 272.41 537.01C269.29 516.31 266.18 495.6 262.01 475.08C259.74 463.89 257.13 452.51 257.85 441.17C256.9 445.07 254.22 448.6 251.56 451.74Z" />
		<path id="Path 51" fill-rule="evenodd" class="shp36" d="M257.85 441.17C258.14 440 258.27 438.8 258.2 437.56C258.04 438.76 257.93 439.97 257.85 441.17ZM251.56 451.74C239.67 465.79 225.98 478.31 210.93 488.92C207.21 491.55 204.36 492.38 203.57 496.75C202.7 501.53 203.4 507.17 203.32 512.02C203.15 522.19 202.98 532.35 202.81 542.52C202.6 555.01 202.4 567.58 204.36 579.91C206.33 592.25 210.59 604.47 218.47 614.17C227.42 625.21 240.59 632.34 254.38 635.79C257.48 636.56 260.76 637.16 263.82 636.28C267.73 635.16 270.66 631.77 272.22 628.02C273.78 624.27 274.19 620.16 274.56 616.11C275.98 600.57 277.15 584.96 276.26 569.38C275.64 558.52 274.02 547.76 272.41 537.01C269.29 516.31 266.18 495.6 262.01 475.08C259.74 463.89 257.13 452.51 257.85 441.17C256.9 445.07 254.22 448.6 251.56 451.74Z" />
		<path id="Path 52" class="shp34" d="M202.81 542.52C202.6 555.01 202.39 567.57 204.36 579.91C206.32 592.25 210.6 604.47 218.47 614.17C227.42 625.21 240.59 632.34 254.38 635.78C257.47 636.56 260.76 637.16 263.82 636.28C267.73 635.16 270.65 631.77 272.22 628.02C273.78 624.27 274.19 620.16 274.56 616.11C275.98 600.57 277.15 584.95 276.26 569.38C275.64 558.52 274.02 547.76 272.41 537.01C269.29 516.31 266.18 495.6 262.01 475.08C259.49 462.7 256.58 450.09 258.2 437.56C258.51 442.9 255.02 447.65 251.56 451.74C239.67 465.78 225.98 478.31 210.93 488.92C207.21 491.54 204.36 492.38 203.57 496.75C202.7 501.53 203.39 507.17 203.31 512.02C203.14 522.19 202.98 532.35 202.81 542.52Z" />
		<path id="Path 53" class="shp37" d="M354.03 220.48C336.75 236.85 321.9 255.59 307.61 274.8C290.77 297.39 274.71 321.56 267.24 348.6C267.2 353 267.15 357.36 267.11 361.59C267.06 363.71 267.02 365.78 266.98 367.81C265.51 428.17 259.29 461.72 259.55 507.19C259.98 568.07 269.09 661.21 276.74 696.14C284.34 731.03 316.5 809.66 335.89 838.2C366.98 883.89 417.05 930.77 452.53 951.94C454.41 953.08 456.25 954.14 458.04 955.13C459.33 955.82 460.58 956.48 461.82 957.11C463.06 957.73 464.26 958.3 465.43 958.84C469.1 960.48 472.47 961.73 475.53 962.55C482.27 964.32 489.09 965.75 495.87 966.83C518.15 970.37 539.95 970.15 556.62 966.18C559.56 965.49 562.36 964.67 564.96 963.76C565.65 963.5 566.38 963.24 567.11 962.9C583.48 956.55 600.66 944.07 617.68 928.49C638.19 909.62 658.48 886.17 676.79 863.29C705.28 827.71 739.7 768.38 757.62 720.67C762.2 708.4 765.74 696.92 767.77 686.82C777.78 637.12 785.25 503.31 779.86 434.61C777.83 408.61 782.92 345.27 782.58 288.88C780.03 285.12 777.48 281.37 774.8 277.7C766.95 266.94 758.44 256.93 749.33 247.56C736.63 238.58 723.38 230.28 709.52 222.86C654.9 193.54 595.18 181.49 533.52 179.77C530.22 179.67 526.94 179.63 523.67 179.63C462.35 179.63 406.7 195.6 354.03 220.48Z" />
		<path id="Path 54" class="shp38" d="M373.26 843.56C337.79 794.95 326.82 750.13 308.63 691.59C299.35 661.75 290.45 590.95 288.17 560.62C286.37 536.62 301.47 541.16 308.97 517.98C304.19 495.82 284.52 481.04 263.07 468.98C262.55 485.13 262.47 499.97 263.36 514.02C267.21 574.81 280.26 703.17 287.9 738.09C295.54 773.01 314.78 810.12 334.81 838.32C374.62 894.38 442.8 953.93 475.52 962.56C484.94 965.04 494.54 966.81 503.95 967.92C498.65 964.78 494.13 960.03 488.26 958.2C451.53 946.74 406.93 889.71 373.26 843.56Z" />
		<path id="Path 55" class="shp39" d="M354.03 220.48C336.75 236.85 321.9 255.59 307.61 274.8C290.77 297.39 274.71 321.56 267.24 348.6C267.2 353 267.15 357.36 267.11 361.59C267.06 363.71 267.06 365.78 266.98 367.81C265.81 430.46 260.89 475.15 263.35 514.01C264.78 536.64 267.5 568.59 270.73 601.62C271.12 601.62 274.32 640.61 274.71 640.61C283.52 592.17 298.63 540.44 331.23 529.17C339.09 526.45 345.05 526.71 349.8 529.08C354.76 529.77 359.25 533.27 363.92 536.55C384.29 550.72 406.66 558.7 431.58 560.22C453.9 561.55 491.08 558.96 509.95 545.19C528.38 531.76 516.59 502.92 507.7 487.29C496.43 467.55 478.6 458.14 458 450.5C435.85 442.25 412.71 434.13 389.04 432.23C385.5 433.14 381.75 428.22 384.86 424.63C405.84 400.5 412.62 367.68 421.6 337.76C426.61 320.96 432.74 296.09 450.36 288.15C450.44 288.1 450.49 288.1 450.53 288.1C469.57 267.33 497.12 252.57 524.84 248.33C542.85 245.57 559.69 249.8 577.17 253.9C600.97 259.43 622.43 257.96 646.52 257.27C649.89 257.14 651.18 260.16 650.62 262.71C679.21 274.54 696.35 318.15 703.21 345.57C709.39 370.27 713.75 396.78 715.22 422.26C715.99 435.95 717.16 456.28 703.56 464.32C701.05 465.83 698.64 464.53 697.56 462.54C667.29 467.16 630.98 461.68 614.22 492.81C603.34 513.11 588.06 546.7 607.7 564.58C627.39 582.54 655.24 589.06 681.15 588.67C685.08 588.63 690.22 588.93 695.66 589.23C707.14 587.46 718.54 584.78 727.18 586.94C727.35 586.9 727.57 586.81 727.74 586.77C731.06 585.21 734.09 587.89 734.43 590.61C738.49 594.2 741.21 600.28 741.9 610.35C744.28 643.98 734.3 684.22 725.15 716.13C714.48 753.14 696.48 787.46 671.61 824.47C650.79 855.43 605.59 902.71 594.19 911.91C566.85 933.93 532.23 948.26 498.2 946.67C469.7 945.28 432.27 938.98 408.78 919.03C426.48 934.57 443.75 947.27 458.04 955.13C460.59 956.51 463.05 957.76 465.43 958.84C469.1 960.48 472.47 961.73 475.53 962.55C482.27 964.32 489.09 965.75 495.87 966.83C518.15 970.37 539.95 970.11 556.62 966.18C559.56 965.49 562.36 964.67 564.96 963.76C565.65 963.5 566.38 963.24 567.11 962.9C578.08 958.24 597.08 945.2 617.68 928.49C638.19 909.62 658.48 886.17 676.79 863.29C705.28 827.71 739.7 768.38 757.62 720.67C757.83 719.5 757.96 718.29 758.14 717.13C764.61 666.95 778.78 485.86 779.86 434.61C780.42 408.53 782.92 345.27 782.58 288.88C780.03 285.12 777.48 281.37 774.8 277.7C766.95 266.94 758.44 256.93 749.33 247.56C736.63 238.58 723.38 230.28 709.52 222.86C654.9 193.54 595.18 181.49 533.52 179.77C530.22 179.67 526.94 179.63 523.67 179.63C462.35 179.63 406.7 195.6 354.03 220.48Z" />
		<path id="Path 56" class="shp34" d="M774.78 277.68C766.93 266.94 758.42 256.92 749.35 247.55C736.62 238.59 723.38 230.3 709.51 222.86C654.92 193.56 595.17 181.48 533.51 179.76C468.27 177.93 409.49 194.27 354.04 220.47C336.77 236.86 321.91 255.61 307.62 274.79C290.77 297.39 274.71 321.56 267.24 348.58C266.84 421.54 259.23 457.11 259.56 507.17C259.97 568.08 269.08 661.2 276.72 696.12C284.35 731.04 316.49 809.68 335.9 838.2C374.57 895.06 442.8 953.93 475.52 962.56C508.25 971.18 543.19 971.59 564.97 963.75C601.61 950.56 642.64 905.97 676.79 863.29C712.57 818.57 757.79 736.39 767.77 686.79C777.76 637.14 785.25 503.32 779.86 434.59C777.83 408.6 782.9 345.25 782.57 288.9C780.02 285.13 777.47 281.36 774.78 277.68Z" />
		<path id="Path 57" fill-rule="evenodd" class="shp40" d="M523.82 172.07C527.12 172.07 530.42 172.11 533.72 172.2C602.86 174.14 661.53 188.53 713.08 216.2C726.66 223.49 740.32 231.96 753.7 241.37L754.77 242.29C764.22 252.05 773.01 262.46 780.88 273.22L780.89 273.22C783.52 276.83 786.03 280.52 788.53 284.22L790.12 286.56L790.13 288.86C790.29 315.71 789.22 344.16 788.28 369.26C787.25 396.89 786.36 420.76 787.4 434C792.92 504.44 785.07 639.15 775.18 688.29C764.87 739.53 719.03 822.59 682.69 868.01C635.62 926.84 599.03 959.52 567.53 970.86C556.42 974.86 542.15 976.85 526.56 976.85C509.67 976.85 491.23 974.51 473.6 969.86C437.72 960.41 367.76 898.49 329.65 842.45C308.69 811.64 276.89 732.28 269.34 697.74C261.84 663.44 252.44 570.81 252.01 507.22C251.85 483.27 253.51 462.21 255.27 439.92C257.24 415.02 259.48 386.79 259.68 348.54L259.69 347.53L259.96 346.56C267.87 317.97 284.63 293 301.56 270.27C315.33 251.8 330.58 232.32 348.84 214.99L349.72 214.15L350.81 213.63C409.99 185.68 466.72 172.07 523.82 172.07ZM526.68 961.81C540.39 961.81 552.82 960.09 562.41 956.64C590.77 946.43 626.26 914.35 670.89 858.57C705.4 815.44 750.63 733.67 760.36 685.3C770.07 637.05 777.77 504.56 772.33 435.18C771.23 421.07 772.13 396.8 773.18 368.69C774.09 344.46 775.11 317.1 775.03 291.23C772.95 288.18 770.87 285.13 768.69 282.14C761.36 272.12 753.19 262.43 744.41 253.32C731.72 244.42 718.78 236.41 705.93 229.52C656.5 202.98 600.03 189.18 533.3 187.31C475.58 185.68 418.36 198.61 358.37 226.78C341.32 243.13 326.82 261.67 313.68 279.31C297.82 300.59 282.16 323.83 274.79 349.64C274.54 387.93 272.31 416.17 270.34 441.12C268.53 464.03 266.96 483.82 267.12 507.12C267.53 568.09 276.8 661.12 284.1 694.51C291.92 730.28 323.93 807.17 342.14 833.95C381.46 891.75 448.31 947.57 477.45 955.25C493.99 959.61 511.16 961.81 526.68 961.81Z" />
		<path id="Path 58" class="shp28" d="M359.12 518.63C359.12 518.63 392.66 477.6 440.16 486.23C487.66 494.87 480.02 535.91 480.02 535.91C480.02 535.91 469.23 559.65 417.41 555.34C360.82 550.62 359.12 518.63 359.12 518.63Z" />
		<path id="Path 59" class="shp41" d="M374.35 518.99C391.44 511.23 422.22 504.07 440.89 506.86C460.91 509.86 469.52 522.41 475.72 541.44C478.86 538.32 480.02 535.91 480.02 535.91C480.02 535.91 489.24 494.23 441.74 485.59C394.25 476.96 359.12 518.63 359.12 518.63C359.12 518.63 359.26 521.14 360.68 524.84C365.19 522.49 369.76 520.58 374.35 518.99Z" />
		<path id="Path 60" class="shp42" d="M356.08 517.22C356.08 517.22 382.97 481.45 431.21 483.41C488.61 485.73 483.43 534.95 483.43 534.95C483.43 534.95 469.23 559.65 417.41 555.34C360.82 550.62 356.08 517.22 356.08 517.22Z" />
		<path id="Path 61" class="shp43" d="M384.73 518.25C384.73 537.49 400.33 553.09 419.57 553.09C438.81 553.09 454.41 537.49 454.41 518.25C454.41 499.01 438.81 483.41 419.57 483.41C400.33 483.41 384.73 499.01 384.73 518.25Z" />
		<path id="Path 62" class="shp44" d="M384.73 518.25C384.73 537.49 400.33 553.09 419.57 553.09C433.13 553.09 444.86 545.32 450.61 534.01C439.6 540.22 427.44 544 416.16 541.81C394.64 537.63 389.83 511.62 395.8 492.83C389.01 499.18 384.73 508.21 384.73 518.25Z" />
		<path id="Path 63" class="shp45" d="M440.16 517.87C440.16 529.71 430.56 539.31 418.72 539.31C406.88 539.31 397.28 529.71 397.28 517.87C397.28 506.03 406.88 496.43 418.72 496.43C430.56 496.43 440.16 506.03 440.16 517.87Z" />
		<path id="Path 64" class="shp46" d="M413.1 514.02C413.1 519.93 408.3 524.72 402.39 524.72C396.48 524.72 391.69 519.93 391.69 514.02C391.69 508.11 396.48 503.32 402.39 503.32C408.3 503.32 413.1 508.11 413.1 514.02Z" />
		<path id="Path 65" class="shp47" d="M324.38 495.68C324.37 496.98 325 498.63 325.91 500.11C327.94 503.43 330.56 506.46 333.31 509.21C338.49 514.39 346.87 521.28 354.8 518.63C367.76 514.32 374.25 496.21 417.44 492C462.91 487.57 474.91 501.61 481.52 530.86C482.87 536.8 490.02 536.93 491.48 537.13C494.2 537.51 498.36 508.25 477.36 488.73C476.35 487.78 475.35 486.82 474.34 485.87C455.97 468.48 426.86 470.08 404.45 477.85C396.75 480.52 388.89 484.03 380.8 483.01C371.42 481.84 363.67 474.79 354.37 473.12C354.43 477.13 356.68 480.8 359.4 483.75C362.12 486.7 365.36 489.14 368.06 492.1C368.48 492.56 368.92 493.11 368.83 493.73C368.47 496.26 345.11 487.71 343.1 487.03C341.93 486.63 340.43 486.31 339.62 487.24C339.23 487.68 339.12 488.31 339.12 488.9C339.1 491.69 341.06 494.11 343.2 495.91C345.34 497.7 347.8 499.2 349.45 501.45C349.66 501.74 349.84 502.19 349.56 502.4C344.46 501.82 339.51 500.01 335.23 497.17C333.34 495.91 331.52 494.42 329.34 493.78C325.7 492.7 324.39 493.83 324.38 495.68Z" />
		<path id="Path 66" class="shp48" d="M522.47 481.24C522.25 481.41 522.17 481.5 522.17 481.5C516.16 484.65 510.42 490.48 491.34 481.24C444.4 458.44 410.29 444.8 381.96 445.23C353.68 445.7 322.08 457.58 326.31 454.38C328.29 452.91 333 445.14 342.33 437.89C343.36 437.03 344.48 436.25 345.69 435.43C357.18 427.57 372.21 419.49 385.25 420.14C436.37 422.69 496.6 453.86 499.93 455.89C510.03 462.11 526.61 467.38 527.87 472.52C528.69 475.8 523.72 480.2 522.47 481.24Z" />
		<path id="Path 67" class="shp49" d="M522.47 481.24C520.87 480.72 497.34 477.95 467.11 462.59C450.89 454.34 433.65 448.25 416.68 441.65C405.24 437.16 393.1 434.09 380.8 433.27C368.32 432.49 357.4 435 345.35 437.76C344.44 437.98 343.32 438.06 342.33 437.89C343.36 437.03 344.48 436.25 345.69 435.43C357.18 427.57 372.21 419.49 385.25 420.14C436.37 422.69 496.6 453.86 499.93 455.89C510.03 462.11 526.61 467.38 527.87 472.52C528.69 475.8 523.72 480.2 522.47 481.24Z" />
		<path id="Path 68" class="shp28" d="M738.35 549.15C738.35 549.15 711.04 508.61 665.45 514.02C619.86 519.43 622.59 558.24 622.59 558.24C622.59 558.24 631.31 582.66 680.72 581.84C734.69 580.95 738.35 549.15 738.35 549.15Z" />
		<path id="Path 69" class="shp41" d="M715.71 546.71C695.69 536.28 685.19 533.32 667.31 534.85C648.13 536.49 633.87 548.96 626.32 564.05C623.54 560.72 622.59 558.24 622.59 558.24C622.59 558.24 619.86 519.43 665.45 514.02C711.04 508.61 738.35 549.15 738.35 549.15C738.35 549.15 734.44 557.86 732.85 561.46C728.72 558.82 719.97 548.61 715.71 546.71Z" />
		<path id="Path 70" class="shp42" d="M741.32 547.95C741.32 547.95 715.54 509.15 669.8 512.93C620.18 517.02 619.42 557.05 619.42 557.05C619.42 557.05 631.31 582.66 680.72 581.84C734.69 580.95 741.32 547.95 741.32 547.95Z" />
		<path id="Path 71" class="shp50" d="M638.49 544.26C638.49 563.5 653.32 579.1 671.61 579.1C689.89 579.1 704.72 563.5 704.72 544.26C704.72 525.02 689.89 509.42 671.61 509.42C653.32 509.42 638.49 525.02 638.49 544.26Z" />
		<path id="Path 72" class="shp51" d="M638.49 544.26C638.49 563.5 653.32 579.1 671.61 579.1C684.49 579.1 695.64 571.33 701.11 560.02C690.65 566.23 679.09 570.01 668.36 567.82C647.91 563.64 643.34 537.63 649.02 518.84C642.56 525.2 638.49 534.22 638.49 544.26Z" />
		<path id="Path 73" class="shp45" d="M691.17 543.88C691.17 555.73 682.05 565.33 670.8 565.33C659.54 565.33 650.42 555.73 650.42 543.88C650.42 532.04 659.54 522.44 670.8 522.44C682.05 522.44 691.17 532.04 691.17 543.88Z" />
		<path id="Path 74" class="shp46" d="M665.45 540.03C665.45 545.94 660.9 550.74 655.28 550.74C649.66 550.74 645.1 545.94 645.1 540.03C645.1 534.12 649.66 529.33 655.28 529.33C660.9 529.33 665.45 534.12 665.45 540.03Z" />
		<path id="Path 75" class="shp47" d="M750.31 527.47C747.01 527.94 743.71 528.52 740.38 528.69C738.36 528.79 732.22 527.01 730.76 527.86C735.89 524.87 741.27 521.61 743.98 516.33C744.68 514.97 744.91 512.87 743.49 512.32C743 512.13 742.45 512.21 741.93 512.29C732.9 513.71 723.6 514.55 714.67 512.6C702.86 510.03 687.21 499.79 673.71 497.95C663.78 496.6 651.38 495.99 637.51 506.11C633.83 508.8 626.47 516.47 623.81 521.45C610.71 546 614.64 560.82 617.25 560.62C618.65 560.52 621.7 558.71 624.38 553.31C636.46 529.03 647.73 512.93 685.23 520.45C716.92 526.8 728.44 549.94 740.45 555.12C751.66 560.02 759.31 546.52 764.25 539.1C764.85 538.2 765.33 536.75 764.38 536.24C764.03 536.04 763.59 536.09 763.19 536.14C758.29 536.75 753.4 537.35 748.5 537.96C749.81 536.56 751.12 535.15 752.44 533.75C753.84 532.25 755.34 530.36 754.81 528.39C754.7 528.01 754.52 527.64 754.2 527.41C753.72 527.07 753.09 527.12 752.51 527.19C751.78 527.27 751.04 527.37 750.31 527.47Z" />
		<path id="Path 76" class="shp48" d="M726.15 477.25C703.1 470.55 665.24 485.96 624.69 490.77C619.79 491.35 616.44 489.54 612.42 484.96C612.42 484.96 612.56 476.42 617.25 468.9L617.3 468.86C618.34 467.11 619.66 465.42 621.27 463.9C624.02 461.29 704.76 450.14 726.86 453.49C737.32 455.05 746.83 464.45 754.21 474.31C762.31 485.23 767.84 496.75 769.22 498.99C771.87 503.26 749.24 483.99 726.15 477.25Z" />
		<path id="Path 77" class="shp49" d="M754.21 474.31C738.07 464.77 720.71 461.65 698.7 465.92C670.49 471.38 641.62 481.38 614.36 478.67C615.5 475.28 616.25 471.97 617.25 468.9L617.3 468.86C618.34 467.11 619.66 465.41 621.27 463.9C624.02 461.29 704.76 450.14 726.86 453.49C737.32 455.05 746.83 464.45 754.21 474.31Z" />
		<path id="Path 78" class="shp52" d="M386.04 696.66C379.54 698.37 374 703.88 372.94 710.53C372.66 712.22 372.7 714.05 373.6 715.5C374.13 716.37 374.93 717.03 375.72 717.67C378.99 720.34 382.7 723.09 386.93 722.96C394.87 722.72 402.88 714.91 406.36 708.19C411.51 698.24 392.68 694.91 386.04 696.66ZM669.95 754.52C671.33 754.55 672.78 754.49 673.94 753.75C674.87 753.15 675.5 752.17 675.94 751.15C677.17 748.27 677.05 744.84 675.62 742.06C674.32 739.54 672.08 737.65 669.95 735.79C667.25 733.44 664.59 731 661.42 729.35C658.25 727.71 654.44 726.95 651.08 728.17C642.81 731.18 646.02 738.8 650.36 743.27C653.24 746.23 655.08 749.76 658.81 751.84C662.18 753.71 666.13 754.42 669.95 754.52ZM509.07 836.53C500.41 835.4 490.91 834.84 483.67 839.73C481.82 840.99 480.05 842.93 480.34 845.15C480.59 846.98 482.16 848.31 483.69 849.34C495.48 857.23 510.58 857.61 524.77 857.72C531.66 857.78 538.58 857.83 545.43 857.03C553.47 856.09 562.3 853.25 565.93 846.02C566.77 844.34 567.28 842.34 566.65 840.57C565.69 837.87 562.6 836.69 559.84 835.96C541.29 831.01 521.56 831.48 502.8 835.51" />
		<path id="Path 79" class="shp28" d="M654.03 747.05C652.05 755.94 637.88 778.14 625.88 791.22L625.84 791.22C623.03 794.29 620.31 796.88 617.89 798.65C603.99 808.88 572.38 830.6 506.49 824.08C440.64 817.52 406.27 737.33 406.27 737.33C406.27 737.33 398.76 716.87 400.79 716.87C400.79 716.87 452.99 726.28 508.04 735.3C508.43 736.77 509.38 738.11 511.11 739.06C529.12 749.29 550.49 754.17 568.93 744.8C600.06 749.34 625.1 752.27 632.27 751.24C633 751.15 633.7 751.02 634.34 750.93C641.03 749.81 645.48 748.04 648.46 746.4C650.28 746.79 652.13 746.96 654.03 747.05Z" />
		<path id="Path 80" class="shp53" d="M437.51 725.25C419.58 724.29 398.62 716.57 398.62 716.57C398.62 716.57 421.27 755.75 440.79 778.25C440.93 762.82 427.55 737.3 437.51 725.25ZM611.9 798.54C613.01 796.04 635.1 776.63 636.94 762.7C598.49 801.76 533.87 816.74 463.29 777.29C448.18 768.84 429.78 750.71 426.27 748.07C426.18 751.83 423.4 759.44 423.4 763.06C423.4 764.22 444.26 786.84 443.68 787.53C459.66 803.5 480.64 817.43 506.51 820.01C558.86 825.21 593.58 813.61 612.63 803.5C611.55 802.23 611.05 800.43 611.9 798.54ZM654.03 747.05C652.05 755.94 637.88 778.14 625.88 791.22L625.84 791.22C620.66 792.86 609.95 795.97 607.92 796.45C608.26 796.27 608.87 796.06 609.77 795.8C606.41 789.54 636.8 764.93 634.34 750.93C641.03 749.81 645.48 748.04 648.46 746.4C650.28 746.79 652.13 746.96 654.03 747.05Z" />
		<path id="Path 81" class="shp54" d="M540.7 743.03C556.43 746.17 568.79 740.84 583.52 740.84C598.24 740.84 642.28 739.34 659.87 746.3C640.62 755.33 561.16 760.6 540.16 760.21C526.41 759.95 492.98 747.39 451.8 735.66C426.36 728.42 398.69 715.92 394.53 713.84C431.78 719.16 495.36 731.2 511.25 733.48C525.47 735.53 531.62 741.21 540.7 743.03Z" />
		<path id="Path 82" class="shp55" d="M654.16 748.13C652 755.51 640 791.61 614.61 815.14C606.45 822.7 597.9 828.35 589.26 832.54C587.28 833.49 585.25 834.4 583.26 835.18C564.35 842.86 545.09 844.03 527.78 843.42C507.7 842.69 480.32 835.78 450.44 809.57C420.61 783.41 394.53 719.59 394.53 713.84C394.53 710.56 400.01 716.95 402.86 718.16C405.75 719.37 413.48 742.69 433.26 762.12C461.07 789.49 491.2 803.27 539.87 806.55C569.7 808.54 592.2 803.14 606.62 794.63C608.44 793.55 610.12 792.47 611.67 791.31C629.68 777.88 651.36 753.57 654.16 748.13ZM654.34 746.96C653.69 745.88 653.3 745.24 653.13 744.85C653.52 745.45 654.16 746.58 654.34 746.96ZM654.21 748.04C654.29 747.65 654.38 747.35 654.42 747.14C654.51 747.26 654.42 747.61 654.21 748.04Z" />
		<path id="Path 83" class="shp54" d="M654.16 748.13C652 755.51 640 791.61 614.61 815.14C606.45 822.7 597.9 828.35 589.26 832.54C587.28 833.49 585.25 834.4 583.26 835.18C589.48 828.74 596.73 820.75 599.28 817.39C602.52 813.11 606.97 808.32 607.96 802.84C608.48 800.07 607.83 797.27 606.62 794.63C608.44 793.55 610.12 792.47 611.67 791.31C629.68 777.88 651.36 753.57 654.16 748.13ZM654.34 746.96C653.69 745.88 653.3 745.24 653.13 744.85C653.52 745.45 654.16 746.58 654.34 746.96ZM654.21 748.04C654.29 747.65 654.38 747.35 654.42 747.14C654.51 747.26 654.42 747.61 654.21 748.04Z" />
		<path id="Path 84" class="shp56" d="M498.78 805.71C492.71 804.13 484.98 797.69 484.42 808.25C484.23 811.92 485.91 816.05 487.51 819.75C495.22 827.37 508.21 830.48 518.63 829.95C530.97 829.32 543.79 816.47 526.89 810.66C517.78 807.53 508 808.11 498.78 805.71Z" />
		<path id="Path 85" class="shp52" d="M545.94 664.07C544.35 662.63 542.74 661.21 541.05 659.89C535.18 655.3 527.39 651.9 520.36 654.37C517.02 655.55 514.26 657.92 511.7 660.36C508.48 663.44 505.25 667.13 505.07 671.59C504.92 675.52 507.19 679.11 509.68 682.15C518.52 692.92 532.15 700.98 546.09 702.67C563.39 704.77 582.45 693.24 596.62 683.08C598.95 681.41 601.32 679.63 602.7 677.12C603.94 674.85 604.25 672.18 604.2 669.59C604.13 665.69 604.12 660.49 601.52 657.33C597.65 659.02 597.05 664.15 594.8 667.72C593.58 669.67 591.79 671.21 589.88 672.5C580.72 678.69 568.08 679.26 558.4 673.92C553.75 671.36 549.9 667.65 545.94 664.07Z" />
		<path id="Path 86" class="shp57" d="M601.61 528.41C571.24 564.4 573.42 618.81 586.38 643.35C599.33 667.9 595.44 671.99 587.81 678.53C580.17 685.08 561.04 696.23 553.4 697.87C545.77 699.5 551.77 705.5 566.49 703.87C581.22 702.23 596.81 693.77 608.26 680.58C613.51 674.54 607.85 653.78 598.04 635.58C593.75 627.63 589.81 611.99 588.22 602.45C582.77 569.72 604.16 525.38 601.61 528.41Z" />
		<path id="Path 87" class="shp58" d="M561.99 563.89C560.73 566 559.97 569.06 559.38 572.12C556.06 589.57 557.41 609.13 559.72 627.23C560.55 633.75 561.58 640.53 563.97 645.27C565.43 648.16 567.82 650.08 569.48 647.7C570.94 645.62 571.06 641.45 571.04 637.87C570.94 618.35 570.85 598.83 570.75 579.31C570.73 575.59 570.7 571.75 569.97 568.32C569.07 564.09 567.16 561.48 565.16 561.48C564.08 561.48 562.98 562.23 561.99 563.89Z" />
		<path id="Path 88" class="shp59" d="M456.66 12.88C377 31.06 293.49 134.3 194.74 239.83C145.08 292.81 96.72 388.49 75.48 468.76C64.9 508.62 61.06 544.67 67.02 569.84C85.02 645.67 256.14 387.89 348.41 287.2C479.89 143.71 574.24 179.2 603.69 182.49C633.13 185.72 645.83 193.93 646.82 131.75C647.43 94.96 647.34 71.91 647.13 59.21C646.99 50.45 646.82 46.65 646.82 46.65C646 45.7 645.09 44.7 644.1 43.67C628.91 28.28 591.51 4.37 527.23 4.37C506.54 4.37 483.07 6.85 456.66 12.88Z" />
		<path id="Path 89" class="shp1" d="M647.73 58.91C647.51 59 647.3 59.13 647.12 59.21C639.14 63.14 632.53 64.05 622.21 60.64C598.07 48.68 570.06 41.6 545.74 42.16C461.34 44.08 430.13 65.29 379.53 104.07C304.18 161.81 274.47 186.79 182.09 324.42C164.7 350.32 119.52 415.95 119.18 454.99C119.05 468.55 121.77 482.11 123.97 495.49C124.36 497.87 125.22 502.05 126.13 506.5C102.34 522 85.41 523.43 80.06 500.97C77.73 491.26 76.22 480.42 75.48 468.76C96.72 388.49 145.08 292.81 194.74 239.83C293.49 134.3 377 31.06 456.66 12.88C565.13 -11.9 624.02 23.33 644.1 43.67C645.1 44.7 646 45.7 646.82 46.65C646.82 46.65 647.25 52.43 647.73 58.91Z" />
		<path id="Path 90" class="shp8" d="M646.83 46.66C629.86 27.03 570.63 -13.14 456.65 12.87C376.98 31.04 293.5 134.29 194.72 239.81C120.47 319.13 49.01 494.03 67.01 569.86C85.01 645.68 256.13 387.91 348.42 287.19C479.89 143.72 574.22 179.2 603.67 182.47C633.13 185.74 645.81 193.92 646.83 131.74C647.85 69.57 646.83 46.66 646.83 46.66Z" />
		<path id="Path 91" class="shp60" d="M631.15 164.07C590.06 186.98 603.82 217.27 603.82 217.27C603.82 217.27 681.28 208.66 728.32 267.42C750.58 295.23 771.68 348.42 774.96 377.87C778.23 407.32 776.59 538.22 779.86 587.31C783.14 636.4 788.59 669.12 812.59 701.85C836.59 734.57 845.04 762.66 836.32 797.57C827.59 832.47 796.48 902.72 827.86 942.92C858.41 982.05 878.31 976.87 906.67 974.69C887.04 957.1 846 929.83 867.81 872.02C889.63 814.2 948.94 789.11 930.4 696.39C911.86 603.67 881.32 606.5 863.86 514.22C848.59 433.5 851 334.55 828.14 284.19C792.56 205.86 707.45 158.51 656.5 158.51C646.53 158.5 637.87 160.32 631.15 164.07Z" />
		<path id="Path 92" class="shp61" d="M894.1 740.1C893.73 742.56 892.76 744.39 891.47 745.73C880.79 802.35 828.95 849.42 842.05 911.84C849.44 947.09 873.78 964.99 903.2 974.98C904.34 974.88 905.5 974.78 906.67 974.69C887.04 957.1 846 929.83 867.81 872.02C889.63 814.2 948.94 789.11 930.4 696.39C911.86 603.67 881.32 606.5 863.86 514.22C861.21 500.23 859.1 485.69 857.3 470.95C854.16 493.96 852.44 517.15 854.09 540.28C859.02 609.03 904.84 669.72 894.1 740.1Z" />
		<path id="Path 93" class="shp62" d="M820.8 713.84C820.15 703.24 796.76 656.88 794.59 635.84C782.88 522.15 807.33 448.88 804.9 399.97C803.67 375.25 802.12 350.27 796.04 326.18C794.81 321.3 793.37 316.49 791.82 311.7C790.5 305.67 788.66 296.47 779.2 277.26C766.78 252.97 740.66 219.84 719.32 205.66C683.06 181.54 650.19 179.62 610.1 194.61C608.81 195.1 602.81 204.48 601.62 204.39C601.48 212.08 603.82 217.26 603.82 217.26C603.82 217.26 681.28 208.66 728.32 267.42C750.58 295.23 771.68 348.42 774.96 377.87C778.23 407.32 776.59 538.22 779.87 587.31C783.14 636.4 788.59 669.12 812.59 701.85C815.57 705.91 818.3 709.9 820.8 713.84Z" />
		<path id="Path 94" class="shp63" d="M596.94 220.39L599.21 225.38L604.66 224.78C605.39 224.7 678.49 217.26 722.42 272.15C744.12 299.26 764.44 351.69 767.45 378.71C769.07 393.29 769.46 434.14 769.87 477.38C770.28 519.7 770.7 563.46 772.32 587.82C775.83 640.27 782.07 673 806.5 706.31C830.25 738.71 836.76 764.61 828.98 795.74C827.49 801.73 825.21 809.1 822.81 816.9C811.2 854.53 793.67 911.39 821.91 947.57C845.66 978.01 864.44 983.76 883.72 983.76C889.38 983.76 895.09 983.26 900.98 982.75C903.03 982.57 905.12 982.39 907.25 982.23L924.9 980.87L911.71 969.07C909.85 967.4 907.8 965.64 905.63 963.78C885.09 946.22 856.96 922.17 874.88 874.69C881.63 856.81 892.1 842.3 903.18 826.93C926.67 794.36 950.96 760.69 937.81 694.91C928.38 647.74 915.78 624.48 903.61 601.99C891.39 579.42 879.85 558.1 871.28 512.82C865.33 481.38 862.08 446.99 858.94 413.74C857.99 403.68 857.05 393.73 856.05 383.99C854.19 413.56 852.04 442.94 853.24 472.73C853.85 487.82 855.13 502.83 856.86 517.78C865.84 563.9 878.27 586.94 890.32 609.18C902.5 631.68 914 652.93 922.99 697.88C934.85 757.19 913.52 786.77 890.92 818.09C879.75 833.58 868.2 849.6 860.74 869.35C841.56 920.19 867.21 949.82 888.07 968.54C869.82 969.31 855.18 965.64 833.82 938.27C810.43 908.31 825.93 858.05 837.25 821.35C839.72 813.35 842.05 805.79 843.65 799.4C852.53 763.86 845.06 733.35 818.68 697.38C796.46 667.06 790.71 636.36 787.4 586.81C785.81 562.88 785.39 519.34 784.99 477.24C784.57 433.6 784.17 392.38 782.47 377.04C779.17 347.4 757.84 292.21 734.22 262.7C695.94 214.88 639.57 209.22 615.03 209.22C612.9 209.22 611 209.27 609.38 209.33C608.68 205.03 608.74 198.4 612.73 191.01C607.65 190 602.47 189.3 597.24 188.81C590.61 205.86 596.84 220.16 596.94 220.39Z" />
		<path id="Path 95" class="shp64" d="M853.24 472.73C853.85 487.82 855.13 502.83 856.86 517.78C865.84 563.9 878.27 586.94 890.32 609.18C902.5 631.68 914 652.93 922.99 697.88C934.85 757.19 913.52 786.77 890.92 818.09C879.75 833.58 868.2 849.6 860.74 869.35C841.56 920.19 867.21 949.82 888.07 968.54C869.82 969.31 855.18 965.64 833.82 938.27C827.39 930.03 823.97 920.23 822.53 909.62C821.77 912.3 821.1 915.02 820.58 917.78C819.08 925.76 818.24 933.74 817.87 941.72C819.11 943.72 820.43 945.68 821.91 947.57C845.66 978.01 864.44 983.76 883.72 983.76C889.38 983.76 895.09 983.26 900.98 982.75C903.03 982.57 905.12 982.39 907.25 982.23L924.9 980.87L911.71 969.07C909.85 967.4 907.8 965.64 905.63 963.78C885.09 946.22 856.96 922.17 874.88 874.69C881.63 856.81 892.1 842.3 903.18 826.93C926.67 794.36 950.96 760.69 937.81 694.91C928.38 647.74 915.78 624.48 903.61 601.99C891.39 579.42 879.85 558.1 871.28 512.82C865.33 481.38 862.08 446.99 858.94 413.74C857.99 403.68 857.05 393.73 856.05 383.99C854.19 413.56 852.04 442.94 853.24 472.73Z" />
		<path id="Path 96" class="shp65" d="M636.09 62.83C634.81 63.85 633.46 64.61 632.08 65.24C632.51 68.3 632.39 71.34 631.18 74.17C629.19 78.81 624.67 81.87 620.05 83.9C615.43 85.94 610.47 87.24 606.1 89.77C604.58 90.66 603.09 91.74 602.28 93.3C601.44 94.91 601.44 96.81 601.46 98.63C601.53 105.08 601.6 111.52 601.67 117.97C601.7 120.68 601.29 124.06 598.74 124.98C595.08 126.29 588.18 120.69 584.55 119.35C580.31 117.78 575.99 116.42 571.64 115.19C562.49 112.62 553.14 110.74 543.7 109.56C521.85 106.82 499.66 107.83 477.95 111.34C445.26 116.63 413.6 127.35 383.26 140.43C380.97 141.42 378.77 142.37 376.52 143.41C374.23 144.4 371.99 145.4 369.7 146.48C367.8 147.34 365.86 148.25 363.96 149.2C245.43 206.41 247.72 290.48 191.89 340.78C143.14 384.69 31.48 459.69 31.48 569.76C31.48 571.35 31.53 572.95 31.57 574.55C32.17 600.02 37.74 623.95 46.38 646.4C77.77 728.44 149.23 791.14 165.72 839.28C165.85 839.71 166.03 840.14 166.16 840.53C170.91 854.95 171.38 866.4 169.09 876.59C161.67 909.66 124.49 929.74 104.63 995.07C85.84 1056.81 112.53 1092.18 129.11 1107.2C129.97 1107.03 172.24 1089.41 174.1 1088.64C159.03 1076.81 147.85 1059.66 153.72 1027.84C166.8 956.64 209.38 958.97 232.26 900.85C275.53 790.96 164.64 777.06 145 674.42C125.35 571.79 214.26 549.12 255.19 519.67C296.08 490.22 343.49 454.08 366.42 369.71C389.35 285.38 408.95 244.67 462.97 216.81C516.94 189.01 593.84 216.81 593.84 216.81C610.33 221.22 631.42 207.67 639.09 193.77C645.75 181.7 652.54 169.42 656.05 155.99C658.67 145.99 656.69 135.51 658.48 125.43C659.98 117.07 665.25 110.01 666.63 101.69C667.3 97.66 666.78 93.53 665.93 89.54C663.51 78.22 658.16 67.58 650.73 58.71C648.34 55.86 645.66 53.27 642.86 50.82C642.27 55.36 640.12 59.62 636.09 62.83Z" />
		<path id="Path 97" class="shp66" d="M663.79 89.46C663.87 86.37 663.59 83.27 662.92 80.25C660.99 71.45 655.05 66.27 650.74 58.71C648.22 54.31 641.87 48.94 637.49 46.69C641.59 48.8 636.47 68.5 635.34 71.3C625.09 68.13 614.44 66.22 603.72 65.64C601.38 65.51 598.23 66.13 598.1 68.47C598.03 69.75 599.02 70.83 599.96 71.71C607.96 79.18 618.05 85.53 621.58 95.89C625.62 107.8 618.61 117.63 618.28 129.12C617.96 140.14 619.96 151.18 618.1 162.15C614.2 185.12 601.05 202.18 583.52 213.6C590.03 215.44 593.84 216.81 593.84 216.81C610.33 221.22 631.42 207.67 639.09 193.77C643.69 185.44 648.09 177.27 651.21 168.34C653.85 160.79 655.45 151.37 659.99 144.72C665.99 135.93 677.8 133.63 686.57 127.59C687.17 127.17 687.79 126.7 688.06 126.02C688.71 124.37 687.02 122.78 685.48 121.91C679.6 118.57 672.79 116.91 666.04 117.18C664.25 117.26 662.35 117.44 660.78 116.59C658.58 115.41 657.78 112.55 658.14 110.08C658.49 107.61 659.75 105.38 660.75 103.09C662.65 98.8 663.65 94.14 663.79 89.46Z" />
		<path id="Path 98" class="shp62" d="M506.2 164.24C369.81 181.57 361.98 332.77 341.9 384.42C326.62 423.69 318.2 437.63 293.9 464.05C270.37 489.62 239.63 511.68 213.45 534.24C204.25 542.17 196.55 550.45 190.22 559.36C212.65 543.11 238.09 531.98 255.17 519.68C296.08 490.23 343.51 454.09 366.42 369.72C389.33 285.36 408.96 244.65 462.96 216.83C516.95 189.01 593.86 216.83 593.86 216.83C600.54 218.62 607.8 217.03 614.06 214.46C616.18 213.6 633.52 206.51 633.52 204.93C636.61 203.4 639.75 201.83 642.37 199.58C631.51 197.68 612.93 179.62 581.06 169.66C549.59 159.82 531.77 160.99 506.2 164.24Z" />
		<path id="Path 99" class="shp1" d="M383.22 140.47C357.05 161.5 335.59 187.63 322.25 220.53C303.34 267.2 305.41 321.44 274.79 362.93C230.92 422.43 172.55 439.31 105.58 499.46C83.04 519.67 67.1 545.23 64.64 575.46C62.51 601.42 72.19 650.31 103.28 692.03C146.38 749.88 165.14 804.18 166.16 840.53C166.03 840.14 165.85 839.71 165.72 839.28C149.23 791.14 77.77 728.44 46.38 646.4C37.79 622 32.22 597.69 31.57 574.55C31.53 572.95 31.48 571.35 31.48 569.76C31.48 459.69 143.14 384.69 191.89 340.78C247.72 290.48 245.43 206.41 363.96 149.2C365.86 148.25 367.8 147.34 369.7 146.48C371.99 145.4 374.24 144.4 376.52 143.41C378.77 142.37 380.97 141.42 383.22 140.47Z" />
		<path id="Path 100" class="shp67" d="M187.33 334.69C187.16 334.84 187.01 335.01 186.83 335.17C179.93 341.39 171.53 348.42 162.64 355.86C107.4 402.1 23.93 471.99 23.93 569.76C23.93 651.38 73.4 717.24 113.15 770.16C115.5 773.29 119.03 777.37 123.15 782.11C122.5 775.65 121.46 769.25 119.58 763.04C116.81 753.85 111.67 745.74 106.71 737.56C72.01 691.57 39.04 634.76 39.04 569.76C39.04 479.04 119.26 411.89 172.34 367.45C181.34 359.91 189.84 352.8 196.95 346.39C210.79 333.93 221.11 319.65 230.44 304.36C216.38 315.11 202.23 325.83 187.33 334.69Z" />
		<path id="Path 101" class="shp68" d="M459.5 210.1C402.27 239.61 382.28 282.57 359.13 367.73C336.23 451.99 286.84 487.57 250.78 513.54C243.22 518.97 233.68 524.32 223.56 529.99C180.15 554.33 120.7 587.67 137.58 675.84C146.11 720.44 171.21 749.16 193.35 774.51C204.94 787.77 215.61 800 223.21 813.23C230.15 823.27 235.29 834.42 237.71 847.14C240.65 862.53 238.26 881.73 234.31 896.29C238.84 889.01 242.96 876.98 245.32 868.62C249.4 854.23 248.72 840.61 245.76 827.2C238.37 803.1 221.81 784.12 204.73 764.57C182.83 739.5 160.19 713.58 152.42 673C137.59 595.52 184.67 581.05 228.43 556.51C238.92 550.63 248.83 545.07 257.08 539.14C294.98 511.84 349.41 461.13 373.71 371.69C395.65 290.98 414.25 250.43 466.42 223.53C516.78 197.59 590.53 223.66 591.27 223.92L591.89 224.11C605.47 227.73 622.85 221.25 635.84 209.54C630.59 208.42 625.28 207.7 619.65 208.25C614.77 208.73 610.62 209.41 605.98 209.16C602.32 210.07 598.89 210.27 596.06 209.58C591.81 208.08 558.75 196.84 521.06 196.84C500.62 196.84 478.82 200.15 459.5 210.1Z" />
		<path id="Path 102" class="shp1" d="M753.92 212.83C781.98 234.2 795.68 275.33 806.59 308.6C809.32 276.42 805.85 220.63 786.96 196.84C767.85 172.79 753.25 163.09 719.87 150.18C666.93 129.71 649.47 163.56 654.76 172.94C658.46 179.48 678.35 178.66 684.69 180.03C709.86 185.47 733.49 197.26 753.92 212.83ZM531.43 131.33C510.92 129.75 490.27 129.91 469.78 131.81C498.53 112.92 534.44 108.1 568.82 109.38C575.9 109.64 583.06 110.16 589.78 112.39C596.5 114.62 602.83 118.73 606.45 124.82C608.9 128.94 609.99 133.72 610.77 138.45C611.48 142.73 614.85 167.66 608.45 168.52C605.4 168.93 601.05 160.89 599.55 159.06C596.35 155.16 592.8 151.65 588.75 148.63C572.44 136.45 551.25 132.87 531.43 131.33Z" />
		<path id="Path 103" class="shp69" d="M629.33 1017.24C624.23 1019.78 607.65 1042.6 580.24 1064.69C553.4 1086.32 530.34 1097.41 527.07 1102.73C523.79 1108.05 546.29 1192.31 589.24 1170.22C632.19 1148.13 639.56 1120.32 641.6 1116.64C643.65 1112.96 643.65 1057.32 643.65 1041.37C643.65 1031.08 642.12 1016.01 633.83 1016.01C632.51 1016.01 631.02 1016.39 629.33 1017.24Z" />
		<path id="Path 104" class="shp70" d="M629.33 1017.24C625.5 1019.15 615.16 1032.54 598.61 1048.45C601.03 1068.14 600.57 1088.42 601.76 1108.1C602.88 1126.54 602.66 1144.9 601.34 1163.23C633.57 1142.65 639.77 1119.94 641.6 1116.64C643.65 1112.96 643.65 1057.32 643.65 1041.37C643.65 1031.08 642.12 1016.01 633.83 1016.01C632.51 1016.01 631.02 1016.39 629.33 1017.24Z" />
		<path id="Path 105" class="shp71" d="M643.65 1041.58L643.65 1041.37C643.65 1029.44 641.6 1011.1 629.33 1017.23C624.23 1019.78 607.65 1042.6 580.24 1064.69C553.4 1086.32 530.34 1097.41 527.06 1102.73C525.65 1105.03 529.07 1122.13 536.88 1139C577.83 1113.3 617.23 1082.25 643.65 1041.58Z" />
		<path id="Path 106" class="shp72" d="M629.33 1017.24C625.42 1019.19 614.73 1033.07 597.6 1049.4C597.64 1051.13 597.66 1052.87 597.74 1054.59C598.12 1058.51 598.37 1062.43 598.49 1066.35C599.15 1074.96 599.89 1083.51 599.91 1092.12C616.49 1077.03 631.46 1060.34 643.65 1041.58L643.65 1041.37C643.65 1029.44 641.6 1011.1 629.33 1017.24Z" />
		<path id="Path 107" class="shp11" d="M629.33 1017.24C624.23 1019.78 607.65 1042.6 580.24 1064.69C553.4 1086.32 530.34 1097.41 527.06 1102.73C523.79 1108.05 546.29 1192.31 589.24 1170.22C632.19 1148.13 639.56 1120.32 641.6 1116.64C643.65 1112.96 643.65 1057.32 643.65 1041.37C643.65 1029.44 641.6 1011.1 629.33 1017.24Z" />
		<path id="Path 108" class="shp26" d="M584.98 1070.57C602.31 1056.61 615.35 1042.44 623.98 1033.06C627.5 1029.23 631.49 1024.91 632.87 1023.92C633.04 1023.83 633.2 1023.77 633.32 1023.72C634.3 1025.29 636.09 1030.39 636.09 1041.37C636.09 1045.38 636.08 1049.13 636.07 1052.72C638.63 1049.85 641.25 1047.05 643.93 1044.3C646.23 1041.63 648.66 1039.06 651.07 1036.48C650.45 1022.84 647.16 1014.28 641.02 1010.49C638.5 1008.93 633.19 1006.86 625.95 1010.48L625.95 1010.48C622.88 1012.02 619.9 1015.18 612.86 1022.83C604.53 1031.88 591.95 1045.55 575.5 1058.8C561.36 1070.2 548.2 1078.66 538.59 1084.85C527.81 1091.78 522.94 1095.01 520.63 1098.77C515.16 1107.66 528.91 1148.59 545.99 1167.03C554.83 1176.58 564.85 1181.43 575.25 1181.43C581 1181.43 586.86 1179.95 592.7 1176.95C593.86 1176.35 594.9 1175.74 596.01 1175.13C595.09 1174.4 594.13 1173.71 593.22 1172.95C589.98 1170.27 587.11 1167.32 584.52 1164.08C577.14 1167.48 570.55 1167.06 563.89 1162.67C545.79 1150.74 535.17 1115.4 534.35 1105.97C536.68 1104.04 541.99 1100.63 546.77 1097.56C556.66 1091.19 570.22 1082.47 584.98 1070.57Z" />
		<path id="Path 109" class="shp73" d="M328.81 975.1C321.72 982.74 304.26 1043.28 304.26 1043.28C304.26 1043.28 333.71 1073.14 346.26 1083.5C358.8 1093.87 410.75 1141.86 478.39 1162.04C546.02 1182.22 568.24 1179.63 573.7 1175.27C579.15 1170.91 574.79 1156.18 573.7 1145.27C572.61 1134.36 564.97 1105.46 532.25 1084.73C499.52 1064.01 442.39 1036.73 416.21 1020.92C392.39 1006.53 345.45 974.09 331.83 974.09C330.47 974.09 329.45 974.41 328.81 975.1Z" />
		<path id="Path 110" class="shp71" d="M573.7 1145.27C572.61 1134.36 564.97 1105.46 532.25 1084.73C499.52 1064 442.39 1036.73 416.21 1020.92C390.03 1005.1 335.9 967.47 328.81 975.1C326.31 977.79 322.53 987.05 318.68 997.9C339.15 1018.37 369.05 1033.52 392.89 1047.5C422.9 1065.1 454.94 1078.09 484.93 1095.77C509.9 1110.49 538.91 1128.02 541.38 1157.54C541.84 1163.04 541.37 1171.58 543.02 1178.32C557.85 1179.69 570.96 1177.46 573.7 1175.27C579.15 1170.9 574.79 1156.18 573.7 1145.27Z" />
		<path id="Path 111" class="shp11" d="M304.26 1043.28C304.26 1043.28 321.72 982.74 328.81 975.1C335.9 967.47 390.03 1005.1 416.21 1020.92C442.39 1036.73 499.52 1064 532.25 1084.73C564.97 1105.46 572.61 1134.36 573.7 1145.27C574.79 1156.18 579.15 1170.9 573.7 1175.27C568.24 1179.63 546.02 1182.22 478.39 1162.04C410.75 1141.86 358.8 1093.87 346.26 1083.5C333.71 1073.14 304.26 1043.28 304.26 1043.28Z" />
		<path id="Path 112" class="shp26" d="M582.36 1152.61C581.92 1149.83 581.47 1147.07 581.22 1144.52C580.54 1137.79 575.21 1103 536.29 1078.35C517.49 1066.44 490.5 1052.27 466.69 1039.77C448.47 1030.21 431.27 1021.19 420.12 1014.45C414.71 1011.18 408.09 1006.97 400.95 1002.43C349.26 969.54 331.79 960.77 323.27 969.96C320.44 973.01 316.78 981.22 313.02 991.28C314.53 993.15 315.98 995.07 317.43 996.98C319.23 998.87 321.02 1000.76 322.77 1002.69C323.35 1003.2 323.89 1003.75 324.45 1004.27C328.05 993.85 331.27 985.49 333.33 981.79C343.4 983.73 375.27 1004 392.84 1015.18C400.09 1019.79 406.81 1024.07 412.3 1027.38C423.84 1034.35 441.24 1043.49 459.66 1053.16C483.22 1065.52 509.92 1079.53 528.2 1091.11C561.91 1112.46 565.84 1142.65 566.18 1146.02C566.46 1148.84 566.95 1151.91 567.44 1155C568.12 1159.23 569.34 1166.89 568.63 1169.52C567.09 1170.15 560.59 1171.99 541.76 1169.31C542.12 1174.44 542.31 1179.58 542.66 1184.71C548.55 1185.45 553.83 1185.84 558.43 1185.84C567.84 1185.84 574.52 1184.28 578.42 1181.17C585.97 1175.13 584.13 1163.68 582.36 1152.61Z" />
		<path id="Path 113" class="shp74" d="M60.32 1153.45C60.32 1153.45 87.77 1168.45 117.18 1195.58C158.48 1233.67 170.36 1284.35 176.09 1290.9C181.82 1297.44 166.82 1244.81 148.27 1213.99C132.48 1187.75 88.55 1143.64 78.73 1140.36C68.91 1137.09 60.32 1153.45 60.32 1153.45Z" />
		<path id="Path 114" class="shp75" d="M600.62 1174.48C611.81 1171.94 620.84 1161.99 628.58 1154.02C635.7 1146.69 641.17 1137.89 646.28 1128.96C645.3 1125.13 643.86 1121.43 641.87 1118.01C640.36 1115.42 638.27 1112.85 635.67 1111.57C623.19 1131.03 607.77 1155.54 584.3 1161.66C584.76 1162.89 585.63 1164.13 586.56 1165.02C590.54 1168.88 595.11 1172.08 600.01 1174.67C600.22 1174.61 600.41 1174.53 600.62 1174.48Z" />
		<path id="Path 115" class="shp76" d="M316.02 1037.22C312.74 1044.02 307.02 1049.62 300.14 1052.74C299.22 1053.15 298.21 1053.6 297.79 1054.52C297.3 1055.6 297.86 1056.86 298.46 1057.9C302.71 1065.28 308.86 1071.35 315.14 1077.11C336.96 1097.13 361.11 1114.41 385.2 1131.64C398.56 1141.19 412.01 1150.8 426.81 1157.94C438.79 1163.72 451.49 1167.8 464.15 1171.87C486.52 1179.05 508.99 1186.26 532.19 1189.95C533.79 1190.2 535.47 1190.43 536.98 1189.85C540.33 1188.55 541.03 1184.19 541.21 1180.59C541.46 1175.52 541.66 1170.2 539.46 1165.62C537.64 1161.83 534.37 1158.97 531.11 1156.3C506.83 1136.43 479.05 1121.36 451.46 1106.42C432.62 1096.22 413.76 1086.01 394.21 1077.25C373.87 1068.14 352.4 1060.36 335.46 1045.89" />
		<path id="Path 116" class="shp77" d="M274.58 848.62C277.94 869.47 273.01 891.53 261.09 908.96C253.92 919.43 244.49 928.11 235.37 936.92C220.36 951.41 205.76 966.77 195.95 985.17C186.14 1003.58 181.5 1025.56 187.37 1045.57C185.08 1040.4 188.15 1034.49 191.56 1029.97C208.51 1007.45 234.88 994.51 259.09 980.07C283.3 965.63 307.69 946.93 315.48 919.84C322.83 894.32 313.4 866.31 297.22 845.25C284.68 828.92 268.33 815.48 251.46 803.84C264.18 814.72 271.96 832.37 274.58 848.62Z" />
		<path id="Path 117" class="shp78" d="M702.62 887.04C694.97 898.53 687.27 910.12 682.15 922.93C677.02 935.74 674.59 950.03 677.85 963.44C685.56 995.14 722.72 1015.83 723.31 1048.45C733.14 1023.61 743.12 996.54 735.88 970.83C732.03 957.15 723.58 945.24 718.43 931.98C713.99 920.53 712.21 908.09 713.01 895.85C713.54 887.7 720.68 873.29 716.98 866.08C711.55 872.24 707.22 880.11 702.62 887.04Z" />
	</g>
</svg>