<svg xmlns="http://www.w3.org/2000/svg" viewBox="0 0 471 299">
	<defs>
		<clipPath clipPathUnits="userSpaceOnUse" id="cp1">
			<path d="M0 0L471 0L471 299L0 299Z" />
		</clipPath>
		<linearGradient id="grd1" gradientUnits="userSpaceOnUse"  x1="231.881" y1="106.261" x2="237.692" y2="217.726">
			<stop offset="0" stop-color="#fe7900"  />
			<stop offset="1" stop-color="#fce300"  />
		</linearGradient>
		<linearGradient id="grd2" gradientUnits="userSpaceOnUse"  x1="338.89" y1="209.091" x2="347.384" y2="288.326">
			<stop offset="0" stop-color="#0062d2"  />
			<stop offset="0.004" stop-color="#0062d2"  />
			<stop offset="0.977" stop-color="#009fff"  />
			<stop offset="1" stop-color="#009fff"  />
		</linearGradient>
		<linearGradient id="grd3" gradientUnits="userSpaceOnUse"  x1="342.533" y1="208.693" x2="351.026" y2="287.929">
			<stop offset="0" stop-color="#0062d2"  />
			<stop offset="0.004" stop-color="#0062d2"  />
			<stop offset="0.977" stop-color="#009fff"  />
			<stop offset="1" stop-color="#009fff"  />
		</linearGradient>
	</defs>
	<style>
		tspan { white-space:pre }
		.shp0 { fill: #80b1bf } 
		.shp1 { fill: #29619f } 
		.shp2 { fill: #9ad5e4 } 
		.shp3 { fill: #3477bf } 
		.shp4 { fill: #4d7bcd } 
		.shp5 { fill: #3076c4 } 
		.shp6 { fill: #8cb7f0 } 
		.shp7 { fill: #e8e8e8 } 
		.shp8 { fill: #ffffff } 
		.shp9 { fill: #294e7e } 
		.shp10 { fill: #1c375a } 
		.shp11 { fill: #092c71 } 
		.shp12 { fill: url(#grd1) } 
		.shp13 { fill: #897468 } 
		.shp14 { fill: #cb0002 } 
		.shp15 { fill: #63717a } 
		.shp16 { fill: url(#grd2) } 
		.shp17 { fill: url(#grd3) } 
	</style>
	<g id="Page 1" clip-path="url(#cp1)">
		<path id="Path 1" class="shp0" d="M110.25 51.2L108.72 52.33C105.52 55.93 103.03 58.88 101.26 61.19L100.52 62.19C99.64 64.28 98.7 66.77 97.73 69.65C97.42 70.76 96.97 72.05 96.39 73.52C94.88 79.73 94 83.18 93.73 83.84C92.57 87.31 91.62 90.75 90.86 94.17L91.4 94.7C91.66 94.79 92.15 94.83 92.86 94.83C93.71 94.83 96.44 93.68 101.06 91.37C105.94 88.88 109.61 86.53 112.05 84.31C112.76 79.33 113.8 74.34 115.18 69.32C117.09 62.57 119.6 56.2 122.71 50.2L120.84 50.2C119.51 51.45 118.47 52.29 117.71 52.73C116.29 53.62 115.56 54.11 115.51 54.2L115.51 54.87C115.2 53.49 115.71 51.94 117.04 50.2C118.47 48.52 119.07 46.96 118.84 45.54C116.45 47.05 113.58 48.94 110.25 51.2ZM112.05 125.94C110.18 126.12 108.78 126.3 107.85 126.47C104.96 127.14 103.52 129.36 103.52 133.14C103.52 133.76 103.74 134.76 104.19 136.13C104.63 137.78 104.85 138.78 104.85 139.13C104.85 139.44 104.63 140.77 104.19 143.13C103.74 145.17 103.52 146.5 103.52 147.12C103.52 149.66 104.41 151.54 106.19 152.79C108.05 154.12 111.05 154.78 115.18 154.78C116.78 154.78 118.4 154.45 120.04 153.79C116.13 144.95 113.47 135.67 112.05 125.94ZM146.02 191.09C141.54 186.6 137.16 181.54 132.9 175.9L130.17 175.43L130.17 174.1C130.35 173.79 130.63 173.5 131.03 173.24C128.06 168.88 125.66 165 123.84 161.58C114.16 162.24 106.39 166.15 100.52 173.3C97.19 177.3 94.71 180.94 93.06 184.23L92.26 185.63C91.82 186.78 91.13 187.94 90.2 189.09C89.31 190.02 88.87 191.8 88.87 194.42C88.87 196.95 90.31 202.35 93.2 210.61C96.17 218.95 98.06 223.44 98.86 224.06C100.19 224.99 102.86 226.26 106.85 227.86C110.94 229.41 113.6 230.59 114.85 231.39C115.02 231.48 117.36 234.41 121.84 240.18C125.79 245.42 128.46 248.04 129.83 248.04C130.46 248.04 133.3 247.26 138.36 245.71C143.07 244.16 146.78 243.38 149.49 243.38C153.48 243.38 157.04 244.53 160.15 246.84C162.23 248.53 164.74 251.37 167.67 255.37C171.27 260.12 173.94 263.41 175.67 265.23C179.13 268.82 183.06 271.53 187.46 273.35C188.26 280.06 192.59 285.17 200.45 288.67L201.78 289.34C208.31 292.01 216.3 293.34 225.76 293.34C230.29 293.34 233.51 293.23 235.42 293L238.75 292.34C241.95 291.41 243.95 289.96 244.75 288.01C243.59 286.32 242.71 284.1 242.08 281.35C241.33 278.37 241.11 275.49 241.42 272.69C241.42 271.76 239.98 269.36 237.09 265.49C234.2 261.63 232.76 258.59 232.76 256.37C232.76 253.04 230.87 248.64 227.1 243.18C224.56 239.67 222.9 237.01 222.1 235.19C208.51 231.94 195.52 226.75 183.13 219.6C169.76 212 157.39 202.5 146.02 191.09ZM264.07 263.36L262.07 260.03C262.07 260.48 261.85 260.7 261.4 260.7C260.56 263.49 258.74 265.72 255.94 267.36C253.23 269.14 251.72 270.69 251.41 272.02C252.03 272.64 252.77 274.24 253.61 276.82C254.36 279.17 254.74 280.68 254.74 281.35L254.81 286.54L255.74 286.68C257.92 286.68 260.03 284.01 262.07 278.68C263.85 273.84 264.73 269.85 264.73 266.69C264.73 265.36 264.51 264.25 264.07 263.36Z" />
		<path id="Path 2" fill-rule="evenodd" class="shp1" d="M116.58 44.07C124.57 36.13 132.88 29.33 141.49 23.69C133.72 32 127.46 40.83 122.71 50.2L120.84 50.2C119.51 51.45 118.47 52.29 117.71 52.73C116.29 53.62 115.56 54.11 115.51 54.2L115.51 54.87C115.2 53.49 115.71 51.93 117.05 50.2C118.47 48.51 119.07 46.96 118.84 45.54C116.45 47.05 113.58 48.94 110.25 51.2L108.72 52.34L116.58 44.07ZM110.92 115.95C111.23 119.86 111.6 123.19 112.05 125.94C110.18 126.12 108.78 126.3 107.85 126.47C104.97 127.14 103.52 129.36 103.52 133.13C103.52 133.76 103.74 134.76 104.19 136.13C104.63 137.78 104.85 138.78 104.85 139.13C104.85 139.44 104.63 140.77 104.19 143.13C103.74 145.17 103.52 146.5 103.52 147.12C103.52 149.65 104.41 151.54 106.19 152.79C108.05 154.12 111.05 154.78 115.18 154.78C116.78 154.78 118.4 154.45 120.04 153.78C121.2 156.4 122.46 159 123.84 161.58C114.16 162.25 106.39 166.15 100.52 173.3C97.19 177.3 94.71 180.94 93.06 184.23L92.26 185.63C91.82 186.78 91.13 187.94 90.2 189.09C89.31 190.02 88.87 191.8 88.87 194.42C88.87 196.95 90.31 202.34 93.2 210.6C96.17 218.95 98.06 223.44 98.86 224.06C100.19 225 102.86 226.26 106.85 227.86C110.94 229.41 113.6 230.59 114.85 231.39C115.02 231.48 117.36 234.41 121.84 240.18C125.79 245.42 128.46 248.04 129.84 248.04C130.46 248.04 133.3 247.26 138.36 245.71C143.07 244.16 146.78 243.38 149.49 243.38C153.48 243.38 157.04 244.53 160.15 246.84C162.23 248.53 164.74 251.37 167.67 255.37C171.27 260.12 173.94 263.41 175.67 265.23C179.13 268.83 183.06 271.53 187.46 273.35C188.26 280.06 192.59 285.17 200.45 288.68L201.78 289.34C174.34 284.19 149.6 272.91 127.57 255.5C102.26 235.34 85.8 210.69 78.21 181.56C69.68 149.32 73.46 115.57 89.53 80.31C92.33 74.32 95.99 68.28 100.52 62.19C99.64 64.28 98.7 66.77 97.73 69.66C97.42 70.76 96.97 72.05 96.39 73.52C94.88 79.74 94 83.18 93.73 83.84C92.57 87.31 91.62 90.75 90.86 94.17L91.4 94.7C91.66 94.79 92.15 94.83 92.86 94.83C93.71 94.83 96.44 93.68 101.06 91.37C105.94 88.88 109.61 86.53 112.05 84.31C110.63 93.77 110.25 104.31 110.92 115.95ZM130.17 175.43L130.17 174.1C130.35 173.79 130.63 173.5 131.03 173.24L132.9 175.9L130.17 175.43Z" />
		<path id="Path 3" fill-rule="evenodd" class="shp2" d="M339.68 66.86C339.9 68.77 340.01 70.1 340.01 70.85C340.01 73.65 341.57 75.58 344.67 76.65C350.8 78.6 354.13 79.78 354.67 80.18L354.73 80.18C362.46 94.57 367.5 110.15 369.86 126.94C370.74 133.34 371.25 139.69 371.39 145.99L371.39 151.12L359.33 146.79C358.13 145.59 356.2 142.37 353.54 137.13C351.36 132.74 348.85 129.74 346.01 128.14C346.01 128.58 345.79 128.81 345.34 128.81L342.68 139C341.57 142.46 338.37 143.33 333.08 141.6C334.68 154.03 335.55 162.38 335.68 166.64C335.77 170.95 332.84 177.72 326.89 186.96C320 176.92 313.23 170.48 306.57 167.64C300.22 165.06 295.71 163.04 293.05 161.58C290.74 160.25 289.74 159.31 290.05 158.78L290.05 154.12L282.72 154.12C280.5 154.43 277.75 154.94 274.46 155.65C271.93 156.41 269.69 156.96 267.73 157.32L260.14 159.31C253.83 161.18 247.48 162.11 241.09 162.11C240.2 162.11 239.04 161.22 237.62 159.45C236.6 158.03 235.89 157.14 235.49 156.78L235.29 156.78C233.34 156.78 231.6 157.01 230.09 157.45C227.43 158.2 226.1 159.43 226.1 161.11C226.1 161.73 228.54 163.4 233.42 166.11C238.18 168.77 240.84 170.11 241.42 170.11C244.75 170.11 248.3 169.62 252.08 168.64C253.99 168.15 257.32 167.09 262.07 165.44C263.4 168.24 264.07 170.79 264.07 173.1C264.07 175.99 263.07 179.39 261.07 183.29C258.32 188.8 254.65 192.18 250.08 193.42C249.28 193.6 245.5 195.71 238.75 199.75C232.4 203.52 228.52 205.41 227.1 205.41C224.08 205.41 218.19 200.97 209.44 192.09C201.89 184.4 197.41 178.12 195.99 173.24C195.85 171.95 195.67 170.75 195.45 169.64C195.54 168.71 196.83 167.24 199.32 165.24C199.89 164.89 200.67 163.96 201.65 162.44C202.85 160.93 203.45 159.94 203.45 159.45C203.45 156.12 198.78 153.61 189.46 151.92L179.8 150.12C176.91 149.28 175.47 148.17 175.47 146.79C175.47 144.39 176.58 141.95 178.8 139.46C181.46 136.36 184.68 134.8 188.46 134.8C190.19 134.8 191.86 135.25 193.45 136.13L199.45 139.46C199.45 138.89 199.56 138.06 199.78 137L199.85 136.33C196.3 132.56 193.19 128.65 190.52 124.61C189.15 125.1 186.86 126.1 183.66 127.61C178.73 130.09 175.11 131.6 172.8 132.14C168.18 133.02 165.54 134.91 164.88 137.8C164.7 138.95 164.9 141.51 165.48 145.46C164.76 145.46 164.16 145.35 163.68 145.13L163.01 144.79C162.66 144.66 162.21 144.39 161.68 143.99C160.48 143.11 159.3 142.93 158.15 143.46L157.81 144.26C157.59 144.53 157.48 145.04 157.48 145.79C157.48 147.52 159.26 150.26 162.81 153.99L164.81 156.12L162.68 154.78C158.59 152.21 155.86 150.37 154.48 149.26C151.37 146.28 150.15 143.02 150.82 139.46C147.58 139.6 145.42 139.53 144.36 139.26C142.54 139 141.36 137.73 140.83 135.47C139.67 136.36 137.85 138.06 135.36 140.6C132.03 144.37 130.08 146.5 129.5 146.99C126.17 150.32 123.02 152.59 120.04 153.79C116.13 144.95 113.47 135.67 112.05 125.94L112.71 125.81C115.02 125.45 117.07 124.9 118.84 124.14C119.51 126.81 120.69 128.69 122.37 129.8C123.8 130.92 125.95 131.47 128.84 131.47C129.5 131.47 131.19 130.92 133.9 129.8C136.43 128.69 138.52 128.14 140.16 128.14C140.16 125.52 138.74 123.45 135.9 121.94C132.43 120.52 130.08 119.48 128.84 118.81C129.32 117.79 129.77 117.17 130.17 116.95C130.35 116.86 130.79 116.82 131.5 116.82C132.12 116.82 133.12 117.04 134.5 117.48C136.05 117.93 137.05 118.15 137.5 118.15C138.12 118.15 144.67 114.31 157.15 106.62L164.81 101.96C171.34 98.19 176.67 95.32 180.8 93.37C180.71 92.35 180.66 90.84 180.66 88.84C180.49 88.71 180.26 88.64 180 88.64L176.13 88.17C175.25 88.17 172.8 89.35 168.81 91.7L163.34 94.97L160.81 96.17C159.92 95.28 159.48 94.17 159.48 92.84C159.48 91.81 160.66 90.64 163.01 89.3C162.79 86.11 162.45 84.51 162.01 84.51L158.15 84.84C156.73 84.84 155.39 84.02 154.15 82.38C153.26 81.22 152.82 80.38 152.82 79.85C152.82 79.31 154.66 77.54 158.35 74.52C162.74 70.74 166.23 66.86 168.81 62.86C170.8 59.48 172.69 57.15 174.47 55.87C175.89 54.76 177.44 54.2 179.13 54.2C182.11 54.2 185.28 55.42 188.66 57.86C196.92 58.09 204.76 55.75 212.17 50.87C207.73 52.38 209.84 49.72 218.5 42.88C227.21 36.04 232.03 33.53 232.96 35.35C234.47 33.57 234.47 32.2 232.96 31.22C234.56 27.18 238.78 24.56 245.62 23.36C245.97 22.91 246.41 22.54 246.95 22.23L254.74 20.23C254.74 19.92 254.63 19.21 254.41 18.1C254.19 17.39 254.08 16.65 254.08 15.9C254.08 13.41 255.47 11.97 258.27 11.57L267.4 10.9L273.39 9.04C293.25 16.1 311.34 27.78 327.69 44.08C332.48 48.96 336.99 54.11 341.21 59.53L341.01 59.73C339.9 61.02 339.35 62.17 339.35 63.19C339.35 64.13 339.46 65.35 339.68 66.86ZM237.42 37.68L237.49 37.75L237.49 37.88C237.75 38.01 237.91 38.12 237.95 38.21C240.8 40.43 242.28 41.54 242.42 41.54C241.17 34.31 239.73 31.91 238.09 34.35L237.82 35.02L237.42 37.08L237.42 37.68ZM244.08 94.63C244.08 95.03 243.64 96.61 242.75 99.36C241.86 101.98 241.42 103.92 241.42 105.16C241.42 106.45 241.86 107.67 242.75 108.82C252.79 108.51 258.41 108.84 259.61 109.82C259.96 110.18 260.14 110.55 260.14 110.95C260.4 111.31 261.27 111.49 262.74 111.49C263.85 111.49 264.51 111.09 264.73 110.29L264.73 107.29C264.73 104.76 262.74 98.16 258.74 87.51C256.79 86.57 253.79 87.28 249.75 89.64C245.97 91.77 244.08 93.43 244.08 94.63ZM117.51 73.52C116.05 78.54 114.27 82.09 112.18 84.18L112.05 84.31C112.76 79.34 113.8 74.34 115.18 69.32C117.09 62.57 119.6 56.2 122.71 50.2L124.17 50.2C124.31 50.83 123.6 52.71 122.04 55.87C120.35 59.06 119.51 61.06 119.51 61.86C119.51 65.24 118.84 69.12 117.51 73.52ZM128.17 168.77C129.19 169.08 130.15 169.53 131.03 170.11C131.7 170.68 132.3 171.13 132.83 171.44C131.95 172.28 131.35 172.88 131.03 173.24C128.06 168.88 125.66 165 123.84 161.58C124.55 161.49 125.66 161.45 127.17 161.45C128.33 161.45 128.84 162.33 128.7 164.11L128.17 168.77Z" />
		<path id="Path 4" fill-rule="evenodd" class="shp3" d="M354.73 80.18L354.67 80.18C354.13 79.78 350.8 78.6 344.68 76.65C341.57 75.58 340.01 73.65 340.01 70.85C340.01 70.1 339.9 68.77 339.68 66.86C339.46 65.35 339.35 64.13 339.35 63.19C339.35 62.17 339.9 61.02 341.01 59.73L341.21 59.53C346.32 66.01 350.83 72.9 354.73 80.18ZM302.11 276.15L301.57 276.49C281.86 286.39 260.92 291.67 238.75 292.34C241.95 291.41 243.95 289.96 244.75 288.01C243.6 286.32 242.71 284.1 242.09 281.35C241.33 278.37 241.11 275.49 241.42 272.69C241.42 271.76 239.98 269.36 237.09 265.49C234.2 261.63 232.76 258.59 232.76 256.37C232.76 253.04 230.87 248.64 227.1 243.18C224.57 239.67 222.9 237.01 222.1 235.19C224.45 235.76 226.74 236.21 228.96 236.52C255.21 241.45 278.97 241.45 300.24 236.52C332.44 229.19 355.05 211.16 368.06 182.43C363.66 203.17 354.82 222.15 341.55 239.38C337.33 244.93 332.71 250.2 327.69 255.17C319.83 263.12 311.3 270.11 302.11 276.15ZM255.94 267.36C253.23 269.14 251.72 270.69 251.41 272.02C252.03 272.64 252.77 274.24 253.61 276.82C254.37 279.17 254.74 280.68 254.74 281.35L254.81 286.54L255.74 286.68C257.92 286.68 260.03 284.01 262.07 278.68C263.85 273.84 264.74 269.85 264.74 266.69C264.74 265.36 264.51 264.25 264.07 263.36L262.07 260.03C262.07 260.48 261.85 260.7 261.4 260.7C260.56 263.5 258.74 265.72 255.94 267.36ZM258.27 11.57C255.48 11.97 254.08 13.41 254.08 15.9C254.08 16.65 254.19 17.39 254.41 18.1C254.63 19.21 254.74 19.92 254.74 20.23L246.95 22.23C246.42 22.54 245.97 22.91 245.62 23.36C238.78 24.56 234.56 27.18 232.96 31.22C234.47 32.2 234.47 33.57 232.96 35.35C232.03 33.53 227.21 36.04 218.5 42.88C209.84 49.72 207.73 52.38 212.17 50.87C204.76 55.75 196.92 58.09 188.66 57.86C185.28 55.42 182.11 54.2 179.13 54.2C177.45 54.2 175.89 54.76 174.47 55.87C172.69 57.15 170.81 59.49 168.81 62.86C166.23 66.86 162.75 70.74 158.35 74.52C154.66 77.54 152.82 79.31 152.82 79.85C152.82 80.38 153.26 81.22 154.15 82.38C155.4 84.02 156.73 84.84 158.15 84.84L162.01 84.51C162.46 84.51 162.79 86.11 163.01 89.31C160.66 90.64 159.48 91.81 159.48 92.84C159.48 94.17 159.92 95.28 160.81 96.17L168.81 91.7C172.8 89.35 175.25 88.17 176.13 88.17L180 88.64C180.27 88.64 180.49 88.71 180.67 88.84C180.67 90.84 180.71 92.35 180.8 93.37C176.67 95.32 171.34 98.19 164.81 101.96L157.15 106.62C144.67 114.31 138.12 118.15 137.5 118.15C137.05 118.15 136.05 117.93 134.5 117.48C133.12 117.04 132.12 116.82 131.5 116.82C130.79 116.82 130.35 116.86 130.17 116.95C129.77 117.17 129.33 117.79 128.84 118.81C130.08 119.48 132.43 120.52 135.9 121.95C138.74 123.45 140.16 125.52 140.16 128.14C138.52 128.14 136.43 128.7 133.9 129.81C131.19 130.92 129.5 131.47 128.84 131.47C125.95 131.47 123.8 130.92 122.38 129.81C120.69 128.7 119.51 126.81 118.84 124.14C117.07 124.9 115.03 125.45 112.72 125.81L112.05 125.94C111.61 123.19 111.23 119.86 110.92 115.95C110.25 104.32 110.63 93.77 112.05 84.31L112.18 84.18C114.27 82.09 116.05 78.54 117.51 73.52C118.84 69.12 119.51 65.24 119.51 61.86C119.51 61.06 120.35 59.06 122.04 55.87C123.6 52.71 124.31 50.83 124.17 50.2L122.71 50.2C127.46 40.83 133.72 32 141.49 23.69C144.91 20.98 148.8 18.54 153.15 16.36C156.62 14.81 160.57 13.15 165.01 11.37C174.16 7.51 183.86 4.69 194.12 2.91C203.23 1.22 212.57 0.38 222.17 0.38C240.46 0.38 257.54 3.26 273.4 9.04L267.4 10.9L258.27 11.57ZM237.42 37.08L237.82 35.02L238.09 34.35C239.73 31.91 241.18 34.31 242.42 41.54C242.29 41.54 240.8 40.43 237.96 38.21C237.91 38.12 237.76 38.01 237.49 37.88L237.49 37.75L237.42 37.68L237.42 37.08ZM199.85 136.33L199.78 137C199.56 138.07 199.45 138.89 199.45 139.46L193.46 136.13C191.86 135.25 190.19 134.8 188.46 134.8C184.68 134.8 181.46 136.36 178.8 139.46C176.58 141.95 175.47 144.39 175.47 146.79C175.47 148.17 176.91 149.28 179.8 150.12L189.46 151.92C198.79 153.61 203.45 156.12 203.45 159.45C203.45 159.94 202.85 160.94 201.65 162.45C200.67 163.96 199.9 164.89 199.32 165.24C196.83 167.24 195.54 168.71 195.45 169.64C195.28 169.06 195.05 168.55 194.79 168.11C193.28 165.89 189.95 164.78 184.8 164.78C179.73 164.78 173.74 165.44 166.81 166.78L162.55 167.64L162.35 167.64C158.21 168.71 156.15 169.64 156.15 170.44C156.15 171.11 156.66 172.1 157.68 173.44C158.97 175.12 160.46 176.23 162.15 176.77C161.21 176.77 160.1 176.88 158.81 177.1C157.17 177.32 156.17 177.43 155.82 177.43C152.35 177.43 148.25 177.26 143.49 176.9C139.36 176.63 135.83 176.3 132.9 175.9L131.04 173.24C131.35 172.88 131.95 172.28 132.83 171.44C132.3 171.13 131.7 170.68 131.04 170.11C130.15 169.53 129.19 169.08 128.17 168.77L128.7 164.11C128.84 162.33 128.33 161.45 127.17 161.45C125.66 161.45 124.55 161.49 123.84 161.58C122.46 159 121.2 156.41 120.04 153.79C123.02 152.59 126.17 150.32 129.5 146.99C130.08 146.5 132.04 144.37 135.37 140.6C137.85 138.07 139.67 136.36 140.83 135.47C141.36 137.73 142.54 139 144.36 139.26C145.42 139.53 147.58 139.6 150.82 139.46C150.15 143.02 151.38 146.28 154.48 149.26C155.86 150.37 158.59 152.21 162.68 154.78L164.81 156.12L162.81 153.99C159.26 150.26 157.48 147.52 157.48 145.79C157.48 145.04 157.59 144.53 157.82 144.26L158.15 143.46C159.3 142.93 160.48 143.11 161.68 143.99C162.21 144.39 162.66 144.66 163.01 144.79L163.68 145.13C164.17 145.35 164.77 145.46 165.48 145.46C164.9 141.51 164.7 138.95 164.88 137.8C165.54 134.91 168.19 133.03 172.8 132.14C175.11 131.6 178.73 130.09 183.66 127.61C186.86 126.1 189.15 125.1 190.52 124.61C193.19 128.65 196.3 132.56 199.85 136.33ZM195.99 173.24C195.63 171.9 195.45 170.75 195.45 169.77L195.45 169.64C195.68 170.75 195.85 171.95 195.99 173.24ZM264.74 107.29L264.74 110.29C264.51 111.09 263.85 111.49 262.74 111.49C261.27 111.49 260.41 111.31 260.14 110.95C260.14 110.55 259.96 110.18 259.61 109.82C258.41 108.84 252.79 108.51 242.75 108.82C241.86 107.67 241.42 106.45 241.42 105.16C241.42 103.92 241.86 101.98 242.75 99.36C243.64 96.61 244.08 95.03 244.08 94.63C244.08 93.44 245.97 91.77 249.75 89.64C253.79 87.28 256.79 86.57 258.74 87.51C262.74 98.16 264.74 104.76 264.74 107.29Z" />
		<path id="Path 5" class="shp4" d="M346.01 128.14C346.01 128.58 345.79 128.81 345.34 128.81L342.68 139C341.57 142.46 338.37 143.33 333.08 141.6C334.68 154.03 335.55 162.38 335.68 166.64C335.77 170.95 332.84 177.72 326.89 186.96C320.01 176.92 313.23 170.48 306.57 167.64C300.22 165.06 295.71 163.04 293.05 161.58C290.74 160.25 289.74 159.31 290.05 158.78L290.05 154.12L282.72 154.12C280.5 154.43 277.75 154.94 274.46 155.65C271.93 156.41 269.69 156.96 267.73 157.32L260.14 159.31C253.83 161.18 247.48 162.11 241.09 162.11C240.2 162.11 239.04 161.22 237.62 159.45C236.6 158.03 235.89 157.14 235.49 156.78L235.29 156.78C233.34 156.78 231.6 157.01 230.09 157.45C227.43 158.2 226.1 159.43 226.1 161.11C226.1 161.73 228.54 163.4 233.43 166.11C238.18 168.77 240.84 170.11 241.42 170.11C244.75 170.11 248.3 169.62 252.08 168.64C253.99 168.15 257.32 167.09 262.07 165.44C263.4 168.24 264.07 170.79 264.07 173.1C264.07 175.99 263.07 179.39 261.07 183.29C258.32 188.8 254.65 192.18 250.08 193.42C249.28 193.6 245.51 195.71 238.76 199.75C232.4 203.52 228.52 205.41 227.1 205.41C224.08 205.41 218.19 200.97 209.44 192.09C201.89 184.4 197.41 178.12 195.99 173.24L196.12 176.43C196.12 177.19 195.9 178.3 195.45 179.76C195.01 181.05 194.79 181.94 194.79 182.43C194.79 182.92 197.9 187.96 204.11 197.55C210.78 208.03 215.44 214.43 218.1 216.73C220.01 214.51 221.23 213.07 221.77 212.4C223.94 210.14 225.61 208.92 226.76 208.74C226.76 210.74 226.99 213 227.43 215.54C227.87 218.51 228.1 220.13 228.1 220.4C228.1 220.71 226.99 222.42 224.77 225.53C222.55 228.59 221.43 231.1 221.43 233.05C221.43 233.54 221.66 234.25 222.1 235.19C224.45 235.76 226.74 236.21 228.96 236.52C255.21 241.45 278.97 241.45 300.24 236.52C332.44 229.19 355.05 211.16 368.06 182.43C369.3 177.23 370.19 171.79 370.72 166.11C371.17 161.85 371.39 156.85 371.39 151.12L359.33 146.79C358.13 145.59 356.2 142.37 353.54 137.13C351.36 132.74 348.85 129.74 346.01 128.14Z" />
		<path id="Path 6" class="shp5" d="M72.88 149.66C72.88 162.76 74.39 175.3 77.41 187.29C83.67 212.78 96.73 235.41 116.58 255.17C145.89 284.39 181.09 299 222.17 299C251.7 299 278.17 291.5 301.57 276.49C281.86 286.39 260.92 291.67 238.75 292.34L235.42 293.01C233.51 293.23 230.29 293.34 225.76 293.34C216.3 293.34 208.31 292.01 201.78 289.34C174.34 284.19 149.6 272.91 127.57 255.5C102.26 235.34 85.8 210.7 78.21 181.56C69.68 149.32 73.46 115.57 89.53 80.31C78.43 101.23 72.88 124.34 72.88 149.66Z" />
		<path id="Path 7" class="shp6" d="M132.9 175.9C137.16 181.54 141.54 186.6 146.02 191.09C157.39 202.5 169.76 212 183.13 219.6C195.52 226.75 208.51 231.94 222.1 235.19C221.66 234.25 221.43 233.54 221.43 233.05C221.43 231.1 222.54 228.59 224.77 225.53C226.99 222.42 228.1 220.71 228.1 220.4C228.1 220.13 227.87 218.51 227.43 215.53C226.99 213 226.76 210.74 226.76 208.74C225.61 208.92 223.94 210.14 221.77 212.4C221.23 213.07 220.01 214.51 218.1 216.73C215.44 214.42 210.78 208.03 204.11 197.55C197.9 187.96 194.79 182.92 194.79 182.43C194.79 181.94 195.01 181.05 195.45 179.76C195.9 178.3 196.12 177.19 196.12 176.43L195.99 173.24C195.63 171.9 195.45 170.75 195.45 169.77L195.45 169.64C195.28 169.06 195.05 168.55 194.79 168.11C193.28 165.89 189.95 164.78 184.79 164.78C179.73 164.78 173.74 165.44 166.81 166.77L162.54 167.64L162.35 167.64C158.21 168.71 156.15 169.64 156.15 170.44C156.15 171.1 156.66 172.1 157.68 173.44C158.97 175.12 160.46 176.23 162.15 176.77C161.21 176.77 160.1 176.88 158.81 177.1C157.17 177.32 156.17 177.43 155.82 177.43C152.35 177.43 148.24 177.25 143.49 176.9C139.36 176.63 135.83 176.3 132.9 175.9Z" />
		<path id="Path 8" class="shp7" d="M234.76 34.55C236.45 32.86 236.45 31.49 234.76 30.42C236.45 26.38 240.69 23.76 247.48 22.56C239.75 23.22 232.8 24.63 226.63 26.76C218.77 29.55 211.66 33.75 205.31 39.35C199.01 44.76 194.05 50.72 190.46 57.2C198.85 57.33 206.73 54.96 214.11 50.07C209.53 51.71 211.64 49.09 220.44 42.21C229.1 35.28 233.87 32.73 234.76 34.55Z" />
		<path id="Path 9" class="shp8" d="M323.76 82.98C321.36 65.35 313.12 50.71 299.04 39.08C284.7 27.35 269.04 21.78 252.08 22.36C250.48 22.36 248.95 22.43 247.48 22.56C240.69 23.76 236.45 26.38 234.76 30.42C236.45 31.48 236.45 32.86 234.76 34.55C233.87 32.73 229.1 35.28 220.44 42.21C211.64 49.09 209.53 51.71 214.11 50.07C206.73 54.95 198.85 57.33 190.46 57.2C188.77 60.26 187.5 63.04 186.66 65.52C185.91 67.39 185.2 69.61 184.53 72.18C183.64 75.96 183.02 80.07 182.66 84.51L182.53 88.04C182.53 90.08 182.58 91.61 182.66 92.63C183.15 103.91 186.42 114.31 192.46 123.81C195.12 128.07 198.23 132 201.78 135.6L201.98 135.8C211.97 146.15 223.68 152.87 237.09 155.98L237.42 156.12C243.77 157.49 250.21 158.09 256.74 157.91C261.4 157.78 265.69 157.34 269.6 156.58C271.51 156.27 273.77 155.72 276.39 154.92C288.92 151.28 299.75 144.17 308.9 133.6C321.29 118.81 326.25 101.94 323.76 82.98Z" />
		<path id="Path 10" fill-rule="evenodd" class="shp9" d="M246.28 42.01L246.28 44.01L246.41 44.07C247.88 43.45 249.55 43.28 251.41 43.54C253.05 43.76 254.41 44.65 255.47 46.21C255.88 46.74 256.1 47.29 256.14 47.87C255.96 48.85 255.52 50 254.81 51.34C252.94 54.27 249.03 57.55 243.09 61.19L238.62 63.66C238.18 62.68 237.36 61.31 236.16 59.53L227.63 46.67C227.54 46.49 227.03 45.67 226.1 44.21L223.17 39.88C225.83 38.55 228.1 37.55 229.96 36.88C232.14 35.99 234.09 35.33 235.82 34.88C238.62 34.04 240.89 33.64 242.62 33.68L243.62 33.75C243.88 33.75 244.33 33.84 244.95 34.02C246.64 34.64 247.79 35.48 248.41 36.55C248.59 37.08 248.7 37.57 248.75 38.01C248.53 38.95 247.7 40.28 246.28 42.01ZM234.42 38.41L234.42 41.08L238.15 47.01C238.82 46.43 239.42 45.72 239.95 44.87L240.09 44.67C240.22 44.32 240.35 43.45 240.49 42.08L240.62 41.21C240.62 40.5 240.44 39.72 240.09 38.88L238.95 37.68C238.69 37.46 238.13 37.35 237.29 37.35C236.22 37.44 235.27 37.79 234.42 38.41ZM240.75 48.34L240.75 50.4L244.48 56.53L245.62 55.73L246.41 55L247.28 53.87C247.5 53.42 247.61 53.02 247.61 52.67C247.66 52.31 247.66 51.98 247.61 51.67L247.61 50.54C247.7 50.23 247.7 49.89 247.61 49.54L247.41 48.74C246.66 47.76 245.73 47.21 244.62 47.07C243.33 47.07 242.04 47.49 240.75 48.34ZM230.49 82.04C246.3 72.36 261.61 65.79 276.39 62.33L281.72 73.38C276.93 89.68 275.88 102.23 278.59 111.02L269.13 116.61C264.42 105.6 263.53 94.23 266.47 82.51L266.8 81.31C267.33 79.36 267.78 77.91 268.13 76.98C260.67 78.94 250.39 84.89 237.29 94.83L230.49 82.04Z" />
		<path id="Path 11" class="shp10" d="M242.75 31.68C240.98 31.64 238.71 32.04 235.96 32.88C234.14 33.33 232.18 33.99 230.09 34.88C227.74 35.73 225.08 36.88 222.1 38.35L223.17 39.88C225.83 38.55 228.1 37.55 229.96 36.88C232.14 35.99 234.09 35.33 235.82 34.88C238.62 34.04 240.89 33.64 242.62 33.68L243.62 33.75C243.88 33.75 244.33 33.84 244.95 34.02C246.64 34.64 247.79 35.48 248.41 36.55C248.59 37.08 248.7 37.57 248.75 38.01L248.81 37.55C248.95 36.21 248.81 35.22 248.41 34.55C247.88 33.44 246.73 32.6 244.95 32.02C244.42 31.84 243.97 31.75 243.62 31.75L242.75 31.68ZM256.14 47.87C256.23 47.6 256.28 47.21 256.28 46.67C256.23 45.78 256.01 44.96 255.61 44.21C254.5 42.65 253.12 41.77 251.48 41.54C250.19 41.32 249.01 41.37 247.95 41.68L246.28 42.01L246.28 44.01L246.42 44.07C247.88 43.45 249.55 43.27 251.41 43.54C253.06 43.76 254.41 44.65 255.48 46.21C255.88 46.74 256.1 47.29 256.14 47.87ZM240.49 42.08L240.29 42.68C239.58 43.56 238.96 44.23 238.42 44.67L234.42 38.41L234.42 41.08L238.16 47.01C238.82 46.43 239.42 45.72 239.95 44.87L240.09 44.67C240.22 44.32 240.35 43.45 240.49 42.08ZM247.28 51.87L245.62 53.67C245.35 53.98 244.97 54.22 244.48 54.4L240.75 48.34L240.75 50.4L244.48 56.53L245.62 55.73L246.42 55L247.28 53.87C247.5 53.42 247.62 53.02 247.62 52.67C247.66 52.31 247.66 51.98 247.62 51.67L247.62 50.54L247.28 51.87ZM229.1 79.38L230.49 82.04C246.3 72.36 261.6 65.79 276.39 62.33L281.72 73.32C282.09 71.94 282.49 70.52 282.92 69.05L277.73 58C261.83 61.77 245.62 68.9 229.1 79.38ZM278.59 111.02L280.92 109.62C277.27 101.47 277.5 89.48 281.59 73.65C276.9 89.82 275.9 102.28 278.59 111.02Z" />
		<path id="Path 12" class="shp11" d="M462.92 148.72C462.25 136.33 460.05 126.12 456.32 118.08C452.77 110.13 447.49 103.47 440.47 98.1C428.83 89.13 413.51 85.37 394.5 86.84C386.6 87.46 379.54 89.22 373.32 92.1C366.57 95.3 360.42 99.96 354.87 106.09C342.39 95.88 328.44 90.13 313.03 88.84L305.24 88.64C289.74 88.99 277.3 94.21 267.93 104.29L219.1 94.97L217.1 103.29L212.44 92.83L171.67 102.96L170.87 98.96L107.72 95.63L109.58 102.16C80.01 89.24 43.48 84.84 0 88.97L8.26 235.32C11.99 237.23 16.39 238.92 21.45 240.38C22.83 240.91 31.09 245.4 46.23 253.84C65.42 251.62 81.52 248.46 94.53 244.38C107.67 240.34 114.96 236.83 116.38 233.85L132.83 242.98L176.53 238.72L174.54 231.19L209.44 243.64L213.11 234.32L218.1 242.31L240.62 235.32L229.43 296.27C254.48 298.09 273.93 295.09 287.78 287.28L281.59 294.14L309.7 290.27L306.24 294.27L333.55 288.27L332.02 291.6L375.52 280.61L431.28 277.02L449.8 232.05L439.8 236.18L470.65 198.68L446.93 202.08C452.62 195.46 456.9 187.25 459.79 177.43C462.41 168.28 463.45 158.71 462.92 148.72Z" />
		<path id="Path 13" class="shp8" d="M455.26 174.37C459.26 160.38 459.66 145.97 456.46 131.14C454.95 123.85 451.62 116.95 446.47 110.42C441.18 103.85 433.81 98.81 424.35 95.3C415.6 92.15 406.32 90.81 396.5 91.3C386.73 91.66 378.25 93.66 371.06 97.3C367.46 99.07 364.02 101.67 360.73 105.09C357.71 108.33 355.6 111.51 354.4 114.62C352.8 112.04 350.34 109.31 347.01 106.42C343.14 103.23 339.26 100.78 335.35 99.1C327.36 95.9 318.76 94.03 309.57 93.5C300.33 93.1 292.16 94.26 285.05 96.96C277.73 99.76 272.91 103.98 270.6 109.62C270.47 109.84 254.7 106.69 223.3 100.16L216.64 115.62L208.44 99.16L165.88 108.16L164.34 104.16L115.25 102.09C115.2 106.09 115.07 108.09 114.85 108.09C76.79 92.59 40.84 88.04 7 94.43L14.46 229.72C34.26 229.99 50.36 229.15 62.75 227.19C86.78 223.55 105.14 215.82 117.85 204.01C117.93 203.92 118.38 205.92 119.18 210.01C119.62 211.91 120.02 213.94 120.38 216.07L166.34 216.07L166.81 205.88L203.98 222.2L209.78 207.54L215.84 219.53L249.95 213.07L235.42 293.27C249.5 293 261.85 291.41 272.46 288.48C280.63 286.34 288.34 283.28 295.58 279.28L292.25 287.48L317.03 282.28L316.9 286.68L342.54 279.48L341.21 284.48L372.32 276.49L426.95 271.49L441.67 236.98L427.81 242.18L460.26 205.41L425.28 209.01C429.99 207.23 434.43 204.79 438.61 201.68C446.02 196.17 451.57 187.07 455.26 174.37Z" />
		<path id="Path 14" fill-rule="evenodd" class="shp12" d="M33.7 102.21C40.43 102.21 47.94 102.64 56.22 103.49C72.52 105.22 86.43 108.56 97.93 113.48C103.08 115.88 107.39 120.08 110.85 126.07C111.61 128.56 111.94 131.07 111.85 133.6C111.85 139.86 108.74 144.64 102.52 147.92C97.59 150.54 88.27 153.14 74.55 155.72L78.27 160.25C100.13 164.78 112.05 169.22 114.05 173.57C114.89 175.83 115.38 178.21 115.51 180.7C115.96 188.78 112.74 195.62 105.85 201.21C98.93 206.76 88.16 211.09 73.54 214.2C59.25 217.09 42.48 218.31 23.25 217.87L26.25 217.87L17.12 103.29C21.99 102.57 27.52 102.21 33.7 102.21ZM54.56 144.59C60.47 144.15 64.91 143.53 67.88 142.73C70.32 141.93 71.99 140.88 72.88 139.6C74.08 137.87 74.48 135.69 74.08 133.07C74.17 132.98 74.17 132.94 74.08 132.94L74.08 131.94L73.81 130.94C73.54 130.23 73.08 129.49 72.41 128.74C71.57 127.94 70.5 127.27 69.22 126.74C65.71 125.23 61.15 124.48 55.56 124.48L52.09 124.48L52.23 140.8L54.56 144.59ZM55.56 194.55C71.06 194.24 77.61 190.47 75.21 183.23L73.88 179.9L73.48 179.23C73.39 179.05 73.21 178.83 72.95 178.57C72.28 177.77 71.15 176.99 69.55 176.23C66.35 174.77 61.8 174.04 55.89 174.04L52.43 174.04L52.56 190.76L55.56 194.55ZM406.08 106.05C417.17 106.05 426.32 108.68 433.54 113.95C434.92 115.33 435.72 116.15 435.94 116.42C444.42 125.47 448.75 137.71 448.93 153.12C449.02 167.91 444.75 179.9 436.14 189.09C427.84 198.24 416.89 202.88 403.3 203.01L402.97 203.01C392.88 202.74 383.58 199.22 375.05 192.42C366.44 185.58 361.42 173.9 360 157.38C358.53 141 362.42 128.43 371.65 119.68C380.76 110.98 391.44 106.45 403.7 106.09C404.5 106.06 405.3 106.05 406.08 106.05ZM406.7 185.89C414.65 185.89 421.46 183.05 427.15 177.37C432.79 171.73 435.61 164.95 435.61 157.05C435.61 151.5 434.19 146.46 431.34 141.93C429.92 138.86 427.97 136.09 425.48 133.6C419.89 128.05 413.11 125.27 405.16 125.27C397.26 125.27 390.42 128.05 384.65 133.6C379.09 139.29 376.32 146.1 376.32 154.05C376.32 159.83 377.72 164.89 380.51 169.24C381.85 172.22 383.78 174.92 386.31 177.37C392 183.05 398.79 185.89 406.7 185.89ZM314.95 108C324.35 108 332.11 110.29 338.21 114.88C342.25 118.75 345.7 123.65 348.54 129.6L316.36 143.93C315.74 141.75 314.79 139.91 313.5 138.4C312.43 137.2 311.19 136.38 309.77 135.93C306.93 134.82 304.02 135.27 301.04 137.27C297.8 139.4 295.38 142.62 293.78 146.92C292.05 151.9 291.65 157.45 292.58 163.58C293.38 168.69 295.09 172.75 297.71 175.77C298.38 176.61 299.06 177.37 299.78 178.03C301.82 180.16 304.44 181.92 307.64 183.29C309.19 184.01 310.5 184.2 311.57 183.89C312.5 183.76 313.68 183.23 315.1 182.3C316.12 181.67 317.05 180.65 317.9 179.23L319.89 175.23L317.23 169.37L313.57 169.37L311.57 152.39L351 152.39C351.09 171.39 348.01 185.05 341.74 193.35C334.86 202.59 324.65 207.21 311.1 207.21C302.35 207.21 294.85 205.21 288.58 201.21C286.68 199.79 284.79 197.97 282.92 195.75C275.28 186.78 271.62 174.57 271.93 159.11C272.2 143.79 276.15 131.6 283.79 122.54C291.43 113.57 300.73 108.75 311.7 108.09C312.8 108.03 313.89 108 314.95 108ZM231.63 113.95L260.07 123.08L255.74 204.01L224.83 209.54L206.11 171.5L200.32 168.91L200.32 212.2L175.14 199.95L177.67 119.61L206.65 114.75L222.63 158.25L227.1 159.58L231.63 113.95ZM157.68 119.61L158.35 207.21L132.04 207.21L128.17 119.61L157.68 119.61Z" />
		<path id="Path 15" fill-rule="evenodd" class="shp13" d="M403.7 106.09C391.44 106.45 380.76 110.97 371.66 119.68C362.42 128.43 358.53 141 360 157.38C361.42 173.9 366.44 185.58 375.05 192.42C383.58 199.21 392.88 202.74 402.97 203.01C390.71 203.01 380.23 199.46 371.52 192.35C360.51 183.38 354.96 169.95 354.87 152.05C354.82 134.87 360.44 121.79 371.72 112.82C380.25 106.11 390.24 102.76 401.7 102.76C414.76 102.76 425.37 106.49 433.54 113.95C425.81 108.31 415.87 105.69 403.7 106.09ZM384.65 174.43C390.37 180.07 397.21 182.89 405.16 182.89C413.16 182.89 419.93 180.07 425.48 174.43C431.12 168.88 433.94 162.09 433.94 154.05C433.94 149.48 433.08 145.44 431.34 141.93C434.19 146.46 435.61 151.5 435.61 157.05C435.61 164.95 432.79 171.73 427.15 177.37C421.46 183.05 414.65 185.89 406.7 185.89C398.79 185.89 392 183.05 386.31 177.37C383.78 174.92 381.85 172.21 380.52 169.24C381.63 171.06 383 172.79 384.65 174.43ZM426.48 142.53C425.95 141.82 425.28 141.06 424.48 140.26L424.28 140.06C419.35 135.18 413.38 132.73 406.36 132.73C399.43 132.73 393.48 135.18 388.51 140.06C383.85 144.77 381.4 150.32 381.18 156.72C381.31 160.71 382.36 164.35 384.31 167.64C381.34 163.87 379.78 159.45 379.65 154.38C379.78 147.99 382.23 142.44 386.98 137.73C391.82 132.85 397.77 130.4 404.83 130.4C411.8 130.4 417.75 132.85 422.68 137.73L422.95 137.93C424.24 139.26 425.41 140.8 426.48 142.53ZM414.09 146.06L412.16 145.72L405.5 135.27L407.83 136.27L414.09 146.06ZM417.82 158.38L421.75 171.37C421.71 171.5 421.62 171.57 421.48 171.57L419.49 170.7L415.49 157.38L424.95 148.06L427.28 149.06L417.82 158.38ZM311.57 152.39L313.57 169.37L309.57 169.37L306.24 147.59L351 147.59L351 151.72C351.09 151.94 351.09 152.16 351 152.39L311.57 152.39ZM392.51 171.37L405.7 165.57L413.82 168.64L408.03 166.57L394.84 172.37L392.51 171.37ZM311.7 108.09C300.73 108.75 291.43 113.57 283.79 122.54C276.15 131.6 272.2 143.79 271.93 159.11C271.62 174.57 275.28 186.78 282.92 195.75C284.79 197.97 286.67 199.79 288.58 201.21C285.39 199.26 282.5 196.75 279.92 193.68C272.24 184.54 268.4 172.1 268.4 156.38C268.27 140.26 271.93 127.61 279.39 118.41C286.99 109.22 297.38 104.62 310.57 104.62C321.71 104.62 330.93 108.04 338.21 114.88C331.42 109.78 322.58 107.51 311.7 108.09ZM231.63 113.95L227.1 159.58L222.63 158.25L227.96 108.42L260.27 117.95L260.07 123.08L231.63 113.95ZM319.89 175.23L317.9 179.23C317.05 180.65 316.12 181.67 315.1 182.29C313.68 183.23 312.5 183.76 311.57 183.89C310.5 184.2 309.19 184 307.64 183.29C304.44 181.92 301.82 180.16 299.78 178.03C301.55 179.5 303.48 180.39 305.57 180.7C308.59 181.05 311.19 180.23 313.37 178.23C315.1 176.72 316.25 174.68 316.83 172.1C317.01 171.26 317.14 170.35 317.23 169.37L319.89 175.23ZM177.67 119.61L175.14 200.01L171.14 198.08L171.14 114.82L204.85 109.82L206.65 114.75L177.67 119.61ZM128.17 119.61L132.04 207.21L127.7 207.21L122.51 113.62L157.68 113.62L157.68 119.61L128.17 119.61ZM206.11 171.5L224.83 209.54L221.43 210.21L200.32 168.91L206.11 171.5ZM97.93 113.48C86.42 108.56 72.52 105.22 56.22 103.49C40.33 101.85 27.29 101.78 17.12 103.29L26.25 217.87L21.12 217.87L11.99 99.43C25.49 97.3 40.7 97.14 57.62 98.96C68.42 100.16 77.3 101.78 84.27 103.83C90.93 105.78 96.26 108.2 100.26 111.09C103.54 113.44 106.08 115.99 107.85 118.75C109.54 121.23 110.54 123.68 110.85 126.07C107.39 120.08 103.08 115.88 97.93 113.48ZM67.88 142.73C64.91 143.53 60.47 144.15 54.56 144.59L52.23 140.8C53.29 140.88 54.03 140.93 54.43 140.93L56.09 140.93C61.42 140.93 65.8 140.2 69.21 138.73C72.32 137.27 73.95 135.38 74.08 133.07C74.48 135.69 74.08 137.86 72.88 139.6C71.99 140.88 70.33 141.93 67.88 142.73ZM54.89 191.02L56.42 191.02C61.84 191.02 66.24 190.24 69.62 188.69C72.9 187.09 74.5 184.98 74.41 182.36C74.41 181.7 74.3 181.08 74.08 180.5L75.21 183.23C77.61 190.47 71.06 194.24 55.56 194.55L52.56 190.75C53.89 190.93 54.67 191.02 54.89 191.02ZM78.28 160.25L74.54 155.72C88.31 158.38 98.48 161.18 105.05 164.11C109.36 166.11 112.36 169.26 114.05 173.57C112.05 169.22 100.12 164.78 78.28 160.25Z" />
		<path id="Path 16" fill-rule="evenodd" class="shp8" d="M433.94 154.05C433.94 162.09 431.12 168.88 425.48 174.43C419.93 180.07 413.16 182.89 405.16 182.89C397.21 182.89 390.38 180.07 384.65 174.43C383 172.79 381.62 171.06 380.51 169.24C377.72 164.89 376.32 159.82 376.32 154.05C376.32 146.1 379.09 139.29 384.65 133.6C390.42 128.05 397.26 125.27 405.16 125.27C413.11 125.27 419.88 128.05 425.48 133.6C427.97 136.09 429.92 138.86 431.34 141.93C433.07 145.44 433.94 149.48 433.94 154.05ZM386.98 137.73C382.22 142.44 379.78 147.99 379.65 154.38C379.78 159.45 381.34 163.87 384.31 167.64C385.24 168.79 386.13 169.77 386.98 170.57C391.86 175.32 397.81 177.7 404.83 177.7C410.56 177.7 415.71 176.01 420.28 172.64L420.48 172.5L421.48 171.57C421.62 171.57 421.71 171.5 421.75 171.37L422.68 170.57C425.44 167.86 427.41 164.86 428.61 161.58C429.37 159.54 429.81 157.14 429.94 154.38C429.81 150.03 428.66 146.08 426.48 142.53C425.41 140.8 424.24 139.26 422.95 137.93L422.68 137.73C417.75 132.85 411.8 130.4 404.83 130.4C397.77 130.4 391.82 132.85 386.98 137.73ZM415.49 157.38L419.49 170.7L405.7 165.57L392.51 171.37L396.04 157.05L386.18 148.59L398.63 145.39L405.5 135.27L412.16 145.72L424.95 148.06L415.49 157.38ZM69.21 138.73C65.79 140.2 61.42 140.93 56.09 140.93L54.42 140.93C54.03 140.93 53.29 140.88 52.23 140.8L52.09 124.47L55.56 124.47C61.15 124.47 65.71 125.23 69.21 126.74C70.5 127.27 71.57 127.94 72.41 128.74C73.08 129.49 73.54 130.23 73.81 130.94L74.08 131.94L74.08 132.93C74.17 132.93 74.17 132.98 74.08 133.07C73.94 135.38 72.33 137.26 69.21 138.73ZM52.43 174.03L55.89 174.03C61.8 174.03 66.35 174.77 69.55 176.23C71.15 176.99 72.28 177.77 72.94 178.56C73.21 178.83 73.39 179.05 73.48 179.23L73.88 179.9L74.01 180.23C74.28 180.9 74.41 181.61 74.41 182.36C74.5 184.98 72.9 187.09 69.61 188.69C66.24 190.24 61.84 191.02 56.43 191.02L54.89 191.02C54.67 191.02 53.89 190.93 52.56 190.75L52.43 174.03Z" />
		<path id="Path 17" class="shp14" d="M424.95 148.06L427.28 149.06L417.82 158.38L421.75 171.37L422.68 170.57C425.44 167.86 427.41 164.86 428.61 161.58C429.37 159.54 429.81 157.14 429.94 154.38C429.81 150.03 428.66 146.08 426.48 142.53C425.95 141.82 425.28 141.06 424.48 140.26L424.28 140.06C419.35 135.18 413.38 132.73 406.36 132.73C399.44 132.73 393.48 135.18 388.51 140.06C383.85 144.77 381.4 150.32 381.18 156.72C381.32 160.71 382.36 164.35 384.31 167.64C385.24 168.79 386.13 169.77 386.98 170.57C391.86 175.32 397.81 177.7 404.83 177.7C410.56 177.7 415.71 176.01 420.28 172.64L420.48 172.5L421.48 171.57L408.03 166.57L394.84 172.37L392.51 171.37L396.04 157.05L386.18 148.59L398.63 145.39L405.5 135.27L407.83 136.27L414.09 146.06L424.95 148.06Z" />
		<path id="Path 18" class="shp15" d="M396.84 204.01L398.7 200.01L372.19 208.21L366.99 224.33L355.33 225.99L350.2 243.05L353.2 242.51L357.2 228.99L368.86 227.32L373.99 211.07L396.84 204.01ZM318.56 205.74L314.03 207.74L301.71 280.68L305.37 279.68L318.56 205.74ZM302.44 241.51C303.82 243.33 304.75 245.04 305.24 246.64L305.24 245.64C305.06 243.16 303.95 240.56 301.91 237.85C297.78 231.9 288.16 232.28 273.06 238.98L274.99 242.05C289.29 236.01 298.44 235.83 302.44 241.51ZM333.75 232.32L322.69 277.82L325.36 276.88L336.08 234.98L351.87 230.19L353.2 226.19L333.75 232.32ZM284.92 260.83C285.32 259.36 284.99 257.21 283.92 254.37C284.05 254.86 284.12 255.32 284.12 255.77C284.16 256.17 284.1 256.86 283.92 257.83C283.08 260.94 280.86 264.05 277.26 267.16C273 270.58 267.71 273.18 261.4 274.95L262.47 277.82C268.82 276.08 274.08 273.49 278.26 270.02C281.9 267 284.12 263.94 284.92 260.83ZM258.61 223.06L281.06 218.07L283.05 213L255.41 221L242.09 289.47L244.82 289.47L258.61 223.06ZM432.08 248.37L433.61 244.71L414.96 249.17L417.62 251.84L432.08 248.37ZM401.43 222.66L403.5 219.2L389.04 221.2L390.97 224.19L401.43 222.66ZM401.96 233.99L409.16 220.66L442.34 216.13L445.13 212.67L406.5 218L397.3 234.98L401.96 233.99ZM412.69 234.85L410.03 232.19L381.18 269.82L386.51 269.09L412.69 234.85ZM363.99 243.51L362.06 240.65L351 275.82L354.2 274.49L363.99 243.51Z" />
		<path id="Path 19" fill-rule="evenodd" class="shp16" d="M341.21 195.55L315.76 276.82L305.37 279.68L318.56 205.74L341.21 195.55ZM396.84 204.01L389.04 221.2L390.97 224.19L401.43 222.66L394.84 233.72L381.98 236.39L366.86 269.49L354.2 274.49L363.99 243.51L362.06 240.65L353.2 242.51L357.2 228.99L368.86 227.33L373.99 211.07L396.84 204.01ZM442.34 216.13L414.96 249.17L417.62 251.84L432.08 248.38L425.68 263.49L386.51 269.09L412.69 234.85L410.03 232.19L401.97 233.99L409.16 220.66L442.34 216.13ZM281.06 218.07L273.06 238.98L274.99 242.05C289.29 236.01 298.44 235.83 302.44 241.51C303.82 243.33 304.75 245.04 305.24 246.64C305.06 248.64 304.68 250.93 304.11 253.5C303.17 258.34 301.04 263.16 297.71 267.96C293.8 273.51 289.87 277.35 285.92 279.48C279.21 282.9 271.04 285.52 261.4 287.34C255.23 288.54 249.7 289.25 244.82 289.47L258.61 223.06L281.06 218.07ZM262.47 277.82C268.82 276.08 274.08 273.49 278.26 270.02C281.9 267 284.12 263.94 284.92 260.83C285.32 259.37 284.99 257.21 283.92 254.37L283.92 254.24L283.79 253.97C283.48 253.13 282.74 252.37 281.59 251.7C278.88 250.46 275.04 250.84 270.06 252.84L261.4 274.95L262.47 277.82ZM351.87 230.19L337.55 272.36L325.36 276.89L336.08 234.98L351.87 230.19Z" />
		<path id="Path 20" class="shp8" d="M283.92 254.37L283.92 254.24L283.79 253.97C283.48 253.13 282.74 252.37 281.59 251.7C278.88 250.46 275.04 250.84 270.06 252.84L261.4 274.95C267.71 273.18 273 270.58 277.26 267.16C280.86 264.05 283.08 260.94 283.92 257.83C284.1 256.86 284.16 256.17 284.12 255.77C284.12 255.32 284.05 254.86 283.92 254.37ZM358.33 187.76C353.58 183.05 347.81 180.7 341.01 180.7C334.22 180.7 328.35 183.05 323.42 187.76C318.63 192.55 316.23 198.19 316.23 204.68C316.23 211.29 318.63 216.96 323.42 221.66C328.27 226.24 334.13 228.52 341.01 228.52C347.85 228.52 353.62 226.24 358.33 221.66C363.22 217.05 365.66 211.38 365.66 204.68C365.66 198.1 363.22 192.47 358.33 187.76Z" />
		<path id="Path 21" fill-rule="evenodd" class="shp15" d="M356.2 195.02C352.82 191.91 348.87 190.22 344.34 189.96L345.41 192.02L342.68 200.28L340.68 200.68L344.21 189.96L343.08 189.89C338.06 189.89 333.71 191.6 330.02 195.02C326.47 198.39 324.69 202.46 324.69 207.21C324.69 211.16 325.87 214.53 328.22 217.33C324.67 214.05 322.89 210.05 322.89 205.34C322.89 200.64 324.71 196.55 328.35 193.09C331.95 189.71 336.28 188.02 341.34 188.02C346.32 188.02 350.67 189.71 354.4 193.09C354.93 193.57 355.56 194.22 356.27 195.02L356.2 195.02ZM339.55 222.53L339.48 222.53L336.75 220.66L351.34 198.35L351.4 202.68L339.55 222.53ZM341.34 206.68L340.41 209.54L333.35 211.87L331.42 210.07L341.34 206.68Z" />
		<path id="Path 22" fill-rule="evenodd" class="shp17" d="M343.08 189.89L344.21 189.96L340.68 200.68L342.68 200.28L345.41 192.02L344.34 189.96C348.87 190.22 352.83 191.91 356.2 195.02L356.27 195.02C358.66 198.08 359.86 201.52 359.86 205.34C359.86 210.14 358.04 214.2 354.4 217.53C350.72 220.95 346.36 222.66 341.34 222.66L339.55 222.53L351.4 202.68L351.34 198.35L336.75 220.66L339.48 222.53C335.26 222.22 331.55 220.55 328.35 217.53L328.22 217.33C325.87 214.54 324.69 211.16 324.69 207.21C324.69 202.46 326.47 198.39 330.02 195.02C333.71 191.6 338.06 189.89 343.08 189.89ZM333.35 211.87L340.41 209.54L341.34 206.68L331.42 210.07L333.35 211.87Z" />
		<path id="Path 23" class="shp8" d="M340.68 200.68L344.21 189.69L332.55 194.42L331.42 210.07L341.34 206.68L336.75 220.66L351.34 198.35L340.68 200.68Z" />
	</g>
</svg>