<svg xmlns="http://www.w3.org/2000/svg" viewBox="0 0 643 460">
	<defs>
		<clipPath clipPathUnits="userSpaceOnUse" id="cp1">
			<path d="M0 0L643 0L643 460L0 460Z" />
		</clipPath>
		<linearGradient id="grd1" gradientUnits="userSpaceOnUse"  x1="144.512" y1="366.325" x2="615.066" y2="366.325">
			<stop offset="0" stop-color="#8aafcf"  />
			<stop offset="1" stop-color="#8aafcf"  />
		</linearGradient>
		<linearGradient id="grd2" gradientUnits="userSpaceOnUse"  x1="206.045" y1="335.414" x2="553.533" y2="335.414">
			<stop offset="0" stop-color="#c29b61"  />
			<stop offset="0.989" stop-color="#d4a465"  />
			<stop offset="1" stop-color="#d4a465"  />
		</linearGradient>
		<linearGradient id="grd3" gradientUnits="userSpaceOnUse"  x1="112.903" y1="190.735" x2="643.057" y2="190.735">
			<stop offset="0" stop-color="#c29b61"  />
			<stop offset="0.989" stop-color="#d4a465"  />
			<stop offset="1" stop-color="#d4a465"  />
		</linearGradient>
		<linearGradient id="grd4" gradientUnits="userSpaceOnUse"  x1="216.698" y1="331.172" x2="542.88" y2="331.172">
			<stop offset="0" stop-color="#c9bb82"  />
			<stop offset="0.995" stop-color="#d1c387"  />
			<stop offset="1" stop-color="#d1c387"  />
		</linearGradient>
		<linearGradient id="grd5" gradientUnits="userSpaceOnUse"  x1="122.462" y1="192.191" x2="636.081" y2="192.191">
			<stop offset="0" stop-color="#e6d694"  />
			<stop offset="0.995" stop-color="#e6d694"  />
			<stop offset="1" stop-color="#e6d694"  />
		</linearGradient>
		<linearGradient id="grd6" gradientUnits="userSpaceOnUse"  x1="122.462" y1="201.498" x2="636.081" y2="201.498">
			<stop offset="0" stop-color="#c9bb82"  />
			<stop offset="0.995" stop-color="#d1c387"  />
			<stop offset="1" stop-color="#d1c387"  />
		</linearGradient>
		<linearGradient id="grd7" gradientUnits="userSpaceOnUse"  x1="236.643" y1="194.079" x2="590.421" y2="194.079">
			<stop offset="0" stop-color="#f7edaf"  />
			<stop offset="0.995" stop-color="#f8efb1"  />
			<stop offset="1" stop-color="#f8efb1"  />
		</linearGradient>
		<linearGradient id="grd8" gradientUnits="userSpaceOnUse"  x1="236.643" y1="80.992" x2="590.421" y2="80.992">
			<stop offset="0" stop-color="#fffce6"  />
			<stop offset="1" stop-color="#ffffff"  />
		</linearGradient>
		<linearGradient id="grd9" gradientUnits="userSpaceOnUse"  x1="236.325" y1="256.687" x2="590.421" y2="256.687">
			<stop offset="0" stop-color="#fffce6"  />
			<stop offset="1" stop-color="#fffce6"  />
		</linearGradient>
		<linearGradient id="grd10" gradientUnits="userSpaceOnUse"  x1="128.663" y1="103.859" x2="630.914" y2="103.859">
			<stop offset="0" stop-color="#fdf3ca"  />
			<stop offset="1" stop-color="#f7f1cd"  />
		</linearGradient>
		<linearGradient id="grd11" gradientUnits="userSpaceOnUse"  x1="142.614" y1="104.892" x2="616.963" y2="104.892">
			<stop offset="0" stop-color="#fffce6"  />
			<stop offset="1" stop-color="#ffffff"  />
		</linearGradient>
		<linearGradient id="grd12" gradientUnits="userSpaceOnUse"  x1="156.566" y1="102.309" x2="603.011" y2="102.309">
			<stop offset="0" stop-color="#fdf3ca"  />
			<stop offset="1" stop-color="#f7f1cd"  />
		</linearGradient>
		<linearGradient id="grd13" gradientUnits="userSpaceOnUse"  x1="165.867" y1="100.909" x2="593.71" y2="100.909">
			<stop offset="0" stop-color="#e6d694"  />
			<stop offset="0.995" stop-color="#e6d694"  />
			<stop offset="1" stop-color="#e6d694"  />
		</linearGradient>
		<linearGradient id="grd14" gradientUnits="userSpaceOnUse"  x1="165.867" y1="101.12" x2="593.71" y2="101.12">
			<stop offset="0" stop-color="#c9bb82"  />
			<stop offset="0.995" stop-color="#d1c387"  />
			<stop offset="1" stop-color="#d1c387"  />
		</linearGradient>
		<linearGradient id="grd15" gradientUnits="userSpaceOnUse"  x1="165.867" y1="102.147" x2="593.71" y2="102.147">
			<stop offset="0" stop-color="#c2b378"  />
			<stop offset="1" stop-color="#baa378"  />
		</linearGradient>
		<linearGradient id="grd16" gradientUnits="userSpaceOnUse"  x1="177.542" y1="116.931" x2="582.271" y2="116.931">
			<stop offset="0" stop-color="#db915e"  />
			<stop offset="0.007" stop-color="#db915e"  />
			<stop offset="1" stop-color="#995f3c"  />
		</linearGradient>
		<linearGradient id="grd17" gradientUnits="userSpaceOnUse"  x1="232.662" y1="124.438" x2="539.557" y2="124.438">
			<stop offset="0" stop-color="#ffb582"  />
			<stop offset="1" stop-color="#bf7b4f"  />
		</linearGradient>
		<linearGradient id="grd18" gradientUnits="userSpaceOnUse"  x1="280.75" y1="128.365" x2="513.619" y2="128.365">
			<stop offset="0" stop-color="#db915e"  />
			<stop offset="0.007" stop-color="#db915e"  />
			<stop offset="1" stop-color="#995f3c"  />
		</linearGradient>
		<linearGradient id="grd19" gradientUnits="userSpaceOnUse"  x1="6.303" y1="240.146" x2="217.523" y2="240.146">
			<stop offset="0" stop-color="#c29b61"  />
			<stop offset="0.989" stop-color="#d4a465"  />
			<stop offset="1" stop-color="#d4a465"  />
		</linearGradient>
		<linearGradient id="grd20" gradientUnits="userSpaceOnUse"  x1="16.957" y1="239.214" x2="217.58" y2="239.214">
			<stop offset="0" stop-color="#e6d694"  />
			<stop offset="0.995" stop-color="#e6d694"  />
			<stop offset="1" stop-color="#e6d694"  />
		</linearGradient>
		<linearGradient id="grd21" gradientUnits="userSpaceOnUse"  x1="10.97" y1="299.221" x2="218.672" y2="299.221">
			<stop offset="0" stop-color="#c9bb82"  />
			<stop offset="0.995" stop-color="#d1c387"  />
			<stop offset="1" stop-color="#d1c387"  />
		</linearGradient>
		<linearGradient id="grd22" gradientUnits="userSpaceOnUse"  x1="41.394" y1="222.16" x2="218.346" y2="222.16">
			<stop offset="0" stop-color="#f7edaf"  />
			<stop offset="0.995" stop-color="#f8efb1"  />
			<stop offset="1" stop-color="#f8efb1"  />
		</linearGradient>
		<linearGradient id="grd23" gradientUnits="userSpaceOnUse"  x1="37.816" y1="222.258" x2="212.34" y2="222.258">
			<stop offset="0" stop-color="#fffce6"  />
			<stop offset="1" stop-color="#fffce6"  />
		</linearGradient>
	</defs>
	<style>
		tspan { white-space:pre }
		.shp0 { opacity: 0.529;fill: url(#grd1) } 
		.shp1 { fill: url(#grd2) } 
		.shp2 { fill: url(#grd3) } 
		.shp3 { fill: url(#grd4) } 
		.shp4 { fill: url(#grd5) } 
		.shp5 { fill: url(#grd6) } 
		.shp6 { fill: url(#grd7) } 
		.shp7 { fill: url(#grd8) } 
		.shp8 { fill: url(#grd9) } 
		.shp9 { fill: url(#grd10) } 
		.shp10 { fill: url(#grd11) } 
		.shp11 { fill: url(#grd12) } 
		.shp12 { fill: url(#grd13) } 
		.shp13 { fill: url(#grd14) } 
		.shp14 { fill: url(#grd15) } 
		.shp15 { fill: url(#grd16) } 
		.shp16 { fill: url(#grd17) } 
		.shp17 { fill: url(#grd18) } 
		.shp18 { fill: url(#grd19) } 
		.shp19 { fill: url(#grd20) } 
		.shp20 { fill: url(#grd21) } 
		.shp21 { fill: url(#grd22) } 
		.shp22 { fill: url(#grd23) } 
	</style>
	<g id="Page 1" clip-path="url(#cp1)">
		<path id="Path 1" class="shp0" d="M615.07 366.32C615.07 418.06 509.73 460 379.79 460C249.85 460 144.51 418.06 144.51 366.32C144.51 314.59 249.85 272.65 379.79 272.65C509.73 272.65 615.07 314.59 615.07 366.32Z" />
		<path id="Path 2" class="shp1" d="M206.04 335.41C206.04 373.62 283.83 404.59 379.79 404.59C475.75 404.59 553.53 373.62 553.53 335.41C553.53 297.21 475.75 266.24 379.79 266.24C283.83 266.24 206.04 297.21 206.04 335.41Z" />
		<path id="Path 3" class="shp2" d="M378.51 0C285.54 0 112.9 20.67 112.9 126.67C112.9 232.66 155.53 381.34 378.51 383.83C593.45 386.24 643.06 231.61 643.06 125.62C643.06 19.62 471.49 0 378.51 0Z" />
		<path id="Path 4" class="shp3" d="M216.7 331.17C216.7 367.04 289.72 396.11 379.79 396.11C469.86 396.11 542.88 367.04 542.88 331.17C542.88 295.31 469.86 266.24 379.79 266.24C289.72 266.24 216.7 295.31 216.7 331.17Z" />
		<path id="Path 5" class="shp4" d="M122.46 129.95C122.46 234.59 177.23 379.01 379.79 383.83C571.11 388.39 636.08 233.56 636.08 128.92C636.08 24.28 469.86 4.91 379.79 4.91C289.72 4.91 122.46 25.31 122.46 129.95Z" />
		<path id="Path 6" class="shp5" d="M122.46 129.95C122.46 211.73 155.92 317.81 267.24 362.56C256.26 343.77 247.08 323.95 238.97 303.12C220.57 255.91 203.9 206.79 195.57 156.67C189.16 118.14 188.22 79.33 187.72 40.44C149.52 59.42 122.46 87.87 122.46 129.95Z" />
		<path id="Path 7" class="shp6" d="M236.51 22.31C237.53 53.07 236.01 83.88 236.39 114.66C238.84 117.37 240.84 120.77 242.15 124.95C247.84 143.14 246.27 162.82 248.06 181.66C249.76 199.53 253.34 216.85 257.8 234.22C265.68 264.99 274.91 295.45 286.28 325.12C292.85 342.26 300.31 359.1 308.74 375.38C330.12 380.24 353.71 383.21 379.79 383.83C412.47 384.61 441.46 380.74 467.08 373.25C486.71 350.66 504.7 326.68 520.24 300.82C536.8 273.29 550.57 244.28 561.01 213.89C573.02 178.98 586.79 140.27 586.76 103.09C586.75 97.6 588.14 93.03 590.42 89.31C585.78 73.2 580.92 57.08 574.69 41.56C518.09 12.14 434.76 4.91 379.79 4.91C340.05 4.91 285.3 8.89 236.51 22.31Z" />
		<path id="Path 8" class="shp7" d="M236.51 22.31C237.53 53.07 236.01 83.88 236.39 114.66C238.84 117.37 240.84 120.77 242.15 124.95C243.92 130.62 244.94 136.43 245.63 142.31C258.24 143.63 270.66 146.95 283.22 149.38C302.36 153.08 321.67 155.96 341.14 157.17C379.38 159.56 418.63 157.92 456.78 154.86C493.31 151.94 529.62 146.83 563.14 131.34C570.84 127.78 578.39 123.92 585.86 119.9C586.43 114.27 586.76 108.66 586.76 103.09C586.75 97.6 588.14 93.03 590.42 89.31C585.78 73.2 580.92 57.08 574.69 41.56C518.09 12.14 434.76 4.91 379.79 4.91C340.05 4.91 285.3 8.89 236.51 22.31Z" />
		<path id="Path 9" class="shp8" d="M283.74 203.26C282.43 203.04 281.1 202.76 279.78 202.51C292.78 225.54 325.52 236.86 348.03 246.44C380.69 260.35 422.23 266.29 445.78 295.14C453.73 304.87 458.65 320.59 469.39 327.61C478.75 333.74 490.99 329.68 500.6 325.99C502.13 325.4 503.61 324.69 505.11 324.05C510.35 316.46 515.47 308.77 520.24 300.82C536.8 273.29 550.57 244.28 561.01 213.89C564.19 204.67 567.48 195.18 570.61 185.52C538.91 197.62 458.85 233.04 283.74 203.26Z" />
		<path id="Path 10" class="shp9" d="M128.66 103.86C128.66 159.08 241.1 203.84 379.79 203.84C518.48 203.84 630.91 159.08 630.91 103.86C630.91 48.64 518.48 3.87 379.79 3.87C241.1 3.87 128.66 48.64 128.66 103.86Z" />
		<path id="Path 11" class="shp10" d="M142.61 104.89C142.61 153.41 248.8 192.73 379.79 192.73C510.78 192.73 616.96 153.41 616.96 104.89C616.96 56.38 510.78 17.05 379.79 17.05C248.8 17.05 142.61 56.38 142.61 104.89Z" />
		<path id="Path 12" class="shp11" d="M156.57 102.31C156.57 146.54 256.51 182.4 379.79 182.4C503.07 182.4 603.01 146.54 603.01 102.31C603.01 58.07 503.07 22.22 379.79 22.22C256.51 22.22 156.57 58.07 156.57 102.31Z" />
		<path id="Path 13" class="shp12" d="M165.87 100.91C165.87 141.94 261.64 175.21 379.79 175.21C497.94 175.21 593.71 141.94 593.71 100.91C593.71 59.88 497.94 26.61 379.79 26.61C261.64 26.61 165.87 59.88 165.87 100.91Z" />
		<path id="Path 14" class="shp13" d="M412.95 149.99C411.75 158.2 410.33 166.37 408.81 174.51C513.22 169.59 593.71 138.52 593.71 100.91C593.71 64.24 517.21 33.8 416.64 27.73C424.59 67.3 418.32 113.16 412.95 149.99Z" />
		<path id="Path 15" class="shp14" d="M505.78 77.07C505.12 106.22 500.51 135.5 493.55 163.8C553.71 150.66 593.71 127.42 593.71 100.91C593.71 76 558.37 53.96 504.18 40.49C505.77 52.59 506.06 64.89 505.78 77.07Z" />
		<path id="Path 16" class="shp15" d="M177.54 127.42C179.97 128.47 210.82 178.27 406.66 174.39C533.97 171.87 569.88 137.46 582.27 128.49C575.1 91.81 487.22 62.82 379.79 62.82C273.41 62.82 186.2 91.25 177.54 127.42Z" />
		<path id="Path 17" class="shp16" d="M232.66 131.76C234.41 132.52 256.61 167.8 397.62 165.58C511.03 163.8 540.39 138.22 539.97 129.7C537.9 94.56 455.62 85.26 378.27 85.26C301.68 85.26 238.9 105.72 232.66 131.76Z" />
		<path id="Path 18" class="shp17" d="M280.75 134.43C281.94 134.95 297.17 162.52 393.02 157.45C507.42 151.4 507.55 136.15 513.62 131.76C509.49 105.93 432.49 102.78 379.85 102.78C327.72 102.78 284.99 116.71 280.75 134.43Z" />
		<path id="Path 19" class="shp18" d="M90.36 139.12C69.76 144.06 50.38 153.67 34.47 168.14C7.8 192.7 -6.52 232.45 2.9 268.05C13.66 308.7 52.24 336.31 92.11 345.3C131.97 354.29 173.41 348.11 213.77 341.89C218.52 329.26 219.86 315.27 217.6 301.91C216.79 297.09 215.3 292.01 211.56 289C209.15 287.07 205.82 275.71 202.81 275.15C180.08 270.97 102.83 282.13 95.85 248.02C94.87 243.2 85.78 224 107.48 213.14C128.42 202.68 137.42 215.6 139.26 219.35C147.85 236.83 176.46 238.72 181.88 215.47C187.35 192.04 179.96 181.26 177.91 168.55C173.65 142.18 149.22 134.86 125 134.86C112.45 134.86 99.96 136.83 90.36 139.12Z" />
		<path id="Path 20" class="shp19" d="M96.8 146.3C77.23 150.84 58.83 159.68 43.71 172.98C18.39 195.57 4.78 232.14 13.72 264.87C23.94 302.27 60.59 327.66 98.46 335.93C136.32 344.2 175.68 338.51 214.01 332.79C218.53 321.17 219.8 308.31 217.66 296.02C216.88 291.59 215.47 286.91 211.92 284.15C209.62 282.37 206.71 281.61 203.85 281.1C198.83 280.21 190.52 280.22 180.59 280.23C147.79 280.26 97.32 280.29 89.39 247.77C88.32 243.36 79.02 217.71 109.04 206.13C129.7 198.16 141.92 210.47 143.67 213.91C151.83 229.99 173.56 230.14 176.15 211.99C177.8 200.4 181.9 185.06 179.95 173.37C175.91 149.11 152.7 142.38 129.7 142.38C117.78 142.38 105.91 144.19 96.8 146.3Z" />
		<path id="Path 21" class="shp20" d="M13.72 264.87C23.94 302.27 60.59 327.66 98.46 335.93C136.32 344.2 175.68 338.51 214.01 332.79C215.88 327.98 217.17 322.94 217.91 317.83C171.55 327.08 116.25 330.64 70.27 312.61C47.51 303.69 26.7 282.91 13.13 262.27C13.33 263.14 13.49 264.01 13.72 264.87Z" />
		<path id="Path 22" class="shp21" d="M96.8 146.3C68.72 150.62 41.98 174.62 41.12 175.45C39.01 180.92 34.2 203.76 33.59 206.43C21.19 260.17 67.39 292.48 120.4 301.5C168.97 309.77 214.09 302.28 218.35 301.29C218.18 299.52 217.96 297.77 217.66 296.02C216.88 291.59 215.47 286.91 211.92 284.15C209.62 282.37 206.71 281.61 203.85 281.1C198.83 280.21 190.52 280.21 180.6 280.22C150.57 280.25 105.72 280.28 92.28 255.31C68.72 244.66 76.74 217.69 76.99 216.76C80.97 200.91 94.76 189.9 112.13 185.76C128.08 181.96 146.39 192.67 156.49 205C162.93 206.66 169.6 206.77 177.25 203.1C177.39 203.04 177.53 202.99 177.68 202.92C179.45 193.12 181.42 182.2 179.95 173.37C175.92 149.16 152.95 143.28 129.99 143.28C118.03 143.28 106.08 144.87 96.8 146.3Z" />
		<path id="Path 23" class="shp22" d="M100.5 145.71C36.74 159.14 31.36 204.79 30.75 207.46C19.17 257.63 62.29 290.41 110.71 301.72C101.22 295.33 92.64 287.96 85.41 279.37C60.35 249.55 48.66 204.06 78.28 178.52C104.06 156.31 134.82 156.75 146.54 157.2C148.45 157.28 149.85 157.35 150.65 157.32C150.74 157.32 150.8 157.31 150.89 157.31C151.07 153.81 148.81 148.37 150.11 145.71C142.03 143.63 134.12 142.8 126.51 142.8C117.31 142.8 108.56 144.02 100.5 145.71Z" />
	</g>
</svg>