<svg xmlns="http://www.w3.org/2000/svg" viewBox="0 0 493 562">
	<defs>
		<clipPath clipPathUnits="userSpaceOnUse" id="cp1">
			<path d="M0 0L493 0L493 562L0 562Z" />
		</clipPath>
		<linearGradient id="grd1" gradientUnits="userSpaceOnUse"  x1="92.426" y1="-9.489" x2="207.376" y2="534.311">
			<stop offset="0" stop-color="#9f6a37"  />
			<stop offset="0.455" stop-color="#9f6a37"  />
			<stop offset="1" stop-color="#663b11"  />
		</linearGradient>
		<radialGradient id="grd2" gradientUnits="userSpaceOnUse"  cx="353.09" cy="239.01" r="154.861">
			<stop offset="0" stop-color="#0093d4"  />
			<stop offset="0.204" stop-color="#0093d4"  />
			<stop offset="1" stop-color="#0053af"  />
		</radialGradient>
		<linearGradient id="grd3" gradientUnits="userSpaceOnUse"  x1="99.767" y1="-10.839" x2="213.84" y2="528.811">
			<stop offset="0" stop-color="#794c21"  />
			<stop offset="0.455" stop-color="#794c21"  />
			<stop offset="1" stop-color="#512d09"  />
		</linearGradient>
		<radialGradient id="grd4" gradientUnits="userSpaceOnUse"  cx="-25.63" cy="119.493" r="320.192">
			<stop offset="0" stop-color="#20e3ff"  />
			<stop offset="0.137" stop-color="#20e3ff"  />
			<stop offset="0.608" stop-color="#18b0f5"  />
			<stop offset="1" stop-color="#168bd3"  />
		</radialGradient>
		<radialGradient id="grd5" gradientUnits="userSpaceOnUse"  cx="193.46" cy="89.597" r="188.561">
			<stop offset="0" stop-color="#20e3ff"  />
			<stop offset="0.137" stop-color="#20e3ff"  />
			<stop offset="0.608" stop-color="#18b0f5"  />
			<stop offset="1" stop-color="#168bd3"  />
		</radialGradient>
		<radialGradient id="grd6" gradientUnits="userSpaceOnUse"  cx="242.394" cy="203.397" r="324.2">
			<stop offset="0" stop-color="#20e3ff"  />
			<stop offset="0.137" stop-color="#20e3ff"  />
			<stop offset="0.608" stop-color="#18b0f5"  />
			<stop offset="1" stop-color="#168bd3"  />
		</radialGradient>
		<radialGradient id="grd7" gradientUnits="userSpaceOnUse"  cx="-13.78" cy="134.481" r="171.209">
			<stop offset="0" stop-color="#20e3ff"  />
			<stop offset="0.137" stop-color="#20e3ff"  />
			<stop offset="0.608" stop-color="#18b0f5"  />
			<stop offset="1" stop-color="#168bd3"  />
		</radialGradient>
	</defs>
	<style>
		tspan { white-space:pre }
		.shp0 { fill: #002c69 } 
		.shp1 { fill: url(#grd1) } 
		.shp2 { fill: #3c2208 } 
		.shp3 { fill: url(#grd2) } 
		.shp4 { fill: url(#grd3) } 
		.shp5 { fill: url(#grd4) } 
		.shp6 { fill: url(#grd5) } 
		.shp7 { fill: #6be2ff } 
		.shp8 { fill: url(#grd6) } 
		.shp9 { fill: url(#grd7) } 
	</style>
	<g id="Page 1" clip-path="url(#cp1)">
		<path id="Path 1" fill-rule="evenodd" class="shp0" d="M478.21 223.8C446.88 249.13 420.21 271.9 398.21 292.1C371.61 316.63 351.71 335.93 338.51 350C341.11 353.06 343.51 356.36 345.71 359.9C351.45 369.03 354.31 377.4 354.31 385C354.31 387.13 353.31 389.26 351.31 391.4C350.58 387.26 348.65 382.6 345.51 377.4C339.98 368.13 330.68 357.46 317.61 345.4C308.55 338.2 298.05 330.66 286.11 322.8C270.85 312.6 258.88 304.46 250.21 298.4C247.41 296.33 244.98 294.5 242.91 292.9C241.65 292.1 240.65 291.36 239.91 290.7C238.58 290.56 237.18 290.33 235.71 290C232.45 289.33 229.65 288.8 227.31 288.4C229.18 287.46 231.01 286.26 232.81 284.8C235.48 282.6 237.85 279.93 239.91 276.8L240.51 275.8L245.61 264.5C245.75 263.9 245.98 263.3 246.31 262.7C247.65 257.36 248.21 251.63 248.01 245.5C247.9 238.78 247.64 232.45 247.21 226.5C247.12 225.18 247.02 223.88 246.91 222.6L239.41 179.7C239.35 179.36 239.21 179.03 239.01 178.7L239.01 178.3L238.81 178.1C238.68 178.03 238.61 177.9 238.61 177.7C238.28 177.03 237.95 176.33 237.61 175.6C232.95 166 221.68 154.36 203.81 140.7C201.01 138.56 198.35 136.53 195.81 134.6C193.81 133.13 191.91 131.73 190.11 130.4L153.31 105.6L153.21 105.6C153.21 105.53 153.18 105.5 153.11 105.5L152.81 105.5C151.81 104.96 151.08 104.8 150.61 105C148.01 105.4 145.85 106.13 144.11 107.2C143.98 107.33 143.75 107.46 143.41 107.6C142.68 108.13 141.98 108.8 141.31 109.6C141.11 109.73 140.95 109.96 140.81 110.3C140.55 110.5 140.31 110.76 140.11 111.1C137.11 115.23 135.75 122.2 136.01 132L136.01 132.9C136.08 133.23 136.18 133.53 136.31 133.8C136.38 135.06 136.58 136.33 136.91 137.6C137.45 140.33 138.45 143.26 139.91 146.4C141.71 149.93 143.98 153.73 146.71 157.8L146.91 158C149.78 162.2 153.11 166 156.91 169.4C161.31 173.53 166.38 177.2 172.11 180.4C177.11 183.06 182.68 185.26 188.81 187C184.68 191.86 180.85 197.96 177.31 205.3C176.78 206.56 176.21 207.8 175.61 209C172.41 216.73 170.51 223.86 169.91 230.4C169.45 232.8 169.28 235.2 169.41 237.6C169.75 250.86 172.78 262.06 178.51 271.2C179.65 272.93 180.98 274.66 182.51 276.4C186.11 280.8 190.21 284.2 194.81 286.6C195.81 287.13 196.81 287.6 197.81 288C196.81 288.13 195.95 288.2 195.21 288.2C194.61 288.33 194.08 288.4 193.61 288.4C188.61 288.8 184.68 288.13 181.81 286.4C181.21 286.06 180.61 285.66 180.01 285.2C164.61 270.73 156.68 255.33 156.21 239C155.81 229.13 158.31 218.03 163.71 205.7C163.85 205.3 164.05 204.9 164.31 204.5L161.01 189.7C158.41 188.03 155.95 186.26 153.61 184.4C152.88 195 146.65 203.33 134.91 209.4L134.91 209.2C132.98 210.13 131.15 210.93 129.41 211.6C131.41 215.33 132.81 218.4 133.61 220.8L133.61 221C135.61 227.66 135.38 233.9 132.91 239.7C131.11 243.23 128.55 246.53 125.21 249.6L125.61 249.4C124.75 250.8 123.48 251.96 121.81 252.9L122.51 255.7C124.91 260.5 126.25 266.86 126.51 274.8L126.51 275C126.65 283.13 124.38 288.76 119.71 291.9C116.18 295.56 109.55 297.6 99.81 298C111.55 304.26 123.08 308.83 134.41 311.7L137.51 326.2C121.98 322.93 105.98 316.7 89.51 307.5C81.05 302.76 73.85 298.03 67.91 293.3C61.51 291.43 54.31 289.13 46.31 286.4C13.91 275.13 -1.49 262.93 0.11 249.8C-0.15 241.26 2.08 233.83 6.81 227.5L6.51 227.7C9.78 222.56 14.11 218.7 19.51 216.1C18.98 215.7 18.48 215.43 18.01 215.3C6.08 206.76 0.71 199.36 1.91 193.1C1.45 185.3 4.08 177.73 9.81 170.4L10.11 170.2C14.91 164.13 20.61 160.06 27.21 158C21.08 149.6 18.25 143.3 18.71 139.1C18.38 128.63 22.48 119.7 31.01 112.3C38.95 105.1 47.81 101.46 57.61 101.4C66.28 100.53 77.81 104.7 92.21 113.9C97.21 117.16 102.65 121.1 108.51 125.7C110.85 127.63 113.25 129.6 115.71 131.6L115.71 131.4C118.38 133.46 120.88 135.53 123.21 137.6C123.08 136.33 122.91 135 122.71 133.6C122.45 120.66 124.58 111.36 129.11 105.7L129.01 105.7C129.08 105.5 129.28 105.26 129.61 105C132.41 100.93 136.21 98 141.01 96.2C143.21 95.26 145.65 94.6 148.31 94.2C149.51 93.66 151.28 93.73 153.61 94.4C163.35 97.13 182.95 109.86 212.41 132.6C232.48 147.93 245.01 161 250.01 171.8L250.01 172C256.41 185.53 260.15 210.33 261.21 246.4C261.68 261.13 258.38 273.8 251.31 284.4L251.31 284.6C259.51 290.8 273.75 300.63 294.01 314.1L294.01 314.2C308.08 323.53 320.28 332.4 330.61 340.8C343.75 326.93 363.18 308.26 388.91 284.8C411.05 264.33 438.01 241.4 469.81 216C478.48 208.73 486.28 202.46 493.21 197.2C491.35 205.6 490.48 211.16 490.61 213.9C486.81 216.96 482.68 220.26 478.21 223.8ZM38.01 167.6C37.88 167.6 37.75 167.6 37.61 167.6C30.88 167.66 25.25 170.56 20.71 176.3C16.85 181.3 14.98 186.46 15.11 191.8C15.11 194.46 17.55 197.76 22.41 201.7C21.55 200.9 20.81 200.23 20.21 199.7C28.28 204.23 34.65 207.93 39.31 210.8C44.65 213.93 47.95 215.83 49.21 216.5C50.21 216.96 51.38 217.43 52.71 217.9C55.85 218.96 59.91 220.46 64.91 222.4C72.71 225.13 82.81 228.73 95.21 233.2C102.75 236.06 108.85 238.7 113.51 241.1C114.51 240.7 115.35 240.23 116.01 239.7C116.88 238.9 117.68 238 118.41 237C121.61 232.8 122.41 228.06 120.81 222.8C119.61 219.46 116.71 214.36 112.11 207.5C112.05 207.3 111.95 207.1 111.81 206.9C103.41 202.76 92.31 196.7 78.51 188.7C75.18 186.76 71.65 184.73 67.91 182.6C66.91 181.93 65.85 181.23 64.71 180.5C57.78 176.36 51.51 172.66 45.91 169.4C45.38 169.06 44.88 168.8 44.41 168.6L38.01 167.6ZM86.61 176.5C94.61 180.43 101.75 184.33 108.01 188.2C114.21 192.06 119.48 195.83 123.81 199.5L124.31 199.5C125.65 198.83 127.05 198.06 128.51 197.2C136.58 193.13 140.45 187.3 140.11 179.7C139.98 174.7 136.48 168.3 129.61 160.5C128.41 159.1 127.25 157.8 126.11 156.6C122.78 153.13 118.98 149.53 114.71 145.8C113.91 145.13 113.15 144.43 112.41 143.7C110.68 142.23 108.85 140.76 106.91 139.3C102.98 136.1 99.25 133.13 95.71 130.4C81.91 120.06 70.85 114.16 62.51 112.7L59.11 112.3L58.01 112.3C51.41 112.56 45.41 115.06 40.01 119.8C34.28 124.8 31.55 130.73 31.81 137.6C31.81 140.86 34.91 146.26 41.11 153.8C41.25 153.86 41.41 153.96 41.61 154.1C42.15 154.36 42.71 154.66 43.31 155C45.65 156.06 47.98 157.13 50.31 158.2C58.45 162 66.88 166.26 75.61 171C76.55 171.53 77.51 172.06 78.51 172.6C81.25 173.93 83.95 175.23 86.61 176.5ZM38.91 223C29.18 223.26 22.15 226.56 17.81 232.9C14.75 237.23 13.28 242.33 13.41 248.2C13.48 252.93 17.35 257.66 25.01 262.4C31.01 266.2 39.45 270 50.31 273.8L50.71 273.8C59.71 276.93 67.58 279.36 74.31 281.1C84.05 283.56 91.65 284.73 97.11 284.6C103.98 284.46 108.51 283.43 110.71 281.5C112.45 280.16 113.25 277.76 113.11 274.3C112.91 266.56 111.38 260.76 108.51 256.9C107.31 255.23 105.55 253.43 103.21 251.5C92.61 248.5 78.88 242.6 62.01 233.8C58.21 231.73 54.25 229.56 50.11 227.3C48.91 226.56 47.75 225.86 46.61 225.2C45.61 224.66 44.65 224.16 43.71 223.7C43.45 223.5 43.18 223.33 42.91 223.2L44.21 223.2C44.46 222.82 44.73 222.46 45.01 222.1C44.72 222.46 44.35 222.82 43.91 223.2C42.18 223.06 40.51 223 38.91 223ZM261.91 462.6C288.91 494.53 311.38 510.27 329.31 509.8C341.45 509.6 357.28 502 376.81 487C374.88 493.8 373.11 500.63 371.51 507.5C355.11 518.36 341.18 523.63 329.71 523.3C308.25 525.1 282.21 507.8 251.61 471.4L251.61 471.1C246.75 465.16 238.65 454.33 227.31 438.6L220.11 405.1C220.25 405.23 220.35 405.43 220.41 405.7C241.01 435.03 254.85 454 261.91 462.6Z" />
		<path id="Path 2" class="shp1" d="M108.51 125.7C110.85 127.63 113.25 129.6 115.71 131.6L115.71 131.4C118.38 133.46 120.88 135.53 123.21 137.6C123.08 136.33 122.91 135 122.71 133.6C122.45 120.67 124.58 111.36 129.11 105.7L129.01 105.7C129.08 105.5 129.28 105.26 129.61 105C128.28 100.26 126.81 95.36 125.21 90.3C114.21 54.3 108.28 34.6 107.41 31.2C100.61 31.6 94.11 31.4 87.91 30.6L108.51 125.7ZM144.61 293.9L149.61 317.7L154.51 340.6L196.11 535.5C200.38 533.23 204.18 529.66 207.51 524.8C211.18 519.66 213.01 515.16 213.01 511.3C213.01 508.43 205.51 475.23 190.51 411.7C187.58 399.16 184.91 387.33 182.51 376.2C179.51 364 176.85 352.76 174.51 342.5C170.31 323.76 166.78 308.1 163.91 295.5C158.58 294.3 153.01 293.7 147.21 293.7C146.21 293.7 145.35 293.76 144.61 293.9Z" />
		<path id="Path 3" class="shp2" d="M87.91 30.6L83.61 9.9C79.21 10.3 74.75 10.56 70.21 10.7L92.21 113.9C97.21 117.17 102.65 121.1 108.51 125.7L87.91 30.6ZM133.41 -0.1C129.41 1.1 125.35 2.26 121.21 3.4L141.01 96.2C143.21 95.26 145.65 94.6 148.31 94.2C149.51 93.67 151.28 93.73 153.61 94.4L133.41 -0.1ZM132.91 239.7C131.11 243.23 128.55 246.53 125.21 249.6L125.61 249.4C124.75 250.8 123.48 251.97 121.81 252.9L122.51 255.7C124.91 260.5 126.25 266.87 126.51 274.8L134.41 311.7L137.51 326.2L184.21 545C184.95 548.13 186.61 550.6 189.21 552.4C201.01 560.53 211.58 563.5 220.91 561.3C230.78 560.03 239.25 553.6 246.31 542C247.71 539.27 248.15 536.5 247.61 533.7L227.31 438.6L220.11 405.1L195.21 288.2C194.61 288.33 194.08 288.4 193.61 288.4C188.61 288.8 184.68 288.13 181.81 286.4L201.81 380.3L208.81 412.8L234.61 533.5C225.35 549.1 212.88 551.4 197.21 540.4L196.11 535.5L154.51 340.6L149.61 317.7L144.61 293.9L144.31 293.9L132.91 239.7Z" />
		<path id="Path 4" class="shp3" d="M478.21 223.8C446.88 249.13 420.21 271.9 398.21 292.1C371.61 316.63 351.71 335.93 338.51 350C341.11 353.06 343.51 356.36 345.71 359.9C351.45 369.03 354.31 377.4 354.31 385C354.31 387.13 353.31 389.26 351.31 391.4C350.58 387.26 348.65 382.6 345.51 377.4C345.98 378.6 346.58 380 347.31 381.6C348.51 384.8 350.15 388.96 352.21 394.1C357.15 407.1 359.61 414.8 359.61 417.2C359.61 417.33 358.38 423.86 355.91 436.8C351.51 449.53 344.68 455.9 335.41 455.9C310.75 455.9 286.31 437.33 262.11 400.2C253.78 387.33 246.41 373.7 240.01 359.3C234.75 347.23 232.11 339.43 232.11 335.9C232.11 326.96 237.55 315.2 248.41 300.6C248.88 300 249.31 299.4 249.71 298.8C249.91 298.66 250.08 298.53 250.21 298.4C247.41 296.33 244.98 294.5 242.91 292.9C241.65 292.1 240.65 291.36 239.91 290.7C238.58 290.56 237.18 290.33 235.71 290C232.45 289.33 229.65 288.8 227.31 288.4C223.65 290.06 219.61 290.96 215.21 291.1C208.88 291.16 203.08 290.13 197.81 288C196.81 288.13 195.95 288.2 195.21 288.2L220.11 405.1C220.25 405.23 220.35 405.43 220.41 405.7C241.01 435.03 254.85 454 261.91 462.6C288.91 494.53 311.38 510.26 329.31 509.8C341.45 509.6 357.28 502 376.81 487C379.48 477.46 382.35 467.83 385.41 458.1C387.75 447.56 390.84 435.93 394.71 423.2C402.58 398.06 413.91 370.83 428.71 341.5L429.01 341.2C432.95 333 438.25 323.6 444.91 313L444.61 313C447.08 308.93 449.08 305.6 450.61 303C455.95 284.06 469.51 257.73 491.31 224C490.71 220.93 490.48 217.56 490.61 213.9C486.81 216.97 482.68 220.26 478.21 223.8ZM126.51 275C126.65 283.13 124.38 288.76 119.71 291.9C116.18 295.56 109.55 297.6 99.81 298C111.55 304.26 123.08 308.83 134.41 311.7L126.51 274.8L126.51 275Z" />
		<path id="Path 5" class="shp4" d="M83.61 9.9L87.91 30.6C94.11 31.4 100.61 31.6 107.41 31.2C108.28 34.6 114.21 54.3 125.21 90.3C126.81 95.36 128.28 100.26 129.61 105C132.41 100.93 136.21 98 141.01 96.2L121.21 3.4C109.01 6.53 96.48 8.7 83.61 9.9ZM134.91 209.4L134.91 209.2C132.98 210.13 131.15 210.93 129.41 211.6C131.41 215.33 132.81 218.4 133.61 220.8L133.61 221C135.61 227.66 135.38 233.9 132.91 239.7L144.31 293.9L144.61 293.9C145.35 293.76 146.21 293.7 147.21 293.7C153.01 293.7 158.58 294.3 163.91 295.5C166.78 308.1 170.31 323.76 174.51 342.5C176.85 352.76 179.51 364 182.51 376.2C184.91 387.33 187.58 399.16 190.51 411.7C205.51 475.23 213.01 508.43 213.01 511.3C213.01 515.16 211.18 519.66 207.51 524.8C204.18 529.66 200.38 533.23 196.11 535.5L197.21 540.4C212.88 551.4 225.35 549.1 234.61 533.5L208.81 412.8L201.81 380.3L181.81 286.4C181.21 286.06 180.61 285.66 180.01 285.2C164.61 270.73 156.68 255.33 156.21 239C155.81 229.13 158.31 218.03 163.71 205.7C163.85 205.3 164.05 204.9 164.31 204.5L161.01 189.7C158.41 188.03 155.95 186.26 153.61 184.4C152.88 195 146.65 203.33 134.91 209.4Z" />
		<path id="Path 6" class="shp5" d="M143.41 107.6C142.68 108.13 141.98 108.8 141.31 109.6C141.11 109.73 140.95 109.96 140.81 110.3C140.55 110.5 140.31 110.76 140.11 111.1C137.11 115.23 135.75 122.2 136.01 132L136.01 132.9C136.08 133.23 136.18 133.53 136.31 133.8C136.38 135.06 136.58 136.33 136.91 137.6C137.45 140.33 138.45 143.26 139.91 146.4C141.71 149.93 143.98 153.73 146.71 157.8L146.91 158C149.78 162.2 153.11 166 156.91 169.4C161.31 173.53 166.38 177.2 172.11 180.4C177.11 183.06 182.68 185.26 188.81 187C184.68 191.86 180.85 197.96 177.31 205.3C176.78 206.56 176.21 207.8 175.61 209C172.41 216.73 170.51 223.86 169.91 230.4C169.45 232.8 169.28 235.2 169.41 237.6C169.75 250.86 172.78 262.06 178.51 271.2C179.65 272.93 180.98 274.66 182.51 276.4C186.11 280.8 190.21 284.2 194.81 286.6C195.81 287.13 196.81 287.6 197.81 288C203.08 290.13 208.88 291.16 215.21 291.1C219.61 290.96 223.65 290.06 227.31 288.4C229.18 287.46 231.01 286.26 232.81 284.8C235.48 282.6 237.84 279.93 239.91 276.8L240.51 275.8L245.61 264.5C245.75 263.9 245.98 263.3 246.31 262.7L242.71 262.7L240.01 262.7C235.21 262.36 230.91 261.4 227.11 259.8C218.71 256.2 212.15 249.63 207.41 240.1C202.55 230.5 200.11 220.6 200.11 210.4C200.11 209.46 201.65 203.67 204.71 193L209.31 176.7C209.31 175.77 205.85 173.36 198.91 169.5C189.58 164.3 182.11 159.56 176.51 155.3C174.11 153.7 171.98 152 170.11 150.2C168.05 148.46 166.11 146.8 164.31 145.2C152.58 133.53 145.85 120.86 144.11 107.2C143.98 107.33 143.75 107.46 143.41 107.6Z" />
		<path id="Path 7" class="shp6" d="M150.61 105C148.01 105.4 145.85 106.13 144.11 107.2C145.85 120.86 152.58 133.53 164.31 145.2C166.11 146.8 168.05 148.46 170.11 150.2C171.98 152 174.11 153.7 176.51 155.3C182.11 159.56 189.58 164.3 198.91 169.5C205.85 173.36 209.31 175.77 209.31 176.7L204.71 193C201.65 203.67 200.11 209.46 200.11 210.4C200.11 220.6 202.55 230.5 207.41 240.1C212.15 249.63 218.71 256.2 227.11 259.8C230.91 261.4 235.21 262.36 240.01 262.7L242.71 262.7L246.31 262.7C247.65 257.36 248.21 251.63 248.01 245.5C247.9 238.78 247.64 232.45 247.21 226.5C246.88 225.43 246.58 224.4 246.31 223.4C238.65 196.86 231.31 179.73 224.31 172C216.18 163.13 206.78 154.66 196.11 146.6C184.78 138.6 176.78 132.93 172.11 129.6C166.51 125.33 161.95 120.96 158.41 116.5C155.48 112.9 153.21 109.13 151.61 105.2C151.95 105.2 152.34 105.3 152.81 105.5C152.09 105.11 151.5 104.92 151.05 104.92C150.89 104.92 150.74 104.94 150.61 105Z" />
		<path id="Path 8" class="shp7" d="M65.91 113.7C64.78 113.3 63.65 112.96 62.51 112.7L59.11 112.3L58.01 112.3C51.41 112.56 45.41 115.06 40.01 119.8C34.28 124.8 31.55 130.73 31.81 137.6C31.81 140.86 34.91 146.26 41.11 153.8C41.25 153.86 41.41 153.96 41.61 154.1C42.15 154.36 42.71 154.66 43.31 155C45.65 156.06 47.98 157.13 50.31 158.2C48.78 154.8 47.78 152.2 47.31 150.4C46.85 148.4 46.61 144.36 46.61 138.3C46.61 133.03 49.41 127.5 55.01 121.7C58.28 118.1 61.91 115.43 65.91 113.7ZM37.41 177.3C39.75 174.16 42.58 171.53 45.91 169.4C45.38 169.06 44.88 168.8 44.41 168.6L38.01 167.6C37.88 167.6 37.75 167.6 37.61 167.6C30.88 167.66 25.25 170.56 20.71 176.3C16.85 181.3 14.98 186.46 15.11 191.8C15.11 194.46 17.55 197.76 22.41 201.7C21.55 200.9 20.81 200.23 20.21 199.7C28.28 204.23 34.65 207.93 39.31 210.8C34.05 204.06 31.41 197.96 31.41 192.5C31.41 187.5 33.41 182.43 37.41 177.3ZM43.71 223.7C43.45 223.5 43.18 223.33 42.91 223.2L43.91 223.2C42.18 223.06 40.51 223 38.91 223C29.18 223.26 22.15 226.56 17.81 232.9C14.75 237.23 13.28 242.33 13.41 248.2C13.48 252.93 17.35 257.66 25.01 262.4C25.21 254.53 26.45 248.23 28.71 243.5C30.98 238.9 35.98 232.3 43.71 223.7ZM325.71 364.2C333.51 370.46 340.71 376.26 347.31 381.6C346.58 380 345.98 378.6 345.51 377.4C339.98 368.13 330.68 357.46 317.61 345.4C308.55 338.2 298.05 330.66 286.11 322.8C270.85 312.6 258.88 304.46 250.21 298.4C250.08 298.53 249.91 298.66 249.71 298.8C249.31 299.4 248.88 300 248.41 300.6C250.55 303.06 252.98 305.76 255.71 308.7C266.45 320.23 275.78 328.46 283.71 333.4C293.71 339.6 307.71 349.86 325.71 364.2ZM239.41 179.7C239.35 179.36 239.21 179.03 239.01 178.7L239.01 178.3L238.81 178.1C238.68 178.03 238.61 177.9 238.61 177.7C238.28 177.03 237.95 176.33 237.61 175.6C232.95 166 221.68 154.36 203.81 140.7C201.01 138.56 198.35 136.53 195.81 134.6C193.81 133.13 191.91 131.73 190.11 130.4L153.31 105.6L153.21 105.6C153.21 105.53 153.18 105.5 153.11 105.5L152.81 105.5C152.35 105.3 151.95 105.2 151.61 105.2C153.21 109.13 155.48 112.9 158.41 116.5C161.95 120.96 166.51 125.33 172.11 129.6C176.78 132.93 184.78 138.6 196.11 146.6C206.78 154.66 216.18 163.13 224.31 172C231.31 179.73 238.65 196.86 246.31 223.4C246.58 224.4 246.88 225.43 247.21 226.5C247.12 225.18 247.02 223.88 246.91 222.6L239.41 179.7Z" />
		<path id="Path 9" class="shp8" d="M232.11 335.9C232.11 339.43 234.75 347.23 240.01 359.3C246.41 373.7 253.78 387.33 262.11 400.2C286.31 437.33 310.75 455.9 335.41 455.9C344.68 455.9 351.51 449.53 355.91 436.8C358.38 423.86 359.61 417.33 359.61 417.2C359.61 414.8 357.15 407.1 352.21 394.1C350.15 388.96 348.51 384.8 347.31 381.6C340.71 376.26 333.51 370.46 325.71 364.2C307.71 349.86 293.71 339.6 283.71 333.4C275.78 328.46 266.45 320.23 255.71 308.7C252.98 305.76 250.55 303.06 248.41 300.6C237.55 315.2 232.11 326.96 232.11 335.9Z" />
		<path id="Path 10" class="shp9" d="M65.91 113.7C61.91 115.43 58.28 118.1 55.01 121.7C49.41 127.5 46.61 133.03 46.61 138.3C46.61 144.36 46.85 148.4 47.31 150.4C47.78 152.2 48.78 154.8 50.31 158.2C58.45 162 66.88 166.26 75.61 171C76.55 171.53 77.51 172.06 78.51 172.6C81.25 173.93 83.95 175.23 86.61 176.5C94.61 180.43 101.75 184.33 108.01 188.2C114.21 192.06 119.48 195.83 123.81 199.5L124.31 199.5C125.65 198.83 127.05 198.06 128.51 197.2C136.58 193.13 140.45 187.3 140.11 179.7C139.98 174.7 136.48 168.3 129.61 160.5C128.41 159.1 127.25 157.8 126.11 156.6C122.78 153.13 118.98 149.53 114.71 145.8C113.91 145.13 113.15 144.43 112.41 143.7C110.68 142.23 108.85 140.76 106.91 139.3C102.98 136.1 99.25 133.13 95.71 130.4C81.91 120.06 70.85 114.17 62.51 112.7C63.65 112.96 64.78 113.3 65.91 113.7ZM37.41 177.3C33.41 182.43 31.41 187.5 31.41 192.5C31.41 197.96 34.05 204.06 39.31 210.8C44.65 213.93 47.95 215.83 49.21 216.5C50.21 216.97 51.38 217.43 52.71 217.9C55.85 218.96 59.91 220.46 64.91 222.4C72.71 225.13 82.81 228.73 95.21 233.2C102.75 236.06 108.85 238.7 113.51 241.1C114.51 240.7 115.35 240.23 116.01 239.7C116.88 238.9 117.68 238 118.41 237C121.61 232.8 122.41 228.06 120.81 222.8C119.61 219.46 116.71 214.36 112.11 207.5C112.05 207.3 111.95 207.1 111.81 206.9C103.41 202.77 92.31 196.7 78.51 188.7C75.18 186.76 71.65 184.73 67.91 182.6C66.91 181.93 65.85 181.23 64.71 180.5C57.78 176.36 51.51 172.66 45.91 169.4C42.58 171.53 39.75 174.16 37.41 177.3ZM28.71 243.5C26.45 248.23 25.21 254.53 25.01 262.4C31.01 266.2 39.45 270 50.31 273.8L50.71 273.8C59.71 276.93 67.58 279.36 74.31 281.1C84.05 283.56 91.65 284.73 97.11 284.6C103.98 284.47 108.51 283.43 110.71 281.5C112.45 280.17 113.25 277.76 113.11 274.3C112.91 266.56 111.38 260.76 108.51 256.9C107.31 255.23 105.55 253.43 103.21 251.5C92.61 248.5 78.88 242.6 62.01 233.8C58.21 231.73 54.25 229.56 50.11 227.3C48.91 226.56 47.75 225.86 46.61 225.2C45.61 224.66 44.65 224.17 43.71 223.7C35.98 232.3 30.98 238.9 28.71 243.5Z" />
	</g>
</svg>